<?xml version="1.0" standalone="no"?>
<!DOCTYPE svg PUBLIC "-//W3C//DTD SVG 1.1//EN" "http://www.w3.org/Graphics/SVG/1.1/DTD/svg11.dtd" >
<svg xmlns="http://www.w3.org/2000/svg" xmlns:xlink="http://www.w3.org/1999/xlink" version="1.1">
<metadata></metadata>
<defs>
<font id="debbyscript" horiz-adv-x="692" >
<font-face units-per-em="2048" ascent="1638" descent="-410" />
<missing-glyph horiz-adv-x="458" />
<glyph horiz-adv-x="0" />
<glyph horiz-adv-x="682" />
<glyph unicode=" "  horiz-adv-x="458" />
<glyph unicode="&#x09;" horiz-adv-x="458" />
<glyph unicode="&#xa0;" horiz-adv-x="458" />
<glyph unicode="!" horiz-adv-x="434" d="M66 -80q-14 36 1.5 66t51.5 37q71 13 102 20q117 22 123 -68q7 -125 -98 -135h-60q-79 -12 -120 80zM102 807q1 20 9 135t10 176q1 36 0 76t-3 88.5t-3 75.5q0 70 19.5 86t88.5 2q62 -12 84.5 -37t30.5 -88q8 -60 8.5 -123.5t-3.5 -149.5t-5 -122q-8 -178 -19 -250 q-5 -34 -7.5 -98.5t-10 -116.5t-25.5 -96q-42 -105 3 -201q-33 -54 -80 -37q-20 8 -31 14t-21.5 21t-11.5 37q-2 63 -21 276.5t-12 331.5z" />
<glyph unicode="&#x22;" horiz-adv-x="387" d="M2.5 1065q-6.5 29 1.5 53q29 166 92 250q17 22 44 68.5t32 54.5q35 -15 49 -27q37 -28 44.5 -56.5t-13.5 -70.5q-29 -55 -80 -123q-11 -14 -38.5 -41.5t-39.5 -44.5q-7 -11 -55 -110q-30 18 -36.5 47zM151 1013.5q8 -37.5 31 -50.5q10 -5 23 -7q3 3 12.5 11.5t16 15.5 t10.5 14q11 15 36.5 56.5t41.5 60.5q35 40 101.5 111.5t92.5 99.5q6 8 9.5 20.5t0.5 16.5q-39 43 -65 53q-8 3 -24.5 -9t-26.5 -26l-252 -309q-15 -20 -7 -57.5z" />
<glyph unicode="#" horiz-adv-x="952" d="M0.5 156.5q-4.5 21.5 17.5 54.5q4 6 115 151q11 16 34.5 43.5t27.5 32.5q5 7 12 23.5t8 17.5q-16 14 -54 10.5t-46 16.5q-3 6 -25 69q123 -5 137 -6q47 -5 63.5 7t26.5 59q-60 10 -84.5 14.5t-44 16.5t-24 24t-12.5 43q9 8 20.5 11.5t18.5 3t22 -2.5t20 -2l117 -12 q36 -5 56 27q45 84 139 252q0 1 5.5 12l6.5 13t6.5 9.5t9.5 9.5t11.5 4t15.5 1q71 -7 100 -51q5 -9 2 -24.5t-10 -27.5q-17 -30 -53.5 -88t-54.5 -88q-6 -9 -37 -69q21 0 70 -1.5t73 -0.5q13 0 29 26q18 26 52.5 79.5t53.5 80.5q11 16 39 49t41 53q20 32 64 19q12 -3 22 -8 l21 -10.5t25 -14t14 -14.5q6 -12 0.5 -21.5t-18.5 -19t-17 -15.5q-22 -31 -146 -202q14 -9 40.5 -20t46.5 -23.5t34 -34.5q-15 -3 -40.5 -9t-45 -9.5t-35.5 -2.5q-71 3 -89 -9t-50 -85l129 -8q58 0 80 -70l-88 17q-11 2 -37.5 3.5t-40.5 4.5q-76 15 -121 -47 q-31 -41 -64.5 -91.5t-56 -87.5t-59.5 -97.5t-55 -90.5l-21 -28q-61 27 -78 38q-37 23 -40.5 43.5t22.5 55.5l172 223q25 34 66 96q-20 0 -50.5 2.5t-52 2.5t-37.5 -5q-32 -10 -73 -76q-51 -70 -101 -159q-16 -27 -42.5 -80t-37.5 -72q-2 -6 -8.5 -17.5t-9.5 -17.5 q-42 24 -90 56q-32 22 -36.5 43.5zM420 547q110 -31 148 -18t59 96q-87 15 -107 16q-30 0 -53 -23q-8 -8 -15 -18t-17 -28t-15 -25z" />
<glyph unicode="$" horiz-adv-x="591" d="M0 -23q1 16 8 33l4 8t5 7t5.5 5t7.5 4.5l7 3.5t8 2.5t8 2.5t9 2.5t8 1.5q6 1 213 59q9 2 26 9.5t27 11.5q-47 90 -121 158q-67 65 -109 119.5t-63 119.5q-26 85 -9.5 131.5t81.5 75.5q57 26 82.5 65.5t25.5 100.5q0 10 10 55q56 -4 71 -9.5t52 -33.5q-2 -4 -17 -31.5 t-20 -43.5q-13 -34 -13 -52t10.5 -32.5t43.5 -42.5q6 -5 29 -24.5t35 -31.5q29 -33 37 -53q9 -19 -2 -45q-11 -22 -43 -2q-39 21 -90 -12q-17 -10 -45 -34t-37 -30q-32 -26 -32 -46.5t32 -55.5q165 -189 207 -242q22 -27 69 -129q12 -30 3.5 -51.5t-34.5 -34.5 q-27 -13 -104 -35q-8 -2 -24 -3t-23 -3q-76 -29 -59 -104l4 -37q-21 2 -38 10.5t-26.5 15t-19.5 25t-13 24.5t-11 31t-9 29l-33 -8q-3 0 -16 -3t-16.5 -3.5t-14.5 0t-17 3.5t-14.5 9t-15.5 16q-13 19 -20 32t-13.5 29.5t-5.5 32.5z" />
<glyph unicode="%" horiz-adv-x="927" d="M10 -27q-27 43 17 60q41 15 63 61q66 127 203 209q22 13 43.5 28t45 34.5t39.5 33t43.5 38t39.5 34.5q49 44 137.5 133t130.5 129q35 31 53.5 37.5t34.5 -7t41 -56.5q-6 -16 -18 -31.5t-21.5 -24.5t-27.5 -24.5t-25 -22.5l-277 -254q-26 -23 -76.5 -71.5t-92 -84.5 t-84.5 -63q-79 -52 -117 -145q-5 -11 -12 -20t-20 -17.5t-19 -12.5t-26 -13t-24 -11q-37 41 -51 61zM89 621q14 86 85 141q51 35 68 45q73 43 129 -8q10 -8 23.5 -15.5t29.5 -15t25 -12.5q2 -8 4 -20.5t4 -21t6 -14.5q66 -120 -45 -200q-78 -52 -131 -82 q-47 -25 -80.5 -16.5t-69.5 51.5q-62 82 -48 168zM184 502q30 -1 55.5 7.5t56 25.5t42.5 22q48 19 41 80q-5 33 -24.5 44.5t-47.5 -3.5q-31 -15 -47 -27q-38 -34 -57.5 -68t-18.5 -81zM467 41q-2 145 170 225q15 10 51 -4q32 -11 66 -35q17 -12 22 -26q33 -95 37 -127 q12 -101 -70 -162q-41 -31 -104 -51q-25 -9 -59 6q-46 19 -80 71t-33 103zM551 -31q-5 -8 1 -24.5t15 -20.5q32 -19 86 10.5t60 67.5q11 80 -23 131q-13 -4 -25 -10t-22.5 -14.5t-18 -15t-16 -18.5t-13.5 -19t-12.5 -22t-10.5 -20.5t-11 -22.5t-10 -22z" />
<glyph unicode="&#x26;" horiz-adv-x="880" d="M8 342q49 180 176 285q18 16 52 48.5t51 47.5l-86 111q-68 81 -23 159q64 117 166 170q22 11 29.5 27t3.5 45q-18 133 24 256q5 11 23 43q25 -4 35 -6.5t28.5 -9t31 -17.5t22.5 -28q-81 -100 -84 -254l102 28q40 10 88 -17t68 -71q11 -26 4.5 -40.5t-31.5 -10.5 q-20 3 -39.5 3.5t-35.5 -1.5t-33 -7.5t-29.5 -10.5t-28.5 -14t-26.5 -15t-27 -16.5t-26.5 -16.5q-101 -62 -145 -123q-9 -12 -27 -61q24 0 72 -1t65.5 -0.5t53.5 4t60 12t59 24.5t75 41q60 -42 136 -146q23 -32 -3 -55q-39 -29 -53 -37q-16 -9 -109.5 -56t-138.5 -77 q-139 -97 -217 -205q-8 -12 -18 -38t-22.5 -45t-34.5 -27q0 -19 4 -105q97 30 114 37q184 73 437 131q2 0 12 2t13 2.5t12 3t12 4.5t9.5 5.5t9 8t5.5 11t4 14.5q33 -5 60 -24.5t65 -57.5q-5 -1 -19.5 -3.5t-21.5 -2.5q-117 9 -188 -45q-5 -4 -41.5 -26.5t-52.5 -40.5 q-35 -45 -37 -74q-12 -147 -21 -301q0 -6 3 -15t8.5 -20t7.5 -16q-97 28 -111 110q-4 28 -6 59.5t-3.5 69.5t-2.5 58v51q-26 4 -47.5 -3t-45 -21.5t-34.5 -18.5q-6 -2 -68 -35q-60 -27 -125 29q-181 156 -139 315z" />
<glyph unicode="'" horiz-adv-x="176" d="M2.5 1065q-6.5 29 1.5 53q29 166 92 250q17 22 44 68.5t32 54.5q35 -15 49 -27q37 -28 44.5 -56.5t-13.5 -70.5q-29 -55 -80 -123q-11 -14 -38.5 -41.5t-39.5 -44.5q-7 -11 -55 -110q-30 18 -36.5 47z" />
<glyph unicode="(" horiz-adv-x="550" d="M55 551q10 228 15 274q3 47 12.5 57.5t56.5 24.5q-4 4 -12.5 9t-13.5 9.5t-7 8.5q-7 24 0 49q9 24 30 83.5t36.5 101t32.5 79.5q49 120 114 228q27 46 91 114q65 68 147 2q-122 -218 -139 -252q-36 -65 -58 -145q-8 -29 -21.5 -90.5t-21.5 -89.5l-26 -96q-22 -69 -27 -95 q-6 -37 -26 -41q6 -66 -21 -108q5 -45 8 -53q1 -5 10.5 -11.5t10.5 -7.5q38 -85 22 -160q-3 -17 4 -32q45 -80 -2 -162q29 0 35 -33q1 -14 0 -17.5t-10 -6.5t-12 -5q-11 -9 -7 -28.5t19 -32.5l57 -51q-6 -1 -13 -1.5t-10.5 -1t-8 -1t-7.5 -0.5q13 -68 52 -97q-5 -22 0 -37.5 t22.5 -34.5t20.5 -24q4 4 6 2l129 -112q-45 -111 -142 -74q-139 48 -192 162l8 8q-2 0 -5 -1t-5 -1q-72 109 -88 194h-2q0 42 -4 51q-37 68 4 136q-36 36 -43.5 92.5t16.5 107.5q-3 6 -10 16.5t-11 18.5t-6 15q-8 24 -8 59zM84 629l8 -11q0 3 4 11q-8 4 -10 4zM143 850 q12 -18 15 -21l-6 25q-5 0 -9 -4zM147 401l3 2l-3 3v-5zM168 641l4 -2v4zM180 1061q9 -5 10 -4q1 0 7 6q-8 4 -11 4zM181.5 22.5q4.5 -5.5 17.5 -2.5l-17 23q-5 -15 -0.5 -20.5zM186 719q8 -4 15 -4l-15 10v-6zM201 162l6 -12l8 4l-6 12q-1 0 -4 -2t-4 -2zM201 918l22 4 q-2 2 -8 14q-6 -6 -14 -18zM213 63h10v7h-10v-7zM219 524l4 -2l-2 6zM246 602l2 -2zM287 -20l4 -5q1 0 1.5 1.5l1 3t1.5 2.5q-1 0 -3 1.5t-3 0.5q-2 -2 -2 -4zM385 -119q0 -8 2 -12l19 8z" />
<glyph unicode=")" horiz-adv-x="698" d="M0 -246q14 37 18 43q10 21 29 33q83 59 129.5 156t81.5 239q58 235 55 496q0 6 1 13t2.5 15t2.5 13q1 3 3 10t2.5 9.5t-0.5 6.5q-15 22 -14.5 45.5t6 49.5t3.5 43l-2 -2l19 88q-7 2 -16.5 6.5t-12.5 5.5q23 181 -8 299q-13 47 -40.5 87.5t-73 89.5t-66.5 77q8 2 20 6.5 t19.5 6t13.5 -0.5t21.5 -7.5t23 -8.5t21 -8.5t22 -10.5t19.5 -12t20 -14q51 -44 160 -170q8 -10 14.5 -24t14.5 -37t10 -29q3 -4 8 -15.5t8 -15.5q42 -58 38.5 -96.5t-54.5 -63.5q-3 -2 -39 -24q8 -7 20 -18.5t20 -18t15 -10.5q31 -12 45 -56q15 -39 13.5 -50t-29.5 -36 q27 -5 57 -8q-32 -36 -43 -47q5 -5 21.5 -18t23.5 -21q5 -7 13 -23.5t12 -23.5l-33 -8v-15q14 -20 16 -41t-4.5 -54.5t-7.5 -45.5q-14 -154 -80 -344q-36 -88 -53 -121q-8 -14 -28.5 -36t-26.5 -29l-156 -168q-7 -8 -35 -39.5t-45.5 -50t-36.5 -35.5q-58 -49 -137 18z" />
<glyph unicode="*" horiz-adv-x="516" d="M0 782q79 33 88 35q51 12 51 62q0 3 1 11t1 13q-51 28 -55 31q-46 25 -53 37q-4 6 -4.5 15t1 24t1.5 24l116 -69q15 25 19 71.5t6 55.5q97 38 160 -17q73 -64 37 -157q75 30 110 47q46 23 84 -15q1 -1 2 -4.5t2 -5.5q-18 -8 -58 -23.5t-69 -29.5t-55 -31q8 -20 46 -52 t40 -63q-31 0 -74.5 32.5t-66.5 37.5q-62 -100 -62 -176q-42 -13 -73 27q-1 1 -11 16q-15 24 -21.5 32.5t-14 17.5t-19.5 9t-22 -1t-37 -5q-33 -5 -46.5 4.5t-23.5 46.5z" />
<glyph unicode="+" horiz-adv-x="694" d="M35 383q0 8 2 16q107 -35 239 -26q3 26 11 70.5t11.5 69t6 68t-5.5 68.5q63 -9 91 -34t36.5 -78t3.5 -164q72 0 148 4q31 0 50.5 -15.5t37.5 -50.5q-69 11 -93 9.5t-70.5 -8t-88.5 -5.5q-5 -15 -9 -25t-6.5 -13t-5 -6.5t-3.5 -6t-1.5 -13t0.5 -26.5q3 -102 -41 -180 q-94 36 -88 139l6 80v51l-125 -10q-57 -6 -78.5 11t-27.5 75z" />
<glyph unicode="," horiz-adv-x="329" d="M-12 -269q0 25 12 40q5 7 13.5 13.5t20 15t17.5 12.5q1 1 9.5 6t10.5 6.5t8.5 6t9.5 7.5t6.5 8t5.5 11t3 12q-50 46 -58 110.5t17 117t66 77.5q44 28 71 20.5t52 -53.5q49 -46 6 -215q-9 -28 -19 -51t-17.5 -39.5t-20.5 -33t-19 -24.5t-21.5 -21t-19.5 -16.5t-23 -16.5 t-22 -15q-23 -15 -67 -26q-12 -3 -29 10q-12 13 -12 38z" />
<glyph unicode="-" horiz-adv-x="647" d="M50.5 396.5q10.5 9.5 68.5 -3.5q53 -12 106.5 -14t127 2t108.5 4q37 -1 57.5 -19.5t36.5 -52.5q4 -8 6.5 -18t4 -25.5t3.5 -25.5q-53 -1 -137 4t-131 6.5t-129 -6.5q-52 -7 -78 3t-39 52l-4 25q-11 59 -0.5 68.5z" />
<glyph unicode="." horiz-adv-x="354" d="M53 27q-6 16 8 59q4 10 16 32t15 34q6 16 16 21t31 5q3 -1 31 -8.5t36.5 -11.5t28 -14t31 -23.5t19.5 -32.5q17 -46 -6 -72q-1 -1 -17 -28q-4 -4 -10.5 -13.5t-12.5 -15.5t-12 -10q-37 -23 -66 -27.5t-49 9.5t-33.5 37t-25.5 59z" />
<glyph unicode="/" horiz-adv-x="763" d="M-47 -211q9 30 14 39q11 21 37 71.5t46 86.5t42 67q31 45 133.5 224t177.5 262q21 24 43 51t38 47.5t38.5 55t33.5 50.5t35.5 56.5t31 52t34 58t31.5 53.5q16 27 27 41q35 47 68 54.5t89 -20.5l-288 -438q-13 -20 -80.5 -116t-97.5 -150t-66.5 -110t-87 -127.5 t-72.5 -104.5q-5 -7 -9.5 -22t-6.5 -19l-43 -94q-9 -21 -28 -59.5t-27 -55.5q-13 -7 -25.5 -7.5t-24.5 6t-20 12.5t-22 18z" />
<glyph unicode="0" horiz-adv-x="569" d="M0 279q9 79 16 102q10 31 32.5 136.5t51.5 158.5q67 108 82 129q13 18 29 18q15 0 49.5 2.5t53.5 3t47 -3t51 -12.5q39 -14 55 -45q4 -7 1.5 -29t0.5 -32t18.5 -27.5t16.5 -26.5q5 -67 -2 -157q-2 -36 -13 -104.5t-12 -78.5q0 -20 2 -30q22 -64 0 -164q-16 -86 -26 -131 q-10 -47 -44 -75t-81 -30q-179 -3 -269 164q-59 115 -59 232zM213 356q-60 -145 23 -321q6 -12 10 -19t11.5 -16t18 -14t23.5 -6q3 6 10.5 19t9.5 19q8 37 31 136t38.5 169.5t27.5 137.5q11 51 -19 117q-6 13 -18 23.5t-32 24t-30 21.5q-52 -63 -71 -160q-2 -10 -8.5 -40.5 t-12 -51.5t-12.5 -39z" />
<glyph unicode="1" horiz-adv-x="325" d="M-55 578.5q5 12.5 20 15.5q35 5 63.5 25t59.5 52t49 46q7 6 17 49q6 38 21.5 50.5t55.5 10.5q29 0 40 -11.5t12 -47.5q3 -75 -4 -164q-9 -123 -21 -246q-3 -27 -16.5 -130t-16.5 -160q-1 -15 1.5 -33.5t5 -31t8.5 -35t8 -31.5q8 -31 -1.5 -42.5t-39.5 -7.5q-1 0 -3 1 t-3 1q-31 6 -52 12.5t-37.5 14t-25.5 16t-15 20.5t-7.5 26.5t-2.5 33t0 41.5v27q0 44 6.5 95t16.5 112.5t14 95.5l27 223l-12 6q-8 -9 -33.5 -27t-38.5 -37t-14 -50q-9 7 -37 26.5t-41 32.5q-9 9 -4 21.5z" />
<glyph unicode="2" horiz-adv-x="491" d="M4 -8q9 33 23 94.5t18 77.5q11 46 12 47q90 218 115 270q18 38 40.5 77.5t54 92.5t44.5 76q2 4 7 12t7 12.5t2 11.5t-5 13q-16 21 -58 4q-81 -35 -119 -110q-22 -40 -41 -41.5t-59 33.5q83 108 209 155q74 25 125 -10q78 -52 104 -74q49 -37 9 -96q-14 -23 -74 -135 q-95 -186 -121 -240q-15 -32 -59 -166q-12 -27 -21 -57l-27 -94q31 -7 67 -5.5t66 7t66 0.5t66 -25q-8 -4 -18 -10t-15.5 -9t-12 -5.5t-12.5 -3.5q-211 -27 -237 -29q-66 -5 -133 51q-37 30 -23 76z" />
<glyph unicode="3" horiz-adv-x="458" d="M-16 -39q4 4 6 4q35 14 64.5 40t61.5 63.5t50 54.5q75 66 98 166q-5 2 -40.5 11.5t-53.5 16.5q-44 13 -94 41q-16 11 -43.5 36t-32.5 30q5 6 15.5 22.5t17.5 22.5l190 190q32 30 42 49t20 72q-12 -2 -35 -4.5t-41 -5.5t-33 -8q-17 -6 -32.5 -7.5t-31.5 3t-28 10.5t-29 16 q5 9 11 14.5t14 8.5t13 4t15.5 1.5t12.5 0.5q68 11 153 14q57 3 98.5 -9.5t71.5 -53.5q22 -29 21.5 -45t-23.5 -45q-13 -16 -32.5 -48.5t-26.5 -43.5q-49 -70 -102 -138l-54 -67q53 -22 70 -27q68 -19 129 -80q21 -21 20 -34t-22 -37q-35 -37 -64 -88q-71 -131 -153 -197 q-21 -17 -25 -27q-23 -53 -92 -34q-51 12 -98 36q-56 24 -8 72zM289 614q0 -2 4 -2q0 2 2 4q-4 0 -4 2z" />
<glyph unicode="4" horiz-adv-x="661" d="M2 229q-4 39 1.5 83t13 72.5t22.5 78.5q9 31 41 146t49 179q7 28 37 37q45 12 106 -24q21 -15 25 -53q0 -93 -8 -164q-21 -147 -43 -240q-6 -31 -47 -115q-7 -16 -23.5 -45t-23.5 -43q31 -15 63.5 -15.5t55.5 6t55 20.5q15 8 20 47l62 444q1 7 24 125q6 53 57 47 q36 -3 78 -16q39 -12 39 -58l-6 -159q-2 -69 -10 -187q-4 -44 -8 -65l-9 -56q-5 -108 -2 -139q10 -122 -14 -356q-11 -9 -21.5 -15.5t-22.5 -8.5t-20.5 -4t-22.5 2t-20 5t-21.5 9t-19 9.5t-21 11.5t-19.5 11q-10 6 -19.5 24t-11.5 32q-3 38 2 163q0 42 -8.5 49.5t-50.5 4.5 q-91 -8 -134 -2q-132 17 -145 159z" />
<glyph unicode="5" horiz-adv-x="565" d="M25 270q19 235 28 367l13 133q3 37 20 50t53 3q52 -15 118.5 -17.5t117.5 1.5q16 0 35 1t42.5 2.5t36.5 2.5q46 3 66 -33q-25 -29 -82 -32q-51 -2 -145.5 -9.5t-126.5 -9.5q-1 -78 -21 -236.5t-22 -244.5q15 7 45.5 21.5t44.5 19.5q89 26 139 35q73 12 112 -42.5 t29 -113.5q-4 -23 -12 -39q-17 -45 -59 -139q-18 -47 -41.5 -76.5t-65.5 -40.5q-11 -3 -27.5 -20.5t-25.5 -22.5q-111 -54 -158 -68q-9 -2 -17.5 -2.5t-16 0.5t-17 5t-15 7t-15.5 10t-14.5 10t-14.5 11q-1 12 3.5 20.5t8.5 11.5t15.5 8.5t13.5 6.5q114 56 141 72 q71 44 84 115l31 166v45q-97 -37 -158 -84q-42 -30 -72 -12q-1 0 -13 6.5t-14.5 8t-12 7.5t-12.5 10t-8.5 11t-7 15t-1.5 17q-2 14 -2 43z" />
<glyph unicode="6" horiz-adv-x="565" d="M0 140q-3 58 2.5 108t17.5 104q29 132 107 324q5 12 18.5 48.5t24 62t26.5 56.5t36 51t42 28q28 9 71 -3t61 -36q8 -10 9 -21t-3.5 -23.5t-10 -22t-14 -22.5t-12.5 -20q-46 -83 -70.5 -156.5t-34.5 -166.5q82 0 136.5 -15.5t93.5 -66.5q66 -88 30 -260q-9 -39 -13 -56.5 t-17.5 -58.5t-26.5 -63t-34.5 -43.5t-47.5 -26.5q-147 -34 -241 14q-51 25 -84.5 68t-48 91t-17.5 106zM193 117q2 -11 5.5 -30.5t6.5 -34.5t7.5 -35t10 -34.5t13 -30t18.5 -25t24.5 -15.5t31.5 -5.5t40 7.5q105 35 105 281q-1 35 -8.5 70t-23.5 69.5t-46 52.5t-70 10 q-28 -7 -48.5 -29.5t-31.5 -58.5t-16.5 -66t-10 -71t-7.5 -55z" />
<glyph unicode="7" horiz-adv-x="477" d="M6 801q20 12 25 12q18 0 57 2t62 2.5t56.5 -1t61.5 -7.5q54 -11 109 8q90 28 162 -14q21 -12 22.5 -27.5t-18.5 -23.5q-17 -5 -30.5 -13.5t-25.5 -25t-16.5 -23.5t-16 -31.5t-12.5 -27.5q-20 -42 -39.5 -88t-45 -111.5t-35.5 -89.5q-48 -117 -78 -199q-57 -162 -33 -338 q1 -3 -2 -16q-68 -19 -141 10q-43 17 -59 49t-1 70q35 99 39 156q1 15 17.5 39t19.5 32l41 131q9 32 19.5 63.5t25 68t23.5 60t28 66.5t26.5 59t30 65.5l27.5 60.5l6 39q-173 5 -200 4q-60 -3 -105 39z" />
<glyph unicode="8" horiz-adv-x="626" d="M0 129q-5 68 72 154q61 69 98 100q4 3 10.5 7t9 6t6.5 5.5t4.5 6.5t0.5 8t-2 12q-3 12 -30 40.5t-32 39.5q-37 69 -38 142.5t32 133.5q18 34 38 43t67 11q78 3 182 -11q10 -2 41 -5t55 -7.5t41 -11.5q21 -10 32.5 -21.5t14 -25.5t1 -26.5t-6.5 -31.5q-18 -54 -65 -149 t-56 -115q-1 -2 -9.5 -16.5t-12.5 -25t-4 -19.5q-1 -8 1 -15.5t7.5 -17t9 -14.5t11.5 -16t11 -15q4 -5 15.5 -21.5t15.5 -23t12.5 -20.5t12 -23t7 -22t3.5 -25q0 -8 0.5 -30t0.5 -34.5t-1.5 -30.5t-6 -32.5t-11.5 -26.5q-27 -42 -115 -96q-23 -14 -34.5 -20.5t-39 -20.5 t-46 -17t-41.5 -4t-41 11.5t-30 36.5q-46 3 -80 19t-52.5 35.5t-31.5 53t-17.5 59t-8.5 66.5zM228 91.5q0 -14.5 1.5 -32.5t1.5 -28q1 -21 0 -39t3 -40t14 -40q10 7 44.5 30t53.5 37.5t39 39.5t23 49q7 46 -11 103.5t-61 80.5q-10 -12 -38 -38.5t-44.5 -48t-22.5 -46.5 q-3 -13 -3 -27.5zM256.5 617.5q8.5 -59.5 38.5 -115.5q70 39 104 105t50 157q-12 1 -41 5.5t-46 5.5t-39.5 -0.5t-36 -12t-20.5 -29.5q-18 -56 -9.5 -115.5z" />
<glyph unicode="9" horiz-adv-x="557" d="M0 432q-1 86 23.5 169t70.5 183q10 19 37 27q17 4 48.5 7.5t35.5 4.5q125 20 214 -43.5t108 -187.5q1 -8 5 -31t5 -31.5t3 -30.5t-1 -30q-22 -150 -49 -244q-32 -104 -99 -260q-30 -73 -86 -176q-15 -27 -46 -36.5t-60 1.5q-33 13 -55 27q-25 17 -27 30t14 42 q10 20 34 61t37.5 65.5t27.5 62t20 71.5q3 18 7.5 55.5t6.5 54.5h-67q-86 3 -146 63t-61 146zM90 504q0 -88 16 -137q12 -46 66 -76q44 -28 88.5 -5t50.5 76q2 14 11 41q3 18 9 48.5t11 56.5t10 49q-5 19 -16 72t-19 82q-16 49 -67 55q-43 6 -79.5 -16.5t-51.5 -63.5 q-2 -6 -13 -49q-1 -10 -6 -40t-7.5 -51.5t-2.5 -41.5z" />
<glyph unicode=":" horiz-adv-x="479" d="M119 229q-19 -58 31 -96q58 -45 124 -8l56 31q10 44 20 102q-11 2 -49.5 12t-56 13.5t-49 4t-58.5 -6.5q-16 -42 -18 -52zM182 633q31 52 50.5 75.5t47.5 33.5t60 -3.5t84 -48.5q-18 -42 2 -72q6 -7 6 -23.5t-6 -25.5q-48 -65 -78 -84q-69 -52 -135 4q-75 68 -31 144z " />
<glyph unicode=";" horiz-adv-x="505" d="M96 160.5q-3 10.5 2 33t8 32t13 38.5q3 7 16 15t21 6q111 -27 145 -47q62 -35 70.5 -83.5t-29.5 -107.5q-10 -18 -57 -65q-2 -3 -9.5 -11.5t-10.5 -12.5t-7.5 -12t-6.5 -15.5t-3 -16.5q-1 -19 -20 -35t-35 -14q-19 2 -40.5 28t-15.5 44q4 17 10.5 36t17.5 45t17 43 l-20 11q-22 15 -36.5 29.5t-20.5 31.5t-9 27.5zM160 543q13 103 108 194q6 6 11 6q13 -5 42 -14t50 -17t39 -18q8 -4 14 -15t11.5 -25.5t8.5 -20.5q-8 -33 -10 -35q-5 -7 -42 -56.5t-58 -74.5q-49 -56 -103 -31q-33 15 -53.5 45t-17.5 62zM197 150l2 -5l2 5h-4z" />
<glyph unicode="&#x3c;" horiz-adv-x="587" d="M0 315q51 91 150 138q46 24 127 74t104 63q51 31 88.5 18.5t69.5 -71.5q-127 -105 -177 -140q-26 -18 -56.5 -36t-70 -40t-59.5 -34q2 -4 2 -15l256 -92l21 -59q-9 1 -26 2.5t-27 3t-17 6.5q-19 12 -42.5 18.5t-53 11.5t-43.5 9q-65 16 -148 43q-77 25 -98 100z" />
<glyph unicode="=" horiz-adv-x="657" d="M47 272q50 11 51 11q215 -3 434 -9q68 0 84 -61l-9 -4.5t-11 -3.5q-161 11 -434 -8q-24 -3 -49 0q-37 2 -48.5 14t-17.5 61zM82 403.5q-12 22.5 8 88.5l371 -35q92 -9 127 -99q-10 0 -26 -1t-28.5 -1t-23.5 2q-84 19 -215 4q-50 -4 -139 7q-62 12 -74 34.5z" />
<glyph unicode="&#x3e;" horiz-adv-x="587" d="M59 109q-2 29 15 49q61 74 133 104q24 10 65 31.5t56 28.5q28 14 34 16q-4 6 -8 18q-5 3 -14.5 9.5t-16 10.5t-15.5 8t-17 5q-81 18 -168 88q-41 30 -53 117q-3 24 14.5 33t42.5 -2l172 -68q28 -9 36.5 -16t31.5 -39h-105l41 -33q16 -11 45 -29t53 -33.5t45 -31.5 q67 -54 84 -131q-9 -3 -57 -18.5t-72 -26.5q-128 -61 -241 -129q-25 -14 -34.5 -18t-21.5 -3t-24 12q-19 19 -21 48zM367 403l4 -2l-2 7z" />
<glyph unicode="?" horiz-adv-x="577" d="M-59 1034q6 237 165 389q64 61 139 74.5t140.5 -13.5t120.5 -83q34 -30 16 -62l27 -22q-4 -3 -7.5 -7t-11 -11.5l-14.5 -14.5q37 -12 43 -18q21 -21 21 -41q0 -99 -5 -170q-2 -18 -18 -58q-9 -27 -8 -41t14 -34l-55 -150q-4 -19 -12 -27q-42 -54 -131 -215 q-7 -12 -25 -30q-57 -63 -51 -150q6 -114 -68 -182q-61 12 -90.5 47t-40.5 102q-5 30 -5 64.5t1.5 56t6.5 63.5t7 58q1 17 6.5 36.5t10 31.5t15 36.5t13.5 32.5q8 22 45 88q-2 0 -2 2h2v-2q15 -33 29.5 -35t34.5 25q26 36 45 82q5 10 29 50t34 68.5t11 61.5q0 5 16 37 q9 19 9 27t-11 37l-55 -84q-3 19 0.5 35t14.5 39.5t13 29.5q38 114 2 219q-28 76 -92 39q-47 -24 -73 -39t-61 -42t-60 -58q-12 -16 -27 -47q-29 -62 -33 -172q0 -87 54 -109q3 -1 5 -3t4 -5t3 -4q1 0 4 -8q-1 -1 -3.5 -5.5t-5 -7t-5.5 -2.5q-47 -12 -89.5 27t-41.5 94z M66 45q29 5 76.5 14.5t64.5 12.5l69 -74q14 -14 24 -55t3 -58q-9 -24 -20 -36t-29 -9q-95 13 -131 25q-35 13 -53 73t-4 107zM190 788q2 4 8.5 23t9 25.5t9 22t11.5 23.5t12 20t15.5 20.5t18.5 15.5q22 -22 2 -47zM289 985l12 31l8 -6l-12 -33zM420 1153l8 -16l8 16 q0 2 -3.5 6.5t-4.5 5.5q-8 -8 -8 -12zM498 1352l22 -11l-16 19zM502 1098l10 -6q2 6 4 8q-6 6 -8 4q-3 0 -6 -6zM502 1249q12 -26 17.5 -28t25.5 12q-17 5 -43 16zM526 1151h4l2 4q0 2 -4 2q0 -1 -1 -3t-1 -3zM539 1053q4 -4 8 -6l6 14l-6 6q-5 -5 -8 -14z" />
<glyph unicode="@" horiz-adv-x="1042" d="M0 256q0 80 43.5 168t117 162t183 119.5t229.5 39.5q249 -12 354.5 -97.5t88.5 -258.5q-6 -64 -22.5 -120t-42 -99.5t-47.5 -74.5t-52.5 -68t-44.5 -56q-41 -51 -104.5 -42.5t-92.5 67.5q-16 36 -39 106q-46 -76 -61 -110q-28 -57 -60 -70t-90 -8q-93 10 -133 76 q-8 12 -12 92t6 149q9 37 19 69t23 63.5t20 47t24 50t21 41.5q19 42 43 80q17 33 61 30q24 -3 67.5 -2.5t67.5 -1.5q29 -4 88 -24q4 -2 7 -6t9 -14t11 -17q-13 -1 -30.5 -4.5t-30 -5t-23.5 -0.5q-47 5 -76 -39q-50 -76 -84 -191q-36 -124 -41 -203v-61q6 7 19 18.5t16 18.5 q102 177 107 186q49 74 102 144q22 31 59 26l31 -4q65 -5 77.5 -23t-7.5 -81q-35 -102 -41 -230q0 -4 1 -14t1 -16q63 59 108.5 165.5t55.5 200.5q5 46 -14 93.5t-58.5 88.5t-109 65.5t-156.5 20.5q-93 -3 -156.5 -22.5t-114.5 -66t-88 -115.5t-77 -181q-48 -145 -23 -254 t86 -172.5t123 -60.5q41 2 82 13t62.5 21t50.5 26t30 16q11 6 13 -10q4 -32 -34 -65q-64 -55 -204 -56q-74 0 -133.5 30t-97 78t-62.5 112.5t-35 129t-10 131.5z" />
<glyph unicode="A" horiz-adv-x="864" d="M0 281q0 157 8 282q7 119 29 311q15 147 33 232q5 23 14.5 49t22 57t18.5 48q15 40 47 56q25 12 53 12q9 0 19 -1q46 -6 254 -51q19 -6 39 -29q5 -5 7 -15t-1 -15q-3 -6 -14 -10.5t-17 -2.5q-18 4 -51.5 16.5t-46.5 16.5q-28 9 -51 9q-31 0 -51 -15q-38 -26 -42 -94 q-2 -26 -4.5 -122t-9.5 -147q-4 -32 -7.5 -100t-10.5 -120t-23 -99q-4 -12 -5 -26.5t-0.5 -24t2 -29t1.5 -25.5q4 -130 20 -217q13 25 13 27q7 23 37.5 126t48.5 157q45 131 139 393q6 16 15.5 49t15.5 49q12 36 35 45q31 14 61 14q32 0 64 -16q18 -11 22 -39q7 -56 7 -134 q0 -66 -5 -148q-6 -120 -8 -230q0 -9 -1 -19q0 -101 15 -211q16 -120 51 -227q2 -5 6.5 -24.5t8 -27.5t12.5 -20.5t23 -19.5q6 -3 6.5 -21t-2.5 -28q-10 -31 -41 -31q-34 0 -77.5 28.5t-55.5 60.5q-3 7 -18.5 48.5t-19.5 53.5t-16 47.5t-16.5 54t-11.5 48.5t-10.5 56 t-4.5 52l-16 410q-1 17 -6 49t-6 39h-11q-44 -141 -51 -172q-29 -127 -57 -304q-6 -36 -15.5 -108.5t-15.5 -108.5q-10 -86 -26 -151q-10 -40 -32 -55q-17 -12 -47 -12q-8 0 -16 1q-69 4 -108 17q-54 21 -86 106q-33 84 -33 230z" />
<glyph unicode="B" horiz-adv-x="794" d="M0 1300q28 8 55 8q23 0 45 -6q46 -14 74 -55q55 -85 55 -172q-2 -72 -2 -213q12 -4 19 -4q25 50 26 53q39 125 120 225.5t200 192.5q25 20 67 27q15 3 28 3q68 0 89 -79q9 -35 9 -73q0 -43 -11 -91q-39 -155 -82 -231q-11 -19 -21 -42t-22 -53.5t-18 -44.5l-107 -221 q-4 -8 -9.5 -26.5t-6.5 -22.5l43 -14q9 -3 27 -7.5t26 -7.5q64 -23 104 -87q32 -52 32 -106q0 -12 -1 -24q0 -10 -6 -16l-153 -182q-29 -29 -39 -47q-6 -9 -21.5 -34t-25.5 -38q-31 -44 -74 -50l-14 -2q-36 0 -70 29q-20 14 -20 35q0 13 8 29q49 100 178 248l37 49 q20 30 20 59q1 15 -5 30q-16 43 -71 56q-83 25 -98 31q-10 4 -20 10t-25 17t-23 16q42 50 77.5 112.5t53.5 105.5t46 118q70 178 118 315q16 47 18 78v8q0 28 -9 60q-46 -13 -97 -72q-111 -136 -149 -223q-32 -76 -47 -133q-8 -27 -32 -102t-36.5 -128.5t-15.5 -107.5 l-21 -299q-4 -70 -5 -207q-2 -37 -18.5 -49t-52.5 0l-41 14q-41 13 -49.5 26t-5.5 56q21 182 23 262q2 75 2 449v20q0 219 -64 471q-4 11 -7.5 32.5t-4.5 24.5z" />
<glyph unicode="C" d="M2 332q-2 112 -2 197t2 141q0 26 2.5 53t7 64t6.5 53q0 3 3.5 19t3.5 24q3 135 75 250q11 17 20.5 38t20 49.5t15.5 41.5q25 50 61 74q32 22 80 22h12q12 0 45 -0.5t48 -1t44 -2.5t48 -5t43.5 -8.5t46.5 -13.5q15 -6 45 -9t39 -5q46 -9 67 -41q13 -20 13 -44 q0 -15 -5 -32q-3 -9 -19.5 -65.5t-23 -75t-21 -60.5t-29.5 -72.5t-32 -60.5q-4 -6 -8 -22q-23 -57 -52 -64q-4 -1 -9 -1q-28 0 -74 34q11 24 46 95t50.5 107t32 96.5t17.5 115.5q-56 42 -168 65q-28 6 -53.5 -10.5t-37.5 -48.5q-13 -39 -83 -277q-8 -27 -27 -125l-2.5 -7.5 t-2.5 -8.5t-1 -8l12 -342v-49q0 -3 2 -52t4 -75q3 -59 12 -117q4 -48 15 -70q10 -20 78 -127q46 87 55 107q11 28 48.5 122.5t59.5 145.5q17 40 74 135q1 3 21 15q4 -19 2 -21q-24 -40 -35 -89.5t-17.5 -108.5t-15.5 -93l-18 -78q-2 -10 -11 -41t-10 -49q-6 -80 -64 -126 q-38 -30 -82 -30q-25 0 -52 9q-10 3 -36 11t-39.5 12.5t-33.5 13.5t-35 18q-52 29 -90 88q-23 37 -34 56t-24 53t-16 65q-12 93 -14 146zM70 475l4 -8l6 6l-6 6q-4 -2 -4 -4z" />
<glyph unicode="D" horiz-adv-x="868" d="M6 1317.5q12 19.5 51 15.5q83 -7 121 -53q36 -42 49 -76q50 -151 50 -309q0 -50 -5 -102q-4 -24 -4 -53v-18q2 -40 17 -71l57 117q5 11 44.5 100t64.5 133q64 108 141 185q52 52 124 52q41 0 89 -17q33 -10 54 -41t24 -70q3 -37 3 -77q0 -107 -22 -228q-1 -6 -5.5 -40 t-10.5 -50q-21 -61 -37.5 -176t-26.5 -158q-30 -122 -106 -264q-10 -21 -16.5 -32t-24 -20.5t-41.5 -3.5q12 -17 7.5 -33.5t-11.5 -24.5t-21 -19q-33 -28 -36 -31q-43 -53 -105 -53h-2q-61 0 -106 51q4 13 11.5 25.5t14.5 21t19.5 19t19 15.5t22.5 16t21 15q52 38 70 84 q51 110 104 242q6 17 10.5 35.5t8.5 43t6 36.5q8 37 26.5 120.5t28.5 131.5t21.5 118t17.5 130q5 50 5 93q0 18 -1 36q0 9 -6 21t-12 13q-36 4 -50 -10q-192 -186 -243 -391q-25 -102 -99 -354q-11 -32 -19.5 -64t-17 -73.5t-12.5 -62t-13 -74.5l-11 -66q-4 -17 -8.5 -51.5 t-8.5 -51.5q-12 -47 -28 -61q-24 -23 -52 -23h-6q-65 9 -87 39q-15 20 -15 54q0 18 4 40q8 45 12.5 100.5t5.5 89.5t1.5 105t0.5 93q1 55 6.5 165.5t6.5 165.5q0 17 2 73q2 58 2 84v19q0 22 -1 51q-1 44 -5 80q-2 18 -6.5 38t-8 34t-12 39t-11.5 33t-14.5 38t-13.5 34 q-14 38 -2 57.5z" />
<glyph unicode="E" d="M1 107q0 36 1 65.5t4 54.5q11 96 62 205q27 60 88 68q10 1 31 5.5t30 6.5q-6 21 -10 29q-76 152 -76 325v13q3 279 133 479q20 33 62 33h13q123 -3 184 -23l26 -10q4 -1 106 -29q75 -24 103 -82q20 -44 19 -72q0 -8 -1 -14q-21 -68 -33 -103.5t-37 -90t-53 -95.5 q-31 -46 -101 -46q-11 0 -22 1q-33 3 -45 27t2 55q70 148 103 224q13 31 16 55q1 9 1 21q0 20 -3 48q-99 32 -119 37q-33 6 -48.5 -1.5t-30.5 -37.5q-88 -173 -91 -333v-10q0 -52 9 -104q10 -58 32 -138t29 -109q2 -12 15.5 -33.5t15.5 -25.5q12 -22 12 -39q0 -12 -6 -22 q-15 -24 -55 -29q-8 -1 -22.5 -1.5t-22.5 -1.5t-19 -6.5t-20 -15.5q-29 -31 -37 -106q-5 -38 -6 -85v-42v-31q1 -26 5 -88.5t5 -77.5q0 -4 2.5 -15t3.5 -20q53 37 57 41q31 34 93.5 102.5t93.5 102.5q31 40 57 63q38 32 80 32q19 0 39 -7q-3 -5 -7 -16.5t-7 -16.5 q-15 -21 -41.5 -58t-49 -67.5t-43.5 -56.5q-86 -106 -143 -160q-58 -52 -122 -52q-21 0 -42 5q-9 2 -27.5 4t-27.5 4q-74 12 -120 63q-46 50 -46 142zM303 563h4l2 4l-4 4q0 -1 -1 -4t-1 -4z" />
<glyph unicode="F" horiz-adv-x="563" d="M-47 1325q0 13 13 20.5t28 4.5l153 -37q69 -17 162 -17q30 0 62 2q91 7 313 7q58 0 100 -60q-19 -12 -43 -13.5t-45 1.5q-41 5 -85 5q-42 0 -87 -4q-93 -8 -172 -44v-94q0 -42 -1 -126t-1 -126l-8 -72v-88q89 12 119 14q2 0 17 1t19.5 1t17 -1t19.5 -4.5t17 -10t18 -16.5 q-37 -20 -49 -25q-135 -46 -143 -49q-24 -10 -35 -39q-5 -13 -14 -72q-4 -37 -16.5 -137.5t-16.5 -155.5q-3 -29 -4 -83.5t-2 -77.5q-1 -27 -7 -76t-6 -53q-40 -19 -68 -26.5t-63 -2t-67 30.5q2 16 7.5 116.5t23.5 153.5v2q-7 21 -8 46t1 42.5t7.5 48t7.5 43.5 q18 110 18 202q0 31 -2 60q-1 24 -1 56q0 53 3 127q4 99 4 151v19q-2 80 -2 241q-91 19 -110 23q-29 7 -51.5 35.5t-22.5 56.5zM111 174q1 0 3.5 1t4.5 1l-6 6q0 -2 -1 -4.5t-1 -3.5z" />
<glyph unicode="G" horiz-adv-x="724" d="M4 692q2 20 5.5 41.5t9 49.5t8.5 42l41 228q1 7 5 20.5t5 20.5q13 63 53.5 131.5t91.5 103.5q26 18 56.5 29t56 15t53.5 5t45.5 -1t36.5 -4.5t21 -2.5q25 -1 42 -7t29.5 -24t19 -31t19.5 -49.5t21 -56.5q-22 -22 -29 -24q-1 0 -2 -1t-2 -1h102q35 0 35 -41 q-1 -15 -1.5 -62.5t-2.5 -73.5q-14 -153 -33 -317q-5 -46 -12.5 -118.5t-15 -139t-19.5 -148.5q-12 -83 -36.5 -156.5t-68.5 -141.5t-102 -113t-142 -65q-46 -10 -97 -10q-42 0 -88 7q-38 6 -65 25q-30 20 -30 45q0 24 39 47q24 -2 46 -2t39 0.5t35 6t28.5 8t26 12 t21.5 12.5t21 16.5t18 16t18.5 18.5t17.5 18q47 46 80.5 112t45.5 108.5t25 112t14 73.5q1 31 7.5 94.5t7.5 93.5v72q-8 -18 -20.5 -44t-18.5 -40t-10 -27q-27 -116 -78 -178q-36 -64 -67.5 -99t-78.5 -52q-16 -6 -35 -6q-21 0 -45 8q-44 16 -69 49q-61 80 -74 173 q-8 55 -8 122q0 47 4 100zM236 547l20 -178q6 10 14.5 19t10.5 13q175 400 211 480q27 53 47 170q3 18 7.5 38.5t11 45.5t9.5 41q-4 0 -4 4q-21 58 -52.5 89t-62 32.5t-59 -9.5t-47.5 -31t-23 -38q-48 -220 -57 -283q-6 -37 -8 -106.5t-4 -94.5q-1 -20 -7 -55t-7 -47 q-2 -23 -2 -45t2 -45z" />
<glyph unicode="H" horiz-adv-x="739" d="M0.5 -8q1.5 14 5.5 43q10 65 17.5 145t10.5 126.5t8.5 152t6.5 133.5q3 33 3 96q0 52 -2 125q-4 114 -4 178q0 26 1 43q2 47 2 283q0 28 9 37t38 14q13 2 25 2q34 0 60 -18q34 -26 46 -78q13 -50 15 -106v-31q0 -43 -3 -93q-3 -55 -3 -89v-15l6 -270q3 -40 36 -40 q4 0 9 1l157 22q9 52 9 60l16 362q2 46 10 128.5t10 109.5q3 50 50 53q42 0 94 -10q47 -10 47 -58q4 -60 8 -184q0 -176 -2 -262q0 -46 -6 -92l-21 -207v-37q-20 -280 -26 -416q-2 -24 -2 -52t1 -62t1 -52v-51q-33 -26 -71 -31q-16 -2 -30 -2q-19 0 -34 4q-27 6 -68 23 q-26 11 -40 43q-9 21 -10 40q0 11 3 22q25 86 37 284q0 10 5 30.5t5 29.5v9q0 29 5 73q6 52 6 95.5t-13 82.5l-184 -21q-2 -16 -2 -47q0 -3 1.5 -14t0.5 -17q-6 -58 -35 -278q-20 -129 -21 -201q0 -17 2 -31q1 -43 -17.5 -58.5t-59.5 -6.5q-3 0 -9.5 2t-9.5 2q-30 5 -42 7.5 t-26.5 9.5t-18 11.5t-6 19t-1 28.5zM455 485h4q0 4 -2 4h-2v-4z" />
<glyph unicode="I" horiz-adv-x="468" d="M4 -119q-14 17 26 27q6 1 21 4q13 3 19 4q103 21 176 25h19q57 0 108 -15q-9 -35 -56 -39q-65 0 -98 2q-12 1 -23 1q-71 0 -124 -33q-13 -8 -24 -9t-20 6t-13 12t-11 15zM49 1331q19 2 75 8.5t85 8.5l287 22q5 0 10 1q44 0 106 -30q4 -2 7.5 -6.5t6.5 -11.5t5 -10 q-31 -19 -33 -19q-15 -1 -55.5 -0.5t-53.5 -1.5q-33 -4 -42.5 -15t-14.5 -46l-70 -488q-12 -97 -12 -140v-11v-18q0 -50 -8 -132q-10 -97 -12 -135v-22v-44q2 -43 2 -57q-1 0 -2 -1t-2 -1q1 0 3 1t3 1v-108q0 -30 -8 -84l-176 -19q-34 41 -34 86q0 27 13 56q5 14 8 29t5 38 t3 29q15 193 33 373q48 432 66 610v66q-8 0 -35 -2.5t-38.5 -2.5t-33.5 2.5t-34.5 10.5t-27.5 23.5t-26 39.5z" />
<glyph unicode="J" horiz-adv-x="563" d="M8 -18q11 15 35 16h7q85 0 122 68l47 92l33 47q0 1 -2.5 14t0.5 14q16 45 30 133.5t19 110.5q11 45 11 131v14v21q0 81 7 125q13 65 17 126q2 42 2 100v52q-2 92 -2 128q0 4 -8 36q-70 -15 -82 -18q-9 -5 -18 -2t-13.5 5t-11.5 11.5t-11 16.5t-11.5 21t-14.5 24 q23 5 67 18.5t79 20.5q31 6 59 6h8h13q43 0 106 11q72 12 117 18q13 1 28 1q38 0 92 -10q1 -2 5 -25.5t5 -25.5l-254 -39q10 -29 15 -48.5t5.5 -29.5t2 -31.5t4.5 -43.5q0 -24 1 -71t1 -69q0 -90 -2 -135l-20 -420l-4 -162q-3 -76 -46 -172q-11 -26 -16 -43 q-24 -101 -141 -120q-10 -2 -35.5 -7.5t-39.5 -8t-36 -5.5t-41.5 -2t-38.5 4h-9q-53 0 -79 42q-11 19 -11 35q0 14 9 26z" />
<glyph unicode="K" horiz-adv-x="761" d="M0 30.5q0 71.5 23 100.5q4 6 4 29q-1 5 -6.5 21t-7 24t-0.5 20.5t7 22.5q-9 38 -9 63q0 9 1 17q4 30 14 76q9 43 9 72v5q0 37 8 109.5t8 109.5q1 24 5 77.5t4 78t-5 78.5q-2 11 -2 35q1 15 1 35q2 38 1 58v13q0 69 -4 209q-2 39 8 51t47 13h7q60 0 95 -32q37 -34 40 -99 q5 -87 4 -170q0 -147 -14 -281q-2 -26 -2 -166q24 15 32 23q123 114 203 286q59 122 113 271q17 41 48 41q10 0 21 -4q78 -32 78 -78q0 -8 -2 -15q-36 -141 -104 -209q-7 -7 -13.5 -17.5t-13 -24t-10.5 -19.5q-115 -171 -223 -274q-10 -9 -35.5 -30.5t-42.5 -35.5l69 -43 l174 -104q26 -17 116.5 -75.5t141.5 -90.5q18 -12 25.5 -42.5t7 -52.5t-3.5 -65q-7 -7 -10 -4q-8 4 -36.5 19t-38.5 20.5t-35.5 19t-38 21t-35 20t-37.5 22t-34 21.5t-36.5 23.5t-34.5 23.5l-119 84q-7 5 -32 24.5t-39 29.5t-33 23.5t-30.5 17.5t-16.5 0q0 -30 2 -44 q2 -104 10 -307q0 -15 4.5 -42t5.5 -38q1 -3 4 -13.5t2.5 -14.5t-1.5 -13q-8 -42 -23 -53.5t-59 -5.5q-17 2 -33.5 7t-44 16.5t-33.5 13.5q-5 1 -20 16q-25 31 -25 102.5z" />
<glyph unicode="L" horiz-adv-x="598" d="M-68 -96l50 18q-20 22 -28 58q-8 34 -8 68q0 37 9 94q8 53 16 87.5t20.5 87.5t16.5 70q12 48 20.5 98.5t17.5 121.5t13 100q3 20 14 90.5t16 116t5 90.5v34v49t0.5 52t3 58t6 51t9.5 46t14 29q27 36 58 37t54.5 -21t39.5 -55q13 -31 15 -71q0 -8 -1 -15q-1 -32 -5 -58 q-6 -34 -12 -78q-6 -39 -6 -67v-8q-3 -144 -30 -342q-16 -201 -58 -235q2 -2 8 -8.5t9 -11t8 -11t7 -12.5t3 -13q2 -16 -12.5 -28.5t-14.5 -14.5q0 -5 -12 -97q-9 -69 -9 -120q0 -17 1 -31q4 -58 33 -59q10 0 159 39q153 40 216 40q41 0 43 -17q1 -8 -5 -19 q-8 -15 -52.5 -28t-101 -23t-63.5 -12q-116 -31 -217 -72q-21 -8 -51 -21.5t-43.5 -19t-35 -10.5t-37.5 -1.5t-37 14t-46 30.5z" />
<glyph unicode="M" horiz-adv-x="1021" d="M0 874q0 14 -1 29q-1 45 1 99q2 73 2 106v137q0 61 36 86q16 12 34 12q21 0 45 -16q16 -8 20 -14q11 -18 35 -41t41.5 -46t22.5 -52q52 -72 117.5 -224t92.5 -200q7 -15 14 -32t14.5 -38t12.5 -33l31 -57l23 72q58 219 90 321q9 30 31.5 89.5t31.5 90.5q19 56 63 56 q8 0 17 -2q4 -1 9 -1t10 0.5t8 0.5q23 45 43 57q15 9 47 9q11 0 24 -1q55 -95 55 -229q0 -21 -1 -43q-4 -50 -15.5 -149.5t-15.5 -149.5q-8 -78 -37 -439q-8 -134 -10 -198q0 -15 2.5 -52.5t1.5 -56.5q-3 -54 -31 -68q-8 -4 -17 -4q-21 0 -46 23q-46 41 -46 104q0 9 1 19 q14 113 18 344q1 43 3 86t6 95.5t6.5 83.5t10 94.5t9.5 82.5t11.5 94t10.5 85q2 15 2 30q0 27 -8 53q-15 -25 -16 -28q-73 -188 -90 -240q-22 -69 -78 -276l-18 -58q-9 -22 -19 -22q-6 0 -22.5 -1.5t-24.5 -2t-20.5 0.5t-22.5 5q-44 16 -72 63q-15 24 -29 52t-30.5 63 t-26.5 55q-92 197 -125 265q-2 6 -18 22q-10 -143 -10 -154q0 -39 3.5 -110t4.5 -94q0 -16 -4 -45t-4 -43q0 -37 -3 -115q-2 -80 -2 -126q0 -8 -1 -16q1 -42 3 -96q2 -66 9 -123q4 -23 4 -45q0 -49 -20 -94q-19 -46 -50 -46q-10 0 -22 5q-37 16 -107 70q-14 11 -14 35 l12 252q0 37 -2 109.5t-2 109.5q1 74 1 133q0 118 -5 176q-4 51 -4 106z" />
<glyph unicode="N" horiz-adv-x="798" d="M0 236q2 132 13 382t12 287q0 12 1 40t0.5 48.5t-3.5 38.5q-5 37 -6 78v34q0 26 0.5 55.5t0.5 50.5v26v14q0 44 11 56q11 11 47 11q8 0 18 -1q88 -3 125 -90q17 -42 51 -150l181 -573q7 -21 16 -62.5t12 -52.5q8 -29 27 -84h16l8 96q13 220 15 297q3 78 6 222t4 190 q0 51 2 76q6 42 47 45q11 1 21 1q49 0 72 -21q28 -25 32 -93q1 -15 1 -34q0 -38 -3 -93l-27 -530q-1 -28 -4.5 -79.5t-5.5 -93.5t-2 -79q-1 -30 0.5 -61.5t5 -75t4.5 -62.5q1 -16 1.5 -29.5t-7.5 -23.5t-26 -12q-5 0 -10 -3t-5 -6q-11 -39 -41 -39q-11 0 -24 5 q-16 5 -32.5 40t-31.5 84.5t-20 59.5q-20 48 -49 94q-22 33 -37.5 76.5t-21 69t-15.5 79.5q-14 80 -51.5 171t-51.5 135q-44 146 -69 202q-10 -20 -10 -24q0 -28 1 -86t1 -86q-3 -76 -9 -150q-1 -14 -4.5 -52.5t-3.5 -59.5q0 -26 1 -55.5t2.5 -65.5t2.5 -56q7 -236 17 -405 q3 -32 -25 -41q-19 -8 -40 -8q-55 0 -117 59h-3q-1 18 -11 136q-9 108 -9 167v11z" />
<glyph unicode="O" horiz-adv-x="751" d="M0 360q11 165 31 258q23 99 37 238q2 17 5 35t5.5 32t8 35t7.5 31t10 34t10 30.5t11.5 33.5t10.5 30.5t12.5 33.5t11.5 31q7 21 23 60t20 50q20 46 36 54q6 3 18 2q19 0 52 -7q17 -3 35 -10q70 -34 80 -56q4 -7 4 -20q0 -25 -14 -71q-15 -49 -67.5 -147.5t-67.5 -147.5 q-10 -39 -21 -66q-2 -3 -5.5 -5t-9 -4t-7.5 -3l-19 -12q16 -6 37 -11q-22 -257 -23 -274q-1 -8 -1 -17t0.5 -20.5t0.5 -17.5q0 -5 3.5 -18t1.5 -17q-13 -34 -15 -72q-1 -14 -1 -30q0 -26 2 -58q3 -38 3 -62v-12q0 -8 -2.5 -30t-1.5 -33q2 -21 25 -40t55 -37.5t43 -31.5 q41 21 64 84q74 171 104 402q8 84 10 121q10 170 10 200q-4 148 -16 219q-4 21 -12 43.5t-21 52.5t-18 44q16 2 31 2q56 0 102 -36q58 -46 66 -114q4 -39 12 -82t19 -99.5t16 -80.5q0 -4 1 -12t1 -12l-19 -193q-6 -61 -22 -172q-30 -202 -107 -391q-19 -49 -65 -60 q-34 -12 -78 -40q-44 -24 -77 -24q-8 0 -15 1q-129 23 -202.5 87.5t-98.5 201.5q-2 8 -6.5 24t-6.5 26.5t-1 24t8 25.5q-24 29 -24 83q0 8 1 17zM139 1044h4l-2 3zM158 983l8 -4v4q0 2 -4 2q-2 -2 -4 -2zM215 797h2v2zM244 905h4v8q-4 0 -4 -2v-6z" />
<glyph unicode="P" horiz-adv-x="704" d="M2.5 1316.5q5.5 7.5 32.5 10.5q8 1 15 1q46 0 72 -28q30 -32 60 -106q7 -20 27 -51q14 -23 22 -48.5t14.5 -59t10.5 -48.5q4 -14 7 -29.5t6 -34.5t5 -30l15 -6q3 11 20 61t23 78q33 135 170 229q53 37 110 37q33 0 68 -12q42 -17 49 -49q24 -82 25 -109q3 -33 2 -70 q0 -130 -35 -311q-35 -162 -174 -344q-34 -47 -82 -54q-7 -1 -14 -1q-43 0 -99 37l-30 18q-11 -10 -15.5 -24t-6 -34.5t-3.5 -27.5q-1 -5 0 -19.5t-2 -17.5q-18 -48 -27 -122q-7 -55 -7 -103q0 -16 1 -31q1 -16 1 -29q-1 -33 -7 -55q-10 -30 -31.5 -37.5t-49 -1.5t-66.5 25 q-57 28 -71 50q-9 14 -9 40q0 16 4 37q9 54 13 111t7 143t4 113l6 196q1 34 7 162q4 76 3 136q1 42 -1 76q-4 82 -25 163q-6 24 -21.5 68.5t-21.5 64.5q-7 29 -1.5 36.5zM322 463q31 9 57 39q121 138 158 282q14 58 27.5 170.5t19.5 147.5q3 6 0.5 45t-2.5 49 q-46 -5 -61 -11.5t-27 -29.5q-7 -12 -28 -49t-30.5 -55.5t-21.5 -50t-17 -60.5q-9 -58 -73 -389q-2 -15 -2 -88z" />
<glyph unicode="Q" horiz-adv-x="751" d="M4 397q6 50 11 145.5t10 137.5q33 308 145 532q1 2 61 131q125 -4 185 -30q24 -10 27 -19t-11 -28q-28 -40 -39 -62q-40 -93 -45 -112q-7 -21 -13 -44.5t-13.5 -55.5t-10.5 -46q-7 -28 -18 -47q-21 -47 -21 -86v-11q0 -42 -12 -143q0 -4 -3 -9t-8 -11.5t-7 -9.5 q-2 -4 -2 -19q-1 -4 -1 -10t-0.5 -10t-2.5 -6q-20 -15 -20 -36q0 -12 7 -26q17 -33 17 -83q0 -16 -2 -33l-21 -154q-4 -11 4 -19q10 -9 15.5 -19.5t6.5 -18.5t1.5 -21t1.5 -20q4 -45 20 -72q31 -46 92 -119q4 -5 10 -10t15.5 -11t15.5 -10q36 111 70 205q-35 8 -60.5 -2 t-52 -30t-47.5 -27v14q0 79 62 119q35 21 82 31q37 5 43 41q3 21 10 64.5t11.5 77t6.5 64.5q7 92 7 174q0 126 -17 226q-4 18 -9.5 38.5t-13.5 46t-12 40.5q36 14 58 14q8 0 13 -1q25 -6 60 -42q36 -37 47 -80.5t11 -101.5q-3 -151 -11 -262q-1 -37 -20 -160 q-8 -47 -21 -109q14 -6 40.5 -10.5t45 -12.5t27.5 -26q3 -6 -9 -14t-36 -14.5t-51 -8.5q-36 -3 -43 -28q-5 -19 -21.5 -72t-23.5 -82q-17 -69 -73 -102q-43 -27 -104 -27q-16 0 -34 2q-102 14 -185 80.5t-114 161.5q-35 112 -35 210q0 35 4 68z" />
<glyph unicode="R" horiz-adv-x="858" d="M-82 1321q41 38 82 38q39 0 78 -34q62 -48 90 -102q15 -31 35 -93.5t28 -82.5q33 -94 39 -203q0 -6 3.5 -14t9.5 -21t10 -23q6 12 16 29t13 25q67 185 163 319q13 18 93 119q36 45 120 49h15q74 0 123 -35q38 -26 52 -58q9 -21 9 -48q0 -14 -2 -29q-34 -174 -125 -326 q-11 -17 -29 -53t-30 -53q-65 -100 -136 -195q-14 -20 -39.5 -51.5t-33.5 -42.5q67 -187 80 -235q27 -109 116 -191q20 -19 33.5 -17.5t30.5 21.5l39 58q-6 -78 -30 -111.5t-85 -46.5q-17 -3 -35 -3q-37 1 -79 15q-62 22 -93 78q-3 5 -18 32t-20 37t-15 31.5t-16 39 t-11 36.5q-6 26 -15.5 55.5t-23.5 67t-20 55.5l-21 21l-34 -191l-19 -137q-1 -5 -3.5 -18t-2.5 -18t2 -17q5 -25 5 -39t-9.5 -28.5t-19 -22.5t-23 -19.5t-20.5 -21.5q-3 -4 -13 -4.5t-16 2.5q-90 32 -131 55q-11 6 -19 21t-8 28q-2 14 -2 28q0 44 21 87q47 92 51 248 q1 34 4 102q4 69 4 103v15q0 33 -2 87q-3 52 -9 111t-15 129.5t-13 111.5q-1 8 -7 30.5t-7 35.5q-15 126 -115 264zM344 459q12 -4 14 -4q8 13 23 39.5t27.5 46.5t25.5 37q19 24 36.5 49t35.5 55.5t30.5 51t32 58t27.5 52.5t30 59t27 55q31 58 68 189q4 13 5 28t0.5 33.5 t0.5 28.5q-14 5 -27.5 5.5t-23 -2t-20.5 -9t-18 -12.5t-17 -15q-180 -165 -220 -389q-7 -42 -53 -305zM567 590l4 -2v4z" />
<glyph unicode="S" d="M0 200q0 44 28 77q28 34 66 36l72 -229q1 -4 3.5 -16.5t5 -19.5t9 -13.5t15.5 -7.5q61 0 84 26q22 25 57 111q4 11 6.5 35t5.5 34q4 13 4 26q0 45 -45 87q-56 56 -100 88q-84 64 -127 141q-31 53 -53 136q-14 61 -14 120q0 100 40 197q10 24 40.5 102t49.5 119 q21 50 54 76q14 11 36 10q15 0 33 -4q96 -22 262 -69l68 -19q48 -14 66 -37q16 -20 16 -55v-12q-1 -27 -7 -58t-10.5 -46t-19 -55.5t-16.5 -47.5q-19 -59 -80.5 -150t-77.5 -123q-35 9 -35 43q0 8 2 17q3 22 14.5 59.5t14.5 52.5q48 170 82 310q7 30 -1 42.5t-44 26.5 q-65 23 -92 29q-16 3 -30 3q-26 0 -46 -10q-32 -16 -47 -52q-58 -153 -70 -232q-11 -70 -10 -136q0 -114 31 -218q13 -49 55 -82q92 -75 176 -129q103 -67 132 -155q10 -32 11 -63q0 -57 -34 -116q-3 -4 -5 -10t-4.5 -13t-3.5 -10q-35 -69 -80 -84h2q-23 -5 -63 -22 q-40 -16 -74 -23q-17 -4 -34.5 -3.5t-36.5 3.5q-15 3 -57.5 9t-65.5 12q-24 6 -70.5 14.5t-60.5 11.5q-1 6 -6.5 30.5t-6.5 37.5q-14 154 -14 198zM72 729l4 -2l-2 4z" />
<glyph unicode="T" horiz-adv-x="434" d="M-143 1202q-10 40 26 49q176 54 250 64l62 4q56 4 307 29q25 3 35.5 -1.5t23.5 -27.5q22 -36 29 -64q4 -12 -1.5 -19t-17.5 -7h-14q-31 1 -63 -3q-38 -4 -90.5 -14.5t-75.5 -13.5q20 -90 20 -198q0 -68 -8 -144q-4 -31 -16 -115.5t-17 -130.5l-16 -241q-4 -31 -12 -50 l-9 -27t-8.5 -31t5 -27t24.5 -33q4 -4 5.5 -15t0.5 -22.5t0 -22.5q0 -7 -1.5 -21.5t-1 -25t4.5 -18.5q9 -23 12.5 -47.5t4.5 -55t3 -45.5q3 -34 -6.5 -45.5t-38.5 -13.5h-4q-67 0 -141 74q-16 16 -16 47q-1 41 -1 87q0 205 25 513q23 279 23 445q0 46 -2 83q0 13 -4 41 l-80 -14q-23 5 -47 4t-39 -14q-2 -2 -8 -5l-7 -2q-28 -11 -47 -12t-32 10t-21 28.5t-16 47.5zM-78 1245q0 -2 4 -6l4 6q-1 0 -3 1t-3 1q0 -1 -2 -2zM33 1180l6 -6l2 2l-6 6z" />
<glyph unicode="U" horiz-adv-x="716" d="M0 360q12 186 14 423v152q0 147 -2 271q0 17 -4 49q-1 6 -1 11q0 34 34 37q38 4 69 4q22 0 42 -2q14 -2 29.5 -11.5t21.5 -19.5q37 -64 37 -98q1 -67 1 -91.5t-2 -91t-3 -90.5q0 -15 1 -46t1 -46q3 -95 3 -157q0 -31 -1 -54q-1 -26 -11 -75.5t-12 -71.5q-4 -60 -4 -105 t4 -74q3 -19 -1 -55q-2 -17 -1 -32q0 -17 2 -32q4 -28 23 -51q9 -9 17 -30.5t13 -28.5q5 -9 31.5 -25.5t32.5 -23.5q8 3 28.5 11.5t34.5 14.5t30 14.5t25.5 16.5t10.5 15q24 121 26 186q5 88 10.5 249.5t6.5 196.5q7 237 43 402q3 14 5.5 42.5t8 50.5t19.5 40q44 59 110 59 h10l-20 -26q-3 -3 -9 -7.5t-10.5 -8t-5.5 -7.5t-6.5 -29t-8.5 -34.5t-11 -26.5t-19 -29q-18 -157 -18 -333q0 -131 10 -273q3 -33 4 -69.5t1 -81.5t1 -70q0 -23 -1 -67t-1 -66q-6 -120 -94 -199q-46 -42 -164 -53q-33 -3 -61 -3q-74 0 -115 21q-55 27 -74 72q-5 11 -20 43 l-22.5 48t-17 42.5t-15.5 48.5q-26 88 -26 153q0 11 1 21z" />
<glyph unicode="V" horiz-adv-x="456" d="M-109 1321q-1 3 1 9.5t2 8.5q39 17 75 17q39 0 75 -19q70 -36 97 -110q34 -89 72 -254q10 -44 24.5 -124.5t20.5 -109.5q6 -28 29 -51q15 30 20 53q43 143 120 274.5t196 293.5q41 53 135 90q26 9 34 6t33 -31q-3 -3 -9.5 -13t-12.5 -13q-42 -27 -80.5 -67t-62 -72.5 t-59.5 -87t-56 -81.5q-31 -41 -55.5 -98.5t-34.5 -91.5t-29 -109q-58 -224 -102 -430q-7 -34 -12 -71.5t-10.5 -85.5t-8.5 -72q-6 -49 -35 -260q-33 -7 -59 -7q-34 0 -54 13q-34 81 -57 149q-12 24 -12 39q-4 102 -8 314q-2 28 -2 55t2 55q1 16 1 32q0 66 -10 142 q-12 96 -23 148.5t-38 169.5q-15 70 -107 389z" />
<glyph unicode="W" horiz-adv-x="1069" d="M-56 1365.5q8 13.5 40 16.5h15q43 0 75 -15q36 -18 57 -67q101 -249 123 -403q35 -232 35 -387q0 -39 -2 -72q-1 -4 0.5 -14.5t1.5 -15.5q20 3 29 18t10 27q77 244 198 489q13 22 13 76q3 48 15.5 63t57.5 21q46 6 47 6q7 2 48 20l81 -788h13q8 19 10 31q41 228 154 497 q92 207 135 324q26 74 84 123q40 32 96 32q25 0 53 -6l-61 -55q-70 -73 -107 -170q-18 -47 -58 -131.5t-50 -107.5q-28 -67 -51.5 -154.5t-34 -142t-29.5 -160.5q-9 -56 -15.5 -120.5t-13.5 -142t-12 -122.5q-5 -36 -27 -125q-5 -29 -20 -29q-18 -4 -102 -14q-4 -1 -8 -1 q-36 0 -76 40q-24 23 -32.5 48.5t-8.5 63.5q-1 38 -13.5 107.5t-15.5 99.5q-8 71 -20 202.5t-15 158.5q-2 22 -20 151q-19 -16 -31.5 -37.5t-17 -36t-10.5 -41.5t-9 -36q-42 -141 -94 -350q-16 -61 -42 -177.5t-32 -140.5l-8 -35q-8 -46 -49 -46q-5 0 -10 1q-8 1 -31.5 1.5 t-36.5 2.5q-37 4 -62.5 36t-25.5 71q0 88 -4 264q-2 145 -10 440q-7 369 -101 604q-11 22 -22 64q-11 31 -3 44.5z" />
<glyph unicode="X" horiz-adv-x="880" d="M-47 -88l74 96q33 47 36 62q8 44 28.5 89t40 74t54.5 74q16 21 30.5 46.5t31.5 58t26 49.5q12 20 27 49q17 28 17 59q0 23 -9 47q-68 197 -80 238q-10 35 -88 332q-18 80 -32 131q-2 9 -2 17q0 27 30 34q66 16 96 18h7q36 0 64 -20q30 -22 42 -59q13 -39 62 -205 q5 -10 4 -12q-3 -9 -3 -19q1 -21 13 -49q18 -40 20 -51q3 -30 25 -101q1 -3 31 -65q10 17 26 38.5t19 26.5l278 435q25 38 61 38q14 0 29 -6q9 -4 30 -9t30 -9q12 -4 18.5 -7.5t13 -13.5t5.5 -24q-24 -6 -27 -6q-19 1 -34.5 -9t-20.5 -17.5t-19 -29.5q-32 -51 -88 -125 q-33 -49 -157 -227q-63 -93 -74 -112q-30 -52 -32 -76q-2 -20 5 -39q2 -6 2 -41q10 -11 16 -22t8.5 -26t3 -23t0 -27.5t-0.5 -24.5q3 -10 3.5 -12.5t3.5 -11t5 -10.5t6.5 -7t9.5 -5.5t12.5 -1t16.5 2.5q17 -60 64 -131q14 -20 25.5 -45t23.5 -55.5t20 -47.5q9 -22 19 -35 t30 -20q55 -19 86 -100q4 -12 4 -23q0 -21 -13 -43q-21 -34 -62 -45q-19 -5 -109 -20q-8 -1 -15 -1q-52 0 -77 56q-5 12 -16.5 32.5t-14.5 26.5l6 -2l-4 2q-88 128 -190 353q-3 9 -11 24.5t-10 20.5q-10 20 -26 20q-13 0 -29 -12l-6 -6l-74 -111q-9 -14 -28 -51.5t-33 -54.5 q-57 -64 -82 -183q-5 -28 -30 -73t-32 -66q-30 10 -47 17t-35.5 23t-27.5 38zM227 309h4l-2 4zM623 352l4 2l-4 2v-4z" />
<glyph unicode="Y" horiz-adv-x="503" d="M-219 1350q37 29 97 32h11q51 0 82 -20q25 -15 48 -39t34.5 -41t32.5 -51.5t29 -46.5q4 -7 5.5 -18.5t0.5 -22t0 -23.5q6 -1 14.5 -4t11.5 -4q16 -8 27.5 -19t19 -27t11.5 -27t9.5 -32.5t8.5 -29.5l8 -23v2q3 -13 17 -45q9 -4 17 -1.5t18 -0.5t16 -16q12 -22 31 -22 q16 0 37 16q30 23 43 43q25 35 73 93.5t85 109t63 100.5q11 22 51 67q24 25 45 35t51 0q17 -4 35.5 -7t48 -6.5t47.5 -6.5q-10 -7 -24 -17.5t-22.5 -16t-16.5 -9.5q-21 -11 -42.5 -29t-32 -30t-33.5 -40.5t-29 -35.5l-177 -205q-83 -92 -112 -121q-21 -19 -21 -43 q0 -11 4 -23q13 -32 13 -63v-11q-3 -37 -29 -73q-7 -9 -11 -20t-6 -26t-3 -24.5t-1.5 -29t-0.5 -25.5q-1 0 -1 -105l1 -104q0 -12 -2.5 -38t-2.5 -40l-12 -274q-1 -29 -16.5 -44.5t-46.5 -23.5q-18 -5 -35.5 -6t-39.5 3.5t-32.5 7t-36.5 10.5q-39 14 -39 57q1 21 1 50 q0 36 -1 85q-2 40 -2 76q0 44 2 83q3 71 19 134q4 14 5 29t0.5 34t0.5 29q0 14 -1.5 40.5t-1.5 48t3 40.5t3 39q0 111 -81 242q-2 4 -7.5 12t-7.5 11.5t-6 12.5t-3 14t2 15l-58 97l-133 235zM84 1081q0 -38 5 -44t36 -3q-5 5 -8 18t-10 20.5t-23 8.5zM152 1073l2 -4l2 4h-4z M205 846l4 -2q6 0 8 2l-6 6zM209 928l6 -8q0 2 2 5t2 5l-2 4z" />
<glyph unicode="Z" horiz-adv-x="786" d="M0 -16q4 74 25 110q26 49 80 136.5t73 121.5q36 61 104.5 184t104.5 185q6 11 162 260l104 170q2 3 6 31q-67 8 -96 10q-124 8 -184 16q-74 10 -143 27q-54 10 -72 61q29 23 69 25q9 1 17 1q30 0 55 -7q23 -4 76 -16t82 -15q41 -6 84 -6q124 0 272 49q29 10 62 10 q33 1 69 -9q72 -18 111 -66q-2 -4 -4 -8.5t-3.5 -7.5t-4.5 -5q-42 -27 -77.5 -64.5t-79 -97t-61.5 -80.5q-8 -9 -63 -69.5t-80 -95.5q-16 -23 -49.5 -63.5t-58 -74.5t-41.5 -69q-21 -42 -48 -87.5t-62.5 -101.5t-53.5 -86q0 -1 -1 -2t-1 -2q-45 -86 -131 -258q-4 -7 -11 -45 l60 10t65 11q123 27 373 77q22 4 59 4q25 0 56 -2q42 0 52.5 -8.5t25.5 -56.5q-22 -16 -53 -24t-48 -8.5t-57 -0.5h-9q-76 0 -208 -33q-21 -5 -94 -31.5t-117 -31.5q-10 -1 -22.5 -6t-21 -10t-22.5 -14t-20 -13q-38 -24 -78 -24h-3q-38 0 -66 10q-29 10 -72 34q-11 4 -21 23 t-10 33z" />
<glyph unicode="[" horiz-adv-x="557" d="M8 2l3.5 10.5l3.5 10.5t2.5 9t1.5 10t-0.5 10t-2 11t-4.5 11q-2 4 -2 14q24 98 45 170q1 2 3.5 8t3 8t1 7t-0.5 8t-3.5 7t-7.5 7q-2 0 -2 2l2 -2q-3 192 5.5 420t19 378.5t30.5 418.5q70 36 155 53.5t169.5 17.5t181.5 -6q-3 -7 -6 -15.5t-4.5 -12.5t-3.5 -5 q-137 -40 -166 -45q-85 -13 -153 -39q20 -36 29 -76.5t7.5 -74t-2.5 -72.5q-5 -175 -10 -225q-6 -44 -20.5 -123t-18.5 -106q-12 -62 -14 -95q-3 -19 -10 -28t-23 -9q43 -87 23 -194q-1 -15 -1 -21t2 -23.5t3 -23.5q0 -2 2 -12t2.5 -13.5t0.5 -11t-1 -12t-4 -9.5t-8 -9 q29 -89 34 -107q-2 0 -5 -1t-5 -1l-4 33l-45 22q-35 20 -44.5 14.5t-14.5 -48.5q9 -16 15 -24.5t16.5 -19.5t19.5 -15.5t21 -5t26 6.5q4 -66 4 -69q0 -33 -14 -41q-34 -19 -117 -58q7 -37 12 -75q12 7 37.5 40t52.5 33l-20 -47q95 -63 141 -145q66 13 227 41q5 -58 -47 -74 q-135 -55 -200 -70q-142 -30 -271 103q-79 79 -47 180zM135 231l6 -8l6 17zM190 653q0 -1 1.5 -3t1.5 -3l24 12zM193 160l18 -23l8 8q-5 4 -12 12t-8 9zM197 541h6l-4 4zM205 319l28 7l3 2l-31 10v-19zM258 991h8q0 4 2 6h-10v-6z" />
<glyph unicode="\" horiz-adv-x="516" d="M-23 899q53 5 66.5 -1t26.5 -40q116 -280 131 -323q27 -72 72 -206.5t65 -189.5q14 -39 76 -166q2 -4 18 -40t23 -56q19 -46 -29 -49q-74 -3 -102 55q-61 120 -80 178q-25 73 -71.5 222t-70.5 223q-15 42 -47 126t-47 126q-6 21 -31 141z" />
<glyph unicode="]" horiz-adv-x="624" d="M0 -225l55 14q55 12 111 27q41 10 57 37t13 75q-18 259 16 416q13 64 21.5 136t16.5 167t13 139q4 37 17 115t16 119q13 125 37 430q-95 13 -131 16q-74 6 -150 15q-44 6 -80 59q5 2 12.5 6.5t13 7t9.5 2.5q15 3 62 3q246 -15 284 -17q70 -3 148 -51q18 -11 24 -26t8 -40 q0 -26 0.5 -38.5t-3 -36t-6 -35t-8 -34.5t-7.5 -34q-8 -34 -15 -76.5t-10.5 -69.5t-9.5 -80.5t-8 -72.5q-8 -64 -28 -181.5t-27 -170.5q-3 -20 -4 -43t-1.5 -53.5t-1.5 -44.5l-8 -88q-20 -168 -6 -314q1 -17 1 -36t-0.5 -41.5t-0.5 -34.5q0 -41 -4 -123q0 -40 -12 -53.5 t-47 -10.5q-3 1 -11.5 1.5t-15 1.5t-10.5 5q-17 12 -35.5 15t-30.5 1t-32.5 -8t-30.5 -8q-33 -6 -162 -16q-5 0 -11.5 2.5t-14.5 7t-13 6.5v13z" />
<glyph unicode="^" horiz-adv-x="563" d="M-1.5 763q-0.5 17 19.5 44q86 107 156 186q18 20 55 53.5t63 62.5t42 62q36 -5 59.5 -11t45 -23t22.5 -43q7 -115 28.5 -193.5t73.5 -126.5q6 -2 21 -14q-20 -22 -61.5 -32.5t-63.5 1.5q-16 9 -25.5 21t-14 23t-11.5 36q-8 7 -11 66.5t-12 68.5q-8 -9 -22 -23t-19 -20 q-29 -31 -58 -57t-55 -53q-16 -19 -53 -39q-34 -21 -69 -39q-23 -12 -48.5 -9t-42.5 21q-19 21 -19.5 38z" />
<glyph unicode="_" horiz-adv-x="1634" d="M-59 -213q46 4 65 4q276 12 418 16q278 10 332 11q165 3 331 0q57 0 169 -1t169 -1q32 -1 201 4q36 0 53.5 -19.5t26.5 -70.5q-16 1 -44.5 2.5t-51.5 2.5t-43 1q-28 1 -83.5 0t-82.5 0q-201 0 -301 2q-20 0 -73 2.5t-81 1.5q-44 0 -132 -3t-132 -3q-47 -1 -133 0.5 t-113 1.5l-138 1q-138 1 -138 -1q-29 0 -88.5 -1t-89.5 -1q-24 0 -29.5 7t-11.5 44z" />
<glyph unicode="`" horiz-adv-x="249" d="M2 985q-6 13 1.5 27t21.5 24q20 17 47 4q13 -8 17.5 -11t14 -10.5t14 -15.5t7.5 -18q3 -9 12 -18q19 -19 31 -46.5t16 -45t9.5 -56t7.5 -49.5q0 -5 -6 -14q-9 0 -9 2q-17 23 -58.5 56.5t-57.5 51.5q-27 35 -68 119z" />
<glyph unicode="a" horiz-adv-x="698" d="M1 133.5q0 57.5 7 97.5q9 37 18.5 69t22.5 63t20 47t23.5 49.5t20.5 42.5q19 42 43 80q18 30 54 30h7q22 -3 67 -3t68 -3q30 -2 88 -22q7 -3 27 -37q-13 -1 -30.5 -4.5t-30 -5t-23.5 -0.5h-6q-42 0 -70 -41q-50 -73 -84 -189q-37 -124 -41 -205v-59q30 27 35 35 q12 21 49 86.5t58 99.5q31 48 104 146q18 26 44 26q6 0 13 -2q5 -1 15.5 -1t15.5 -1q66 -6 78 -24q5 -7 4 -20q0 -22 -12 -60q-34 -102 -41 -230q0 -6 4 -30q37 54 94.5 111t116.5 95q-24 -58 -50.5 -109t-41.5 -76t-41.5 -65t-34.5 -53q-35 -44 -87 -44q-8 0 -17 1 q-63 8 -91 68q-6 11 -41 106q-43 -70 -61 -110q-27 -57 -59 -70q-23 -9 -60 -9q-14 0 -31 1q-91 7 -133 76q-3 6 -7 46t-4 97.5z" />
<glyph unicode="b" horiz-adv-x="626" d="M10 314q1 128 4 153q19 189 49 428q50 356 101 530q1 9 12 41q12 33 49 27q56 -13 72 -16q80 -11 84 -11h6q50 0 84 -30q33 -30 34 -76q0 -4 -1 -8q-4 -62 -37 -193q-56 -223 -184 -473q-5 -11 -23 -36.5t-22 -41.5q-15 -56 -45 -196q-7 -31 -11 -72q0 -5 5 -17.5 t8 -23.5l32 61q76 171 174 283q27 35 62 59q35 28 65 28q13 0 25 -5q26 -14 42.5 -45t10.5 -59q-15 -82 -57 -263q-3 -12 -14 -48.5t-16.5 -62t-8.5 -52.5q43 28 96 53t82 31l-108 -105q-11 -16 -57 -62t-56 -59q-23 -32 -66 -63q-17 -12 -21 -15t-18.5 -12.5t-21 -11.5 t-17.5 -6t-19.5 -3t-16.5 5q-8 5 -12.5 10.5t-4 13t1.5 13t4.5 15t4.5 13.5q5 16 39.5 83.5t39.5 86.5l82 285q6 22 26.5 80t27.5 104q-4 -4 -18.5 -15.5t-20.5 -19.5q-10 -12 -38.5 -48.5t-38.5 -50t-29 -42t-31 -54t-23 -56.5q-17 -48 -46.5 -142t-45.5 -139 q-4 -11 -3 -24q0 -22 11 -46q12 -28 2.5 -61t-33.5 -51q-19 -12 -47 -4t-37 28q-11 28 -12 29q-29 24 -45 59.5t-20.5 62t-8.5 73.5q-2 27 -2 106v58zM233 848l15 -6q2 4 16.5 29t20.5 40q78 198 96 252t49 215q2 11 2 20q0 34 -24 44q-12 5 -23 5q-26 0 -49 -26 q-13 -15 -17 -57l-47 -295l-6 -18q-14 -96 -33 -203z" />
<glyph unicode="c" horiz-adv-x="518" d="M0 145v30q0 253 63 425q10 30 26 59t44 72t35 55q5 8 15.5 15.5t17.5 7.5h15q134 0 300 -51q2 -1 4 -3.5t5 -6t5 -5.5q-17 -20 -30.5 -41.5t-23 -51.5t-14 -45t-13.5 -54.5t-11 -48.5q-5 -19 -17.5 -54.5t-14.5 -41.5q-40 12 -54 34q-11 18 -11 47q0 8 1 17q2 24 8 74.5 t8 76.5q4 22 7 80q-8 -4 -21.5 -9.5t-20 -8.5t-13.5 -7.5t-11 -9.5q-34 -43 -41 -79q-38 -174 -47 -248q-4 -35 -4 -104.5t-4 -104.5q-2 -20 -2 -38q0 -63 26 -110q7 -17 27 -48t27 -42q16 15 62.5 75t59.5 79q19 19 78.5 90.5t98.5 103.5q-69 -146 -99 -196l-35 -55 q-32 -65 -69 -103t-71 -48q-20 -6 -40 -6q-16 0 -30 4q-36 8 -63.5 26t-53.5 45l-80 82z" />
<glyph unicode="d" horiz-adv-x="833" d="M-16 61q48 323 198 537q21 29 50 43.5t58 14.5t62 -1q21 -1 43.5 -4t55.5 -8.5t49 -7.5q5 8 7.5 28.5t8.5 30.5q10 26 8 29q-10 21 -11 43t3.5 53t5.5 45q-9 2 -16.5 5t-16.5 5v17q5 20 5 24q-1 11 -1 23q1 56 13 122q14 78 28.5 121t48.5 135q9 24 13 36q29 76 131 170 q28 24 61 24h7q81 -8 180 -35q37 -12 44.5 -31t-11.5 -53q-22 -41 -78 -141.5t-84 -155.5q-86 -168 -117 -258q-29 -91 -29 -186v-18q1 -18 -3.5 -39t-13 -47.5t-11.5 -40.5q-1 -7 -9 -32.5t-6 -37.5q3 -31 3 -51v-14q-2 -22 -9 -62t-8 -61v-2q3 -43 12 -125.5t11 -104.5 q5 4 16.5 12.5t15.5 12.5q46 67 90 112.5t109 90.5q-29 -77 -59 -138t-44.5 -84t-56.5 -86q-28 -46 -80 -121q-9 -14 -26 -14q-10 0 -33 -1.5t-36 -1.5t-32 0.5t-36 4t-33 10.5q-56 123 -62 215q0 49 -2 74q0 20 -4 60q-2 0 -6 1t-6 1l-21 -31l-98 -211q-26 -56 -80 -70 q-29 -7 -54 -7q-57 0 -98 36q-48 43 -48 113q0 15 2 32zM127 10.5q0 -17.5 2 -33.5q27 31 31 39q234 435 250 465q6 13 9.5 29t7 37.5t7.5 36.5q-105 -25 -141 -95q-76 -143 -99 -209q-10 -27 -16 -53q-3 -14 -13 -38.5t-13 -36.5q-1 -2 -7 -25.5t-7.5 -29.5t-5.5 -26.5 t-4.5 -31.5t-0.5 -28.5zM467 311q3 -3 5.5 -6.5t5.5 -8l5 -7.5l11 6q-7 14 -15 22q-1 3 -12 -6zM487 403q0 -1 1 -4.5t1 -5.5l9 4q0 5 -4 9q-7 -1 -7 -3zM530 911q7 -6 9 -6l10 10l-10 9zM543 352q8 4 10 4l-6 9q-4 -1 -4 -3v-10zM731 1081q0 -2 6 -8l8 4q36 46 63.5 106.5 t54 133.5t46.5 115q1 4 -2 14t-6 12q-27 5 -33 -4q-4 -5 -17 -21t-19 -23.5t-13.5 -21.5t-11.5 -26q-8 -26 -76 -281z" />
<glyph unicode="e" horiz-adv-x="542" d="M0 274q2 50 23 119q10 38 25 76.5t41.5 96.5t33.5 75q13 29 51 90q4 7 11 15t15.5 16.5t12.5 13.5q30 32 78 32q15 0 31 -3q12 -2 35.5 -4t35.5 -4q23 -3 39 -13q49 -30 96 -43q22 -6 32 -20t5 -31q-7 -26 -16 -39q-84 -147 -238 -286q-69 -65 -96 -107q-18 -30 -18 -90 q0 -35 26.5 -76t63.5 -63q10 8 43.5 32t44.5 33q42 38 124.5 101t104.5 86q-12 -78 -39 -125q-20 -34 -53 -66.5t-55.5 -49.5t-77.5 -56q-33 -23 -71 -25h-10q-34 0 -73 12q-69 19 -126.5 68t-82.5 111q-2 6 -10 40q-6 28 -6 67v17zM244 487q0 -1 10 -16q143 143 184 240 q-40 12 -52 10.5t-32 -23.5q-85 -90 -110 -211z" />
<glyph unicode="f" horiz-adv-x="450" d="M-39 236q10 3 28 10t33.5 12.5t30.5 9.5q40 8 55.5 33t18.5 70q18 334 33 438q33 221 94 451q13 49 43.5 98.5t86.5 89.5t122 41h1q28 0 55 -62q27 -63 38 -134q7 -42 7 -68q0 -18 -3 -29q-8 -26 -14 -64.5t-17.5 -76t-37.5 -90.5q-20 -23 -60.5 -91t-73.5 -114 q-7 -11 -31 -43t-42.5 -58t-18.5 -30q-3 -30 -7 -135.5t-5 -126.5q21 -7 39 -2.5t42.5 2.5t43.5 -19l-76 -26q-59 -23 -59 -84q-1 -22 -1 -62.5t-1 -72.5t-4 -60q-3 -29 -14.5 -85.5t-14.5 -84.5q-4 -35 -14 -217l-7 -86q-19 2 -27 3.5t-16.5 4t-21.5 4.5q-62 12 -62 80 q0 28 -1 83t-1 83q-2 102 -2 305v62q-9 -2 -27 -7t-28.5 -7.5t-25 -3t-24 5t-19 18.5t-15.5 35zM305 775.5q2 -15.5 17 -27.5q2 4 13 22t15 27q179 215 185 483q0 62 -33 106q-26 12 -50 -4t-26 -34q-24 -39 -47 -145.5t-33 -139.5q-4 -8 -4 -16l-35 -246q-4 -10 -2 -25.5z " />
<glyph unicode="g" horiz-adv-x="655" d="M-2 -550v16q0 50 14 104q15 62 51 117q36 54 90 92.5t113 48.5q2 -30 -35 -59q-71 -54 -104 -130.5t-45 -179.5q0 -22 6 -43q7 -31 40 -31q7 0 15 1q100 17 133 120q33 96 59 223.5t34 229.5q0 9 15.5 196.5t14.5 211.5q-10 -11 -69.5 -213.5t-63.5 -206.5 q-19 -18 -47.5 -27.5t-57 -8t-52 19t-31.5 49.5l-39 153q-2 4 -4 16t-4 17l2 -2q-3 39 -3 72q0 25 2 46q4 49 21 144q11 41 33 115.5t27 91.5q19 69 88 80q9 1 51 6.5t58.5 6.5t47.5 -0.5t56 -8.5q5 -1 15 -5.5t15 -6.5q-6 -28 -23 -40t-40 -6q-14 4 -26 4q-41 0 -60 -49 q-2 -4 -10 -23.5t-10 -25t-9 -23t-9.5 -24.5t-8.5 -23.5t-8.5 -25.5t-6.5 -24t-6 -26t-4.5 -24t-3.5 -26q-1 -23 -4.5 -64t-5.5 -74.5t-2 -62.5q-1 -15 0.5 -33t3.5 -31t5 -34t5 -33h12q2 2 5 6t5.5 6.5t5 6.5t3.5 7q83 283 102 355q5 18 7 40t2.5 48t1.5 41q3 37 12 46.5 t49 20.5q27 7 54 7q46 0 93 -19q-4 -86 -8 -250q-1 -19 -5.5 -69.5t-5.5 -68.5v-6q0 -20 3 -63q2 -20 2.5 -46.5t-1.5 -59t-3.5 -55t-5 -58.5t-4.5 -47l-19 -110q-25 -207 -137 -363q-39 -55 -98 -78q-107 -43 -209 -51q-33 -2 -46.5 7.5t-19.5 39.5q-15 69 -18 126zM29 178 l2 -6q-2 2 -2 6z" />
<glyph unicode="h" horiz-adv-x="710" d="M6 299q4 30 9 86.5t12 112t20 125.5q4 48 13 186t18 213q6 50 16 104.5t23.5 123.5t19.5 104q5 29 47 221q3 14 11 38.5t12 37.5q78 0 100 -4q30 -3 42.5 -18t12.5 -48q0 -26 -8 -80q-21 -135 -55 -313q-3 -18 -59 -275q-4 -20 -2 -28q4 -45 4 -96q0 -157 -37 -369 q-4 -28 -53 -283q-3 -20 14 -43q8 20 40.5 109t51.5 137q40 100 107 248q48 113 110 246q5 0 41.5 5t56.5 3q33 -3 48 -25t12 -57q-2 -27 -8.5 -79.5t-8.5 -78.5q-4 -90 -4 -135q-1 -4 0.5 -15.5t-0.5 -15.5q-9 -35 -9 -60q0 -8 1 -16q4 -30 12 -76q7 -38 7 -63v-12 q0 -3 8 -43q19 15 48 39.5t50.5 41.5t42.5 29q-45 -130 -98 -188q-34 -37 -88 -45q-15 -2 -29 -2q-36 0 -68 14q-74 30 -83 113q-10 65 -27 246q-9 -9 -16.5 -18.5t-13.5 -22t-10 -20.5t-9 -24t-7 -22t-6.5 -24.5t-5.5 -22.5q-15 -48 -39.5 -136t-33.5 -118q-5 -18 -27 -61 q-27 -53 -61 -63q-14 -4 -30 -4q-25 0 -57 9q-51 11 -51 76q-4 172 -4 258q0 8 -1 33.5t-1 44.5z" />
<glyph unicode="i" horiz-adv-x="274" d="M18 246q0 1 1 14.5t2 27.5t0.5 30t-3.5 24q-1 30 -1 54q-1 28 1 48q4 36 25 107q4 6 10 20t13.5 22.5t21.5 10.5q5 1 22.5 3t25.5 2.5t22 -0.5t25.5 -6.5t23.5 -14.5q-24 -44 -29 -104q-2 -30 -2 -57t2 -52v-15q0 -36 -6 -126q-5 -64 -5 -105q0 -30 3 -47q9 13 39.5 54 t46 61t39 44t41.5 33q-29 -71 -90 -174t-74 -104q-64 0 -88 12q-51 12 -59 101q-2 18 -3.5 68.5t-3.5 68.5zM86 801q-2 23 -2 46q0 54 13 107q19 75 59 172q5 11 19 21.5t26 11.5q6 1 11 1q38 0 64 -42q20 -32 20 -67q0 -17 -5 -33q-13 -28 -78 -191q-5 -12 -25 -96 q-17 -5 -31 -5q-23 0 -39 12q-27 19 -32 63z" />
<glyph unicode="j" horiz-adv-x="489" d="M-14 172q18 67 32 106.5t20 51t25 41.5q10 18 29 55.5t29 56.5q7 15 35 44t30 32q18 25 58 27h16q31 0 55 -6q25 -4 42.5 -14.5t24.5 -27.5t10 -34t0 -41.5t-6.5 -42t-10 -43.5t-8.5 -39q-8 -35 0 -49q13 -26 32 -45q10 -8 22 -10t27.5 4.5t25.5 11t28.5 19.5t22 18 t20.5 18q5 -10 5 -21q0 -21 -16 -44q-25 -34 -57 -54q-27 -19 -30 -38.5t4 -55.5q6 -74 6 -145v-24q0 -117 -17 -310q0 -2 -3.5 -35t-4 -38t-4 -35t-5 -38.5t-6 -35t-8 -38t-9.5 -33.5t-12 -36.5t-14.5 -32t-17.5 -32.5q-23 -40 -64 -57q-34 -15 -70 -15q-8 0 -16 1 q-44 4 -87 24q-30 15 -49 36t-27.5 52.5t-11 54.5t-4.5 67q-2 52 -2 99q0 166 22 270q97 460 107 565q-9 0 -21 -16t-26 -39.5t-46.5 -60t-74.5 -68.5zM208 -478v-24v-52q2 -50 9 -80.5t23 -65t41 -56.5q44 85 63 211q4 40 8 58q33 247 33 405q0 153 -10 229q0 49 -13 54 q-8 6 -14 1.5t-8 -8t-4.5 -12.5t-3.5 -12q-15 -32 -27 -96q-8 -34 -31 -124t-36.5 -154.5t-18.5 -127.5q-1 -10 -5.5 -65t-5.5 -81zM224 819q0 29 3 53q28 217 99 246q15 6 28 6q30 0 52 -29q32 -41 32 -88v-6q2 2 1 -3q0 -4 -3 -17q-24 -46 -65 -156q-2 -6 -10 -33t-14 -45 t-17 -36t-23 -21q-33 -11 -53.5 7.5t-25 55.5t-4.5 66z" />
<glyph unicode="k" horiz-adv-x="653" d="M-20 -90q-1 6 -1 15q-1 35 9 121q12 110 49 339q4 41 8.5 81.5t11.5 88t11.5 78.5t15 87.5t14 77.5t16.5 87t15.5 78t18 87t16.5 80q3 12 25.5 109.5t27.5 120.5q27 2 48 -21.5t45 -75.5t32 -65q-4 -23 -19 -99t-23 -126t-13 -99q-4 -35 -17 -99q-12 -63 -18 -117 q-3 -28 -2 -55q0 -24 2 -48q14 20 48 72.5t54 79.5q81 113 160 167q28 18 52 18q13 0 24 -5q25 -10 33.5 -26t3.5 -42q0 -1 -2 -13t-4 -18q-43 -105 -67 -160t-72 -137t-103 -141l-45 -45q3 -3 24.5 -29.5t28.5 -42.5t11.5 -47.5t7.5 -42.5q2 -7 9.5 -31t12 -34.5 t13.5 -28.5t20.5 -30.5t27.5 -22.5q7 2 14.5 5t13 6t13 9t11 8.5t11 11t9 10.5t10 11.5t9.5 10.5q11 12 60 100t75 106q-68 -239 -101 -286q-43 -49 -108 -49q-26 0 -55 8q-117 37 -164 155q-7 22 -22.5 63t-18.5 50q-36 -63 -45 -82q-3 -5 -3 -12t3 -10q8 -12 10.5 -25 t1 -21.5t-6 -25t-5.5 -23.5q-20 -83 -33 -157q-21 -6 -42.5 -7.5t-45 3t-39.5 9t-41 13.5q-16 7 -20 33zM244 387q100 64 185.5 200.5t129.5 264.5q-46 -22 -87 -63.5t-62 -73.5t-54 -88q-2 -3 -17 -28t-24.5 -42t-25 -45.5t-24.5 -49t-15.5 -41.5t-5.5 -34z" />
<glyph unicode="l" horiz-adv-x="483" d="M0.5 155q2.5 33 1.5 44q-1 28 -1 57q0 174 50 406q61 273 78 331q44 152 115 275q26 50 73 53q48 4 87 5q64 0 102 -13q30 -9 35.5 -18t-0.5 -40l-72 -319q-3 -17 -14.5 -47t-14.5 -41q-50 -151 -84 -235.5t-88 -170.5q-9 -15 -24.5 -38.5t-21 -33t-10.5 -24t-5 -27.5 q0 -69 -4 -104q-25 -244 -25 -324q0 -2 10 -12l21 -10q1 1 27 33t53.5 65.5t52 64.5t25.5 34q12 18 31.5 51.5t30 50t28 39.5t36 40t42.5 32q-22 -70 -43.5 -119.5t-57.5 -111.5l-35 -62q-14 -53 -72.5 -115t-107.5 -68q-11 -1 -22 -1q-85 0 -134 71q-16 23 -27 56t-15 58 t-10 66.5t-9 59.5q-4 9 -1.5 42zM209 455q2 0 5 -1t5 -1l10 16q140 258 215 655q1 3 2.5 13t2 14t2 13.5t1.5 14.5t-0.5 13t-1.5 14t-3.5 13.5t-6.5 13.5q-16 1 -27 -6.5t-14.5 -15.5t-7.5 -23q-12 -43 -26 -84q-13 -37 -42 -109.5t-42 -109.5q-15 -43 -31 -123 q-15 -78 -29 -182q-1 -7 -12 -125z" />
<glyph unicode="m" horiz-adv-x="1067" d="M2 244q4 50 4 73l3 12q3 12 5 24t0 16q20 119 23 223v35q19 10 43.5 12.5t36 1.5t45 -8t37.5 -8q17 -4 21 -18t5 -40q-2 -29 -12 -262l43 53l162 179q48 51 114 51q29 0 62 -10q12 -38 14 -84q1 -16 1 -30q0 -29 -3 -54q-4 -37 -9.5 -89t-6.5 -88l37 33q17 20 82.5 93.5 t89.5 103.5q23 45 75 75q39 22 68 22q11 0 21 -3q32 -11 26 -47q-29 -168 -51 -285q-6 -33 -7 -60q0 -45 17 -77q14 9 37 34.5t31 31.5q60 89 112 122q-8 -43 -18.5 -72t-29 -65.5t-25.5 -52.5q-59 -60 -128 -60q-63 0 -136 50q-12 28 -12 65q0 18 3 38q8 62 25.5 114 t34.5 99t16 57q-15 -15 -92 -130t-80 -118l-92 -101q-13 -13 -29 -16h-6q-37 0 -79 32q-45 35 -48 74q-1 36 -1 48.5t2.5 49t2.5 48.5q0 6 17 172q-48 -33 -91 -115q-18 -33 -58.5 -89.5t-55.5 -82.5q-9 -16 -34 -44t-28 -32q-8 -10 -18.5 -32.5t-19.5 -30.5t-25 0l-39 16 q-52 22 -70 54q-13 23 -14 63q0 14 2 29z" />
<glyph unicode="n" horiz-adv-x="669" d="M0 125v8q0 41 9 133q10 100 20 181l10 81q5 5 7.5 12t3.5 23t1 17q-2 20 4.5 54t14.5 42q9 3 33 4t50 -11.5t29 -33.5l4 -80q-8 -19 -7.5 -55t-0.5 -58q-2 -19 -9.5 -54.5t-8.5 -41.5l10 -8q2 2 14 12t17 17q90 134 229 251q29 26 68 35q27 6 44.5 -4t39.5 -37 q28 -38 29 -83q0 -18 -5 -37q-5 -22 -24.5 -132.5t-40.5 -166.5q-8 -21 -11 -34t2.5 -34t24.5 -39q63 49 172 190q1 -13 1 -26q0 -127 -73 -209q-37 -33 -75 -39q-11 -2 -20 -1q-26 0 -50 10q-33 14 -72 46q-24 17 -28 47q-10 49 -13.5 72t0 61.5t19.5 67.5l55 117 q25 59 25 114q0 21 -4 42q-45 -39 -50 -46q-13 -21 -69 -104.5t-79 -120.5t-60 -104t-62 -125q-6 -13 -19.5 -35.5t-17.5 -30.5h-6q-52 0 -90 30q-40 32 -41 83z" />
<glyph unicode="o" horiz-adv-x="499" d="M0 334l12 131q27 171 111 356l18 31q19 43 66 43q13 0 29 -4q110 -27 151 -35q0 -2 1 -6t1 -6q-11 -8 -31.5 -20t-36.5 -23t-28 -23q-42 -45 -42 -89q0 -6 1 -13q110 -21 192 -33l39 -166q-1 -28 -23 -77t-32 -93l-22 -98q8 -8 16 -8h1q19 0 61 30q43 31 77 45 q-14 -67 -59 -102q-24 -21 -37.5 -29t-33.5 -12t-40 6q-4 0 -6 2q-12 -48 -29 -88q-18 -50 -46.5 -80.5t-78.5 -31.5h-9q-87 0 -165 57q-52 37 -55 104v195q0 6 -1 18.5t-1 18.5zM143 158v-11q0 -42 13 -110q2 -11 10.5 -23.5t17.5 -15.5q14 -6 39 14q16 13 23 33 q34 79 69 195l-6 26q-11 38 -13 102q0 13 -1 27q0 53 8 111q-51 64 -51 133q-10 0 -16 2q-2 -3 -8 -11t-7 -12q-68 -202 -78 -460z" />
<glyph unicode="p" horiz-adv-x="763" d="M-45 -129q2 21 18.5 95.5t24.5 125.5q1 6 3 46t3 48q2 20 18 106t21 157l8 141q0 20 -8 33q-9 23 0.5 43t32.5 24q14 4 43 4q36 0 55 -1t38 -6.5t27 -13t16 -26t11 -40.5t6 -60q1 -39 0.5 -52.5t-4 -56.5t-4.5 -65q1 2 29 39q3 5 38.5 60t55.5 83q88 120 240 120 q11 0 22 -1q33 -2 64 -30.5t35 -65.5v-14q0 -31 -6 -86q-7 -70 -17 -91q-12 -58 -54 -121t-104 -116q-90 -81 -154 -81q-33 0 -59 21q-18 18 -4 29q2 10 11 22.5t22.5 27t17.5 19.5q86 84 135.5 166t61.5 191q2 9 -2 31.5t-16 35.5q-7 -4 -17.5 -8t-18 -8t-12.5 -8 q-54 -40 -151 -162t-150 -213q-50 -155 -77 -317q-5 -36 -5 -67q0 -44 11 -77q16 -45 45 -45q6 0 12 2q7 3 11.5 -9t4 -27t-7.5 -19q-60 -31 -112 -31q-49 0 -90 27q-37 24 -55 60q-16 34 -16 71q0 18 3 90z" />
<glyph unicode="q" horiz-adv-x="745" d="M0 205l12 110q23 37 31 72q12 52 36 114t39.5 93t53.5 106q1 0 2 2t2 3q18 56 53.5 85t79.5 32q18 2 38 2q28 0 59 -3q14 -2 39.5 -4t39.5 -4q15 -4 56 -18q-17 -21 -34 -27t-42 -4h-6q-116 0 -160 -117q-10 -27 -111 -272q-14 -38 -18 -108.5t-8 -90.5l16 -6 q51 51 68 74q117 156 194 266q4 6 15 27q20 40 31 45.5t55 -0.5q55 -9 71 -13q40 -14 52 -36t2 -62l-13 -59l-39 -129q10 -1 17.5 -12.5t12.5 -24.5t12.5 -22.5t17.5 -8.5q56 8 129 61q2 -3 3.5 -9.5t-11.5 -31.5t-47 -57q-2 -2 -17 -9.5l-28 -14t-13 -9.5q-3 -129 -9 -207 t-24 -186q-33 -205 -67 -332q-18 -70 -72 -159q-41 -67 -121 -67q-10 0 -20 1q-93 8 -153 74q-56 62 -56 145v11q9 149 33 292q5 31 13.5 61.5t24 75t19.5 58.5l68 217l6 37q-10 1 -18.5 -2t-12 -7t-10 -12.5t-8.5 -11.5q-47 -57 -109 -64q-9 -1 -17 -1q-53 0 -102 41 q-11 9 -19.5 22.5t-19.5 38t-16 35.5zM384 -595q-1 -11 4 -35t8 -34.5t10 -34.5t10 -34q0 -3 2.5 -5.5t7.5 -7t8 -8.5q4 6 11.5 16l12 16t9.5 15t8 17q27 75 43 139q50 191 73 349t27 352q0 5 -10 40h-18q-32 -66 -35 -75q-7 -21 -20.5 -64t-25 -76t-24.5 -63 q-8 -19 -14.5 -36t-12.5 -35t-10 -29t-8.5 -31t-7 -27.5t-7 -31t-6 -30.5t-6.5 -37t-7 -38q-4 -28 -10.5 -87.5t-10.5 -88.5q0 -25 -1 -36z" />
<glyph unicode="r" horiz-adv-x="604" d="M2 72q-1 19 1 38.5t7 51.5t6 39l9 71q35 260 41 299q1 40 7.5 80t21 101t18.5 79q9 38 24 48t56 4q34 -6 51.5 -14t36.5 -27q-37 -128 -53 -230q-8 -50 -7 -101q0 -52 8 -105l84 137q10 16 33 55.5t36.5 60.5t36.5 50t48 49q41 32 61 37q20 6 38 6q47 0 79 -41 q20 -23 20 -53q0 -24 -12 -52q-28 -70 -71 -194q-3 -9 -23 -45t-24 -49v-43q-34 0 -48 6q-53 17 -67 42q-6 11 -5 28q0 21 9 51q2 7 68 196l18 60q-33 -8 -53 -45q-121 -186 -176 -377q-13 -49 -76 -222q-9 -23 -9 -43q0 -28 17 -49q-41 -26 -81 -26q-29 -1 -58 13 q-69 32 -72 114z" />
<glyph unicode="s" horiz-adv-x="626" d="M0 172q5 12 9.5 29t11.5 47t14 55q32 100 119 326q0 2 -2 4q24 17 55 17t67 -17q173 -75 215 -230q23 -80 23 -164q0 -49 -8 -100q12 2 23.5 6t20.5 8t21.5 13t20 14.5t22.5 19.5t22 21t26 25.5t28 27.5q0 -50 -18.5 -93t-48 -71.5t-60.5 -46.5t-63 -26q-35 -85 -82 -131 t-135 -60q-47 -8 -83 -8q-56 0 -88 18q-53 30 -59 121q-1 9 -1 18q0 42 19 80q23 46 66 64q24 11 52 11t62.5 -4t61.5 -1q3 16 3.5 36t0 33t-2 37.5t-1.5 33.5q0 114 -61 229q-20 30 -27 37q-24 -74 -69 -150q-3 -6 -14 -26t-16 -28t-15.5 -27t-17.5 -29.5t-19 -28 t-22 -30.5t-23 -29t-27 -31zM127 -75q17 -23 41 -25q9 -2 19 -2q43 0 79 38q44 46 47 130q-22 4 -70.5 9.5t-62.5 8.5q-4 1 -8 1q-30 0 -45 -32q-19 -35 -19 -67q0 -36 19 -61z" />
<glyph unicode="t" horiz-adv-x="321" d="M-219 975q10 9 35.5 12t56 3t39.5 1q16 4 61.5 15t69.5 16q12 4 16 4q11 161 19 182q4 18 2 27q-3 15 -3 30q0 51 32 97q4 7 8 29q2 8 3.5 28.5t4.5 30.5q6 23 20 65t17 52q25 5 54 5q45 0 99 -13q36 -9 39 -52q3 -19 0 -37q-46 -326 -53 -380l-4 -33q28 3 91 13.5 t97 12.5q0 14 8 17.5t20 -0.5t22 -10t16 -11q17 -14 16.5 -26.5t-9.5 -20t-28 -18.5q-26 -15 -61.5 -27t-58.5 -17t-70.5 -13t-60.5 -11q-5 0 -7 -2q-15 -58 -53 -186q-56 -218 -56 -293q0 -17 3 -27q5 -13 2 -30q-3 -19 -9 -53t-10 -62.5t-6 -52.5v-10q0 -70 37 -146 q5 5 11.5 11t11 10t9 9.5t7.5 10.5q15 14 55.5 48t64 58.5t38.5 51.5q-2 -12 -6 -32t-21 -68t-41 -79q-37 -71 -101 -118q-38 -28 -72 -28q-23 0 -44 13q-6 4 -16 28.5t-19 52t-12 32.5q-33 76 -33 146q0 17 2 34q4 28 4 60v23q0 25 -1 53q-1 44 -1 59q1 18 3 73.5t3.5 94 t6 95t10.5 103.5q3 11 12 99h-8q-23 0 -66 -1t-78 -1t-65 2q-24 2 -48.5 17t-4.5 34z" />
<glyph unicode="u" horiz-adv-x="735" d="M0 96q1 31 3 66t5 77t4 66q2 14 2 49l52 166q4 14 29 99.5t40 130.5q17 55 28.5 64.5t67.5 12.5q20 1 35 1q26 0 43 -3q26 -5 68 -28l-19 -35q-2 -4 -6.5 -11.5t-7.5 -14t-4 -11.5q-8 -55 -22 -115t-34.5 -134.5t-29.5 -113.5q-2 -9 -25 -145q-4 -37 -10 -55 q-10 -30 -10 -60q0 -33 12 -67q7 4 13 9.5t10 10t9 13.5t7 13t6.5 15t5.5 13q25 55 72 166.5t72 166.5q2 4 10.5 22t11.5 24t9.5 21.5t9.5 24.5t7 23t6 26t3 25q1 10 6 21t14 25.5t13 21.5q18 -2 48.5 1t58.5 2t53 -13l-27 -68q-3 -8 -10.5 -28.5t-11.5 -35t-5 -28.5 q-6 -129 -6 -258q1 -24 9.5 -71t9.5 -56l-4 -15q6 3 12 9q98 104 164 159q-22 -62 -40.5 -104t-27.5 -58t-31 -53q-36 -44 -98 -44q-30 0 -65 10q-82 24 -91 110q-4 57 -18 86q-18 -31 -23 -45q-5 -13 -15.5 -38t-18.5 -45t-13 -38q-16 -56 -72 -89q-49 -29 -107 -29 q-9 1 -17 1q-68 4 -117 48q-43 40 -43 102v8z" />
<glyph unicode="v" horiz-adv-x="602" d="M0 238q0 33 2.5 84t5.5 86l2 34q3 54 16 108t13 62q-1 28 11 39t40 6q84 -18 113 -26q4 0 24 -10q3 -14 3 -28q0 -19 -5 -37q-8 -34 -30.5 -101t-38.5 -133q-9 -42 -9 -89q-1 -53 11 -111q22 -110 65 -130q12 13 46 78.5t40 79.5l39 79q13 24 13 57q0 21 -5 44 q-8 37 -8 68q0 76 47 126q22 26 39 23q8 0 150 -17l-82 -211q-8 -18 -29 -55q3 -60 21 -81.5t47 -14.5q18 4 36 20t44.5 47.5t42.5 47.5q-11 -103 -55 -159t-93 -58h-2q-27 0 -55 26q-29 27 -45 66q-99 -181 -117 -219q-17 -39 -53 -39q-9 0 -19 2q-47 10 -78 22q-6 2 -26 7 t-30.5 9t-22.5 12.5t-15 20.5q-10 18 -20.5 81t-18.5 89q1 16 -6.5 47t-7.5 48z" />
<glyph unicode="w" horiz-adv-x="839" d="M2 147q1 26 4 100.5t6 138t6 101.5v7q5 25 18.5 122.5t18.5 122.5q21 77 43 89q8 4 21 4q29 0 86 -15q13 -3 26.5 -8t33 -13.5t30.5 -13.5q-3 -6 -6.5 -14.5t-6 -13t-5.5 -9.5t-7 -8q-46 -38 -46 -91q0 -21 7 -44q0 -2 1 -6t1 -6.5t-2 -3.5q-23 -28 -31.5 -64.5 t-11 -86.5t-6.5 -73q-20 -111 -41 -274q-6 -13 -3 -29.5t24 -31.5l43 86q163 363 217 479q14 30 41 30q25 0 61 -26q-11 -129 -11 -247q0 -139 15 -265q3 0 8.5 -1t8.5 -1l14 33q26 115 34 139t56 131q8 18 11.5 40.5t5.5 53.5t4 45l10 70q6 32 43 35q18 4 41 2t35 -19 q19 -26 19 -56q0 -16 -5 -32q-31 -90 -47 -168q-4 -20 5 -54.5t26 -45.5q15 -15 35 -15q29 0 69 31q-9 -44 -41 -73t-49 -29q-6 0 -27 16.5t-39 33.5l-18 16q-4 -13 -11.5 -67t-15.5 -95q-12 -52 -49 -80q-31 -23 -72 -23q-7 0 -15 1q-50 5 -95 42q-42 36 -45 101l-4 151 q-1 19 -7 55t-7 46q-3 0 -8 1t-7 1q-54 -147 -55 -150q-7 -22 -29.5 -97.5t-36.5 -115.5q-19 -49 -50 -60q-10 -4 -23 -4q-25 0 -60 15q-78 33 -127 115q-9 16 -9 50q0 11 1 25z" />
<glyph unicode="x" horiz-adv-x="571" d="M0 170q7 16 17 60t18 71q63 203 112 324q1 29 16 40.5t46 8.5q47 -5 76.5 -33.5t36.5 -77.5q17 -163 30 -217q10 11 27.5 29.5t28 31t18.5 25.5q9 13 31.5 57.5t45.5 73t48 31.5q9 1 12 -7.5t-1 -25.5t-9 -33.5t-14 -42.5t-13 -41q-43 -53 -125 -159q-19 -23 -16 -37 q7 -41 47 -246q0 -2 1.5 -3.5t5.5 -4.5t7 -6q5 5 68 115.5t98 152.5q15 20 21 23q-13 -99 -51 -203.5t-86 -155.5q-27 -32 -56 -39.5t-59 10t-54.5 40.5t-58.5 63l-32 39l-78 -96q-19 -19 -35 -19q-7 0 -21 -1t-21 -0.5t-15.5 2.5t-13 8.5t-5.5 17.5q-3 28 14 49 q22 29 64.5 82t48.5 61q33 40 33 87q0 16 -4 34q-4 13 -9.5 41.5t-11.5 60.5t-8 41l-4 27l-16 -29q-3 -6 -14 -26t-16 -28t-15.5 -27t-17.5 -29.5t-19 -28t-22 -30.5t-23 -29t-27 -31z" />
<glyph unicode="y" horiz-adv-x="811" d="M-12.5 196.5q2.5 32.5 2.5 42.5t5 43t6.5 43t7 42.5t7.5 42.5q7 39 15 59t24 33t41 11t66 -17q30 -10 45 -23.5t17 -32t-1 -35.5t-9.5 -45t-8.5 -49q-6 -47 -13.5 -133.5t-9.5 -105.5q-6 -51 -6 -74q0 -11 1 -16q5 -20 23 -20q17 0 46 18q11 7 21 18t21.5 28.5t17.5 27.5 t17.5 32.5t12.5 24.5q60 99 100 190q13 27 27.5 84t25.5 82q19 41 55 54q19 7 37 7t35 -6q34 -13 59 -48q23 -32 23 -74v-7q-1 -18 -7.5 -44.5t-12.5 -46t-6 -43.5t10 -42q13 -24 29.5 -30.5t36.5 3t38.5 23.5t43 33t42.5 28q-22 -65 -69.5 -143.5t-52.5 -103.5 q-5 -26 -5 -62q0 -43 7 -100q10 -90 10 -133v-13q-1 -17 -2 -61t-3 -76.5t-5.5 -82.5t-10.5 -88t-17.5 -83t-27 -77.5t-38 -61.5t-52 -45t-67.5 -18q-9 -1 -17 -1q-55 0 -96 24q-46 27 -68.5 79.5t-32.5 119.5q-6 42 -6 90q0 29 2 60q6 83 16.5 164.5t29 168t34 155 t30.5 132.5t20 93q-11 -20 -40 -84t-51.5 -108t-61 -87.5t-79.5 -52.5q-20 -5 -39 -5q-24 0 -46 8q-38 14 -63.5 43t-44 69.5t-27.5 80.5t-11 79q-3 10 -0.5 42.5zM507 -566v-12q0 -51 7 -88q8 -43 26 -84t48 -67q36 67 58.5 151t31.5 182.5t11.5 168.5t2.5 172 q0 4 0.5 27.5t1 46.5t0 54.5t-3 58t-6.5 49.5t-12 35.5t-19 10.5q-10 -2 -22.5 -32t-23.5 -76t-19.5 -88.5t-16 -84t-8.5 -46.5q-11 -49 -18 -79t-18 -91.5t-15 -105t-5 -102.5z" />
<glyph unicode="z" horiz-adv-x="659" d="M0 170q7 16 17 60t18 71q55 177 145 262q0 2 2 2h17q8 1 36 -3.5t33 -4.5q21 2 58 2.5t49 1.5q36 3 56 3q12 0 18 -1t18.5 -6t15.5 -6l23 -4q20 14 44 14q15 0 32 -6q43 -15 43 -73q0 -11 -2 -25q-79 -82 -183 -197t-166 -180q-42 -50 -92 -90q51 -22 97 -29q9 -1 31 -5 t29.5 -5t26.5 1t34.5 9.5t40 21.5t55.5 37q13 14 38 42t39 42q15 20 35 42.5t53 58.5t60 67q-18 -146 -117 -295q-21 -30 -84 -81q-32 -30 -80 -39q-20 -4 -42 -4q-31 -1 -67 7q-61 12 -102 25t-100 35q-6 -1 -14.5 -2t-12 -1.5t-9 -0.5t-9.5 2t-10.5 5t-14.5 9 q-11 8 -11.5 36.5t11.5 37.5q-1 8 -1 16q0 49 51 101q54 54 153.5 162t120.5 131q25 33 72 80q-15 0 -44 2t-42 2q-21 0 -60.5 1t-58.5 1h-17q-36 -46 -75 -115q-65 -117 -158 -217z" />
<glyph unicode="{" horiz-adv-x="757" d="M0 461q5 19 15.5 30t18.5 14t27 7q119 23 175 86q46 49 55 127q5 37 19.5 107.5t19.5 107.5q4 11 2.5 56t-0.5 57q9 181 106 424q33 83 117 77q100 -7 172 -73q-3 -2 -11 -10t-12.5 -11t-9.5 -2q-37 8 -58 -12t-34 -66q-86 -323 -102 -499q-12 -139 -70 -265 q-10 -22 -23.5 -43.5t-32.5 -48.5t-28 -41q0 -6 8 -14q48 -25 62 -69t14 -115q0 -99 12 -291q1 -24 7.5 -48t13 -40t21.5 -40.5t22 -34.5t28 -37.5t27 -35.5l246 199q-2 -32 -13 -60t-22 -43.5t-31 -39.5q-41 -46 -43 -50q-39 -62 -103.5 -78.5t-129.5 14.5t-107 99 q-82 132 -88 279q-4 154 -8 235q0 16 -2.5 46t-3.5 40q-45 12 -77 8t-72.5 -1t-71.5 22q-7 4 -18.5 16.5t-16.5 16.5z" />
<glyph unicode="|" horiz-adv-x="425" d="M117 -193q-4 167 14 285q36 241 29 406q-7 221 12 368q11 78 20.5 161.5t21 204.5t15.5 163q3 31 13 75q9 46 63 23q-8 -266 -16 -397q-5 -70 -23 -277t-24 -321q-2 -73 -1 -105t5.5 -106t5.5 -105q0 -3 1.5 -13.5t0.5 -16.5l-27 -414q-49 -18 -79 -0.5t-31 69.5z" />
<glyph unicode="}" horiz-adv-x="694" d="M14 -252q1 19 9 30.5t16.5 14.5t23.5 6q94 7 207 74q50 35 60 45q36 33 14 94q-16 43 -31 93t-32.5 110.5t-28.5 95.5q-16 43 16 62l127 84q-6 5 -13.5 12.5t-13 12t-10.5 7.5q-7 4 -28 12t-31 15q-50 33 -60 70t11 96q11 32 24.5 97t16.5 77l129 514q11 57 16 76 q-11 1 -40 6.5t-44 5.5q-17 0 -60 -2.5t-67 -1.5q-14 1 -40.5 10.5t-39.5 12.5q21 41 25 41q144 16 202 13q91 -7 165 -46q69 -35 83 -74.5t-14 -118.5q-14 -40 -47.5 -115.5t-48.5 -115.5q-14 -39 -35 -116t-24 -87l-13 -41v2l-28 -147l-15 -82q8 -31 28.5 -40t57.5 -9 q53 -3 121 -27q8 -2 16.5 -8.5t21 -19.5t19.5 -19q-6 -5 -13 -12.5t-12 -12t-9 -6.5q-103 -40 -168 -88q-91 -72 -23 -155q7 -9 12.5 -18.5t9.5 -16.5t7 -19t4.5 -17t2.5 -19.5t1.5 -17.5t1 -20t0.5 -18q4 -98 0 -147q0 -15 -6.5 -32t-15.5 -24q-84 -77 -164 -98 q-18 -4 -52.5 -18t-62.5 -20t-55 -1q-6 1 -20.5 3t-22.5 3.5t-20 5.5t-21.5 11t-18.5 18zM352 219l6 2l-6 4v-6zM375 655l4 -4v6zM551 1409l2 -2v4z" />
<glyph unicode="~" horiz-adv-x="911" d="M68 344q-7 20 0 43q28 68 106 119q59 42 168 33q128 -11 233 -82q30 -21 70 -37q41 -18 80 -2q45 18 78 26q19 10 43 5q6 -3 6.5 -12t-2.5 -13q-18 -28 -47 -53q-24 -19 -111 -72q-20 -12 -78 -16t-75 2q-137 36 -174 88q-33 38 -115 45q-13 1 -33.5 -6.5t-28.5 -16.5 q-11 -8 -27.5 -29t-29.5 -30q-3 -4 -37 -21q-2 2 -7 6l-7.5 6t-5.5 5t-4.5 6t-1.5 6z" />
<glyph unicode="&#xa2;" horiz-adv-x="647" d="M51 154q-46 214 82 448q38 69 125 92l117 33l-19 156q57 2 82 -16.5t31 -65.5v-6q-3 -100 94 -133q52 -12 64 -60l-70 16q-30 3 -70 3q-39 -495 -41 -525q18 -3 40.5 3.5t39.5 14t38 6.5t40 -16q0 -9 -2.5 -16t-9 -13t-11 -9t-14 -8t-12.5 -7q-51 -31 -84 -35 q-28 -6 -37.5 -21t-7.5 -40q0 -7 -0.5 -19.5t-0.5 -22.5t1 -19q6 -56 -39 -91q-68 20 -81.5 42t-12.5 106q-102 40 -123 49q-95 44 -119 154zM219 195q0 -13 2.5 -29t6 -27t9 -29.5t7.5 -27.5q10 -34 49 -23q1 7 2.5 46.5t7.5 58.5q17 51 26 108t15.5 132t11.5 110 q2 11 2 70q-62 -13 -75 -54q-21 -76 -31 -115t-21 -102.5t-12 -117.5z" />
<glyph unicode="&#xa3;" horiz-adv-x="598" d="M-39 385q15 0 40 1t36 1q52 1 63.5 11t20.5 63l43 227l8 29q15 35 31.5 39.5t54.5 -15.5q85 -43 158 -86q3 -1 5 -4t5.5 -11t5.5 -13l-131 37q-17 -47 -20.5 -137t-6.5 -111q16 -3 58.5 -3.5t72 -9t56.5 -34.5q-12 -4 -31 -12.5t-29 -10.5q-31 -8 -67 -8q-44 1 -62 -22.5 t-20 -67.5v-189q46 -5 51 -4q86 4 131 15q6 2 12.5 2.5t12 1t12 -1t11 -2t11.5 -3t10.5 -4t11.5 -5.5l10 -5t11 -6t11 -6q14 -9 14 -25q-2 -5 -8 -10.5t-12 -5.5q-41 1 -86.5 -6t-76.5 -16t-81.5 -25t-75.5 -23q-32 -8 -58.5 2.5t-58.5 34.5q-8 6 -16 15.5t-19 25t-16 21.5 q47 32 27 96q-3 17 -2.5 26t4 26.5t4.5 25.5l4 65q-15 11 -53.5 36t-59.5 40q-4 3 -6 8.5t-4.5 15.5t-5.5 17z" />
<glyph unicode="&#xa5;" horiz-adv-x="602" d="M18 205q19 16 77 7.5t77 -3.5q9 38 4.5 48t-39.5 30l-57 35q0 21 8 30.5t29 12.5q10 2 34.5 2t41.5 5t30 19l-176 260q-28 40 -24 53.5t47 22.5l63 12l6 -2h-2l205 -317q5 5 10.5 10t9 8t5.5 6q13 22 45.5 78.5t50.5 85.5q32 53 58 54t97 -48q-16 -8 -30.5 -19.5t-25 -20 t-24 -25.5t-19.5 -24t-19.5 -30t-16.5 -27.5t-18 -32t-16 -29.5q16 -10 59 -19t63 -31q-5 -17 -20 -22.5t-30.5 -3t-31.5 -0.5l-92 -13l6 -94q83 -8 134 -10q17 -29 14 -40.5t-31 -14.5l-96 -13q-33 -4 -46 -25.5t-13 -58.5q0 -56 -3 -75q-12 -67 -77 -23q-63 41 -72 92 q-1 10 -20 70q-18 9 -55 14t-67.5 18t-52.5 48z" />
<glyph unicode="&#xa8;" horiz-adv-x="471" d="M0 887q-1 35 19.5 60t54.5 30q33 0 39 -8q52 -60 69 -99q13 -29 -18 -58.5t-72 -29.5q-35 1 -62.5 33t-29.5 72zM299.5 845.5q-4.5 21.5 0.5 46.5t24 46q7 8 16 16t22 18t21 17q10 -9 27 -24t30.5 -27.5t24.5 -24.5q22 -20 20 -31.5t-30 -23.5l-29 -8l14 -86l-30 -6 q-20 -1 -37.5 -2t-33 8.5t-24.5 30.5q-11 29 -15.5 50.5z" />
<glyph unicode="&#xad;" horiz-adv-x="647" d="M50.5 396.5q10.5 9.5 68.5 -3.5q53 -12 106.5 -14t127 2t108.5 4q37 -1 57.5 -19.5t36.5 -52.5q4 -8 6.5 -18t4 -25.5t3.5 -25.5q-53 -1 -137 4t-131 6.5t-129 -6.5q-52 -7 -78 3t-39 52l-4 25q-11 59 -0.5 68.5z" />
<glyph unicode="&#xb4;" horiz-adv-x="221" d="M3 783.5q-6 13.5 1 41.5q6 24 19 47q60 96 65 175q0 6 4 14l10 8q13 -6 25 -14t24.5 -20t19 -19.5t20.5 -24.5t18 -22l-176 -213q-24 14 -30 27.5z" />
<glyph unicode="&#xb8;" horiz-adv-x="335" d="M-100 -436l288 84q-10 5 -21 10t-17 7.5t-11 4.5q-52 19 -66.5 59t13.5 87q62 101 74 118q25 35 46.5 39.5t55.5 -20.5q7 -4 14 -10.5t17 -17.5t14 -15q-94 -65 -170 -176l6 -17q61 5 78 7q71 9 119 -48q22 -26 19 -51.5t-29 -44.5q-36 -27 -57.5 -41t-58 -28t-71.5 -15 q-25 -1 -53 -7t-61 -16t-52 -14q-22 -4 -28 2q-4 7 -22 27t-25 37t-2 39z" />
<glyph unicode="&#xc0;" horiz-adv-x="864" d="M0 281q0 157 8 282q7 119 29 311q15 147 33 232q5 23 14.5 49t22 57t18.5 48q14 40 46.5 56t72.5 11q46 -6 254 -51q19 -6 39 -29q5 -5 7 -15t-1 -15q-3 -6 -14 -10.5t-17 -2.5q-18 4 -51.5 16.5t-46.5 16.5q-64 20 -101.5 -6t-42.5 -94q-2 -26 -4.5 -122t-9.5 -147 q-4 -32 -7.5 -100t-10.5 -120t-23 -99q-4 -12 -5 -26.5t-0.5 -24t2 -29t1.5 -25.5q4 -130 20 -217q13 25 13 27q7 23 37.5 126t48.5 157q45 131 139 393q6 16 15.5 49t15.5 49q12 36 35 45q64 28 125 -2q18 -11 22 -39q13 -103 2 -282q-7 -121 -8.5 -230.5t14.5 -229.5 t51 -227q2 -5 6.5 -24.5t8 -27.5t12.5 -20.5t23 -19.5q6 -3 6.5 -21t-2.5 -28q-10 -31 -41 -31q-34 0 -77.5 28.5t-55.5 60.5q-3 7 -18.5 48.5t-19.5 53.5t-16 47.5t-16.5 54t-11.5 48.5t-10.5 56t-4.5 52l-16 410q-1 17 -6 49t-6 39h-11q-44 -141 -51 -172 q-29 -127 -57 -304q-6 -36 -15.5 -108.5t-15.5 -108.5q-10 -86 -26 -151q-11 -40 -32.5 -55t-62.5 -11q-69 4 -108 17q-54 21 -86 106q-33 84 -33 230zM336 1702q-12 28 22 51q21 18 48 4q13 -8 17.5 -11t14 -10.5t14 -15.5t7.5 -18t12 -19q19 -19 31 -46.5t16 -44.5 t9.5 -56t7.5 -49q0 -3 -7 -14q-8 0 -8 2q-17 23 -59 56t-58 52q-24 32 -67 119z" />
<glyph unicode="&#xc1;" horiz-adv-x="864" d="M0 281q0 157 8 282q7 119 29 311q15 147 33 232q5 23 14.5 49t22 57t18.5 48q14 40 46.5 56t72.5 11q46 -6 254 -51q19 -6 39 -29q5 -5 7 -15t-1 -15q-3 -6 -14 -10.5t-17 -2.5q-18 4 -51.5 16.5t-46.5 16.5q-64 20 -101.5 -6t-42.5 -94q-2 -26 -4.5 -122t-9.5 -147 q-4 -32 -7.5 -100t-10.5 -120t-23 -99q-4 -12 -5 -26.5t-0.5 -24t2 -29t1.5 -25.5q4 -130 20 -217q13 25 13 27q7 23 37.5 126t48.5 157q45 131 139 393q6 16 15.5 49t15.5 49q12 36 35 45q64 28 125 -2q18 -11 22 -39q13 -103 2 -282q-7 -121 -8.5 -230.5t14.5 -229.5 t51 -227q2 -5 6.5 -24.5t8 -27.5t12.5 -20.5t23 -19.5q6 -3 6.5 -21t-2.5 -28q-10 -31 -41 -31q-34 0 -77.5 28.5t-55.5 60.5q-3 7 -18.5 48.5t-19.5 53.5t-16 47.5t-16.5 54t-11.5 48.5t-10.5 56t-4.5 52l-16 410q-1 17 -6 49t-6 39h-11q-44 -141 -51 -172 q-29 -127 -57 -304q-6 -36 -15.5 -108.5t-15.5 -108.5q-10 -86 -26 -151q-11 -40 -32.5 -55t-62.5 -11q-69 4 -108 17q-54 21 -86 106q-33 84 -33 230zM332.5 1500.5q-5.5 13.5 1.5 41.5t18 47q61 98 66 174q0 7 4 15l10 8q13 -6 25 -14t24.5 -20t19 -19.5t20.5 -24.5 t18 -22l-177 -213q-24 14 -29.5 27.5z" />
<glyph unicode="&#xc2;" horiz-adv-x="864" d="M0 281q0 157 8 282q7 119 29 311q15 147 33 232q5 23 14.5 49t22 57t18.5 48q14 40 46.5 56t72.5 11q46 -6 254 -51q19 -6 39 -29q5 -5 7 -15t-1 -15q-3 -6 -14 -10.5t-17 -2.5q-18 4 -51.5 16.5t-46.5 16.5q-64 20 -101.5 -6t-42.5 -94q-2 -26 -4.5 -122t-9.5 -147 q-4 -32 -7.5 -100t-10.5 -120t-23 -99q-4 -12 -5 -26.5t-0.5 -24t2 -29t1.5 -25.5q4 -130 20 -217q13 25 13 27q7 23 37.5 126t48.5 157q45 131 139 393q6 16 15.5 49t15.5 49q12 36 35 45q64 28 125 -2q18 -11 22 -39q13 -103 2 -282q-7 -121 -8.5 -230.5t14.5 -229.5 t51 -227q2 -5 6.5 -24.5t8 -27.5t12.5 -20.5t23 -19.5q6 -3 6.5 -21t-2.5 -28q-10 -31 -41 -31q-34 0 -77.5 28.5t-55.5 60.5q-3 7 -18.5 48.5t-19.5 53.5t-16 47.5t-16.5 54t-11.5 48.5t-10.5 56t-4.5 52l-16 410q-1 17 -6 49t-6 39h-11q-44 -141 -51 -172 q-29 -127 -57 -304q-6 -36 -15.5 -108.5t-15.5 -108.5q-10 -86 -26 -151q-11 -40 -32.5 -55t-62.5 -11q-69 4 -108 17q-54 21 -86 106q-33 84 -33 230zM243.5 1575q-2.5 25 26.5 53q28 25 166 152q3 3 11.5 8.5t11.5 7.5l28 -14q47 -20 64.5 -42.5t23.5 -68.5q1 -9 17 -63 q29 -84 35 -107q2 -4 2 -28q-11 3 -19 8t-13.5 12.5t-8 13t-6.5 15.5l-39 96q-2 8 -12 24t-13 23l-80 -66q-8 -7 -34 -26.5t-39 -30.5q-6 -5 -14.5 -18.5t-10.5 -16.5q-24 -29 -59 6q-35 37 -37.5 62z" />
<glyph unicode="&#xc3;" horiz-adv-x="864" d="M0 281q0 157 8 282q7 119 29 311q15 147 33 232q5 23 14.5 49t22 57t18.5 48q14 40 46.5 56t72.5 11q46 -6 254 -51q19 -6 39 -29q5 -5 7 -15t-1 -15q-3 -6 -14 -10.5t-17 -2.5q-18 4 -51.5 16.5t-46.5 16.5q-64 20 -101.5 -6t-42.5 -94q-2 -26 -4.5 -122t-9.5 -147 q-4 -32 -7.5 -100t-10.5 -120t-23 -99q-4 -12 -5 -26.5t-0.5 -24t2 -29t1.5 -25.5q4 -130 20 -217q13 25 13 27q7 23 37.5 126t48.5 157q45 131 139 393q6 16 15.5 49t15.5 49q12 36 35 45q64 28 125 -2q18 -11 22 -39q13 -103 2 -282q-7 -121 -8.5 -230.5t14.5 -229.5 t51 -227q2 -5 6.5 -24.5t8 -27.5t12.5 -20.5t23 -19.5q6 -3 6.5 -21t-2.5 -28q-10 -31 -41 -31q-34 0 -77.5 28.5t-55.5 60.5q-3 7 -18.5 48.5t-19.5 53.5t-16 47.5t-16.5 54t-11.5 48.5t-10.5 56t-4.5 52l-16 410q-1 17 -6 49t-6 39h-11q-44 -141 -51 -172 q-29 -127 -57 -304q-6 -36 -15.5 -108.5t-15.5 -108.5q-10 -86 -26 -151q-11 -40 -32.5 -55t-62.5 -11q-69 4 -108 17q-54 21 -86 106q-33 84 -33 230zM221 1528q-3 19 0 39q15 58 58 104q33 38 90 29q69 -8 127 -72q8 -10 36 -33q23 -16 43 -2q2 1 18.5 11t24.5 14 q10 6 23 2q3 -1 3.5 -9t-1.5 -12q-9 -25 -25 -47q-15 -19 -59 -63q-11 -11 -43 -14.5t-41 0.5q-74 32 -94 79q-16 32 -62 39q-7 1 -17 -4.5t-15 -13.5q-6 -8 -15.5 -26.5t-15.5 -26.5q-2 -5 -10.5 -11.5t-9.5 -7.5q-15 20 -15 25z" />
<glyph unicode="&#xc4;" horiz-adv-x="864" d="M0 281q0 157 8 282q7 119 29 311q15 147 33 232q5 23 14.5 49t22 57t18.5 48q14 40 46.5 56t72.5 11q46 -6 254 -51q19 -6 39 -29q5 -5 7 -15t-1 -15q-3 -6 -14 -10.5t-17 -2.5q-18 4 -51.5 16.5t-46.5 16.5q-64 20 -101.5 -6t-42.5 -94q-2 -26 -4.5 -122t-9.5 -147 q-4 -32 -7.5 -100t-10.5 -120t-23 -99q-4 -12 -5 -26.5t-0.5 -24t2 -29t1.5 -25.5q4 -130 20 -217q13 25 13 27q7 23 37.5 126t48.5 157q45 131 139 393q6 16 15.5 49t15.5 49q12 36 35 45q64 28 125 -2q18 -11 22 -39q13 -103 2 -282q-7 -121 -8.5 -230.5t14.5 -229.5 t51 -227q2 -5 6.5 -24.5t8 -27.5t12.5 -20.5t23 -19.5q6 -3 6.5 -21t-2.5 -28q-10 -31 -41 -31q-34 0 -77.5 28.5t-55.5 60.5q-3 7 -18.5 48.5t-19.5 53.5t-16 47.5t-16.5 54t-11.5 48.5t-10.5 56t-4.5 52l-16 410q-1 17 -6 49t-6 39h-11q-44 -141 -51 -172 q-29 -127 -57 -304q-6 -36 -15.5 -108.5t-15.5 -108.5q-10 -86 -26 -151q-11 -40 -32.5 -55t-62.5 -11q-69 4 -108 17q-54 21 -86 106q-33 84 -33 230zM186 1604q-1 35 19.5 60t54.5 30q33 0 39 -8q54 -62 70 -99q13 -29 -18 -58.5t-72 -29.5q-35 1 -63 33t-30 72z M486.5 1561.5q-4.5 21.5 0.5 47t23 46.5q7 8 16 16t22 18t21 17q10 -9 27 -24t30.5 -27.5t24.5 -24.5q22 -20 20 -31.5t-30 -23.5l-29 -8l15 -86l-31 -6q-28 -7 -54.5 -0.5t-39.5 36.5q-11 29 -15.5 50.5z" />
<glyph unicode="&#xc5;" horiz-adv-x="864" d="M0 281q0 157 8 282q7 119 29 311q15 147 33 232q5 23 14.5 49t22 57t18.5 48q14 40 46.5 56t72.5 11q46 -6 254 -51q19 -6 39 -29q5 -5 7 -15t-1 -15q-3 -6 -14 -10.5t-17 -2.5q-18 4 -51.5 16.5t-46.5 16.5q-64 20 -101.5 -6t-42.5 -94q-2 -26 -4.5 -122t-9.5 -147 q-4 -32 -7.5 -100t-10.5 -120t-23 -99q-4 -12 -5 -26.5t-0.5 -24t2 -29t1.5 -25.5q4 -130 20 -217q13 25 13 27q7 23 37.5 126t48.5 157q45 131 139 393q6 16 15.5 49t15.5 49q12 36 35 45q64 28 125 -2q18 -11 22 -39q13 -103 2 -282q-7 -121 -8.5 -230.5t14.5 -229.5 t51 -227q2 -5 6.5 -24.5t8 -27.5t12.5 -20.5t23 -19.5q6 -3 6.5 -21t-2.5 -28q-10 -31 -41 -31q-34 0 -77.5 28.5t-55.5 60.5q-3 7 -18.5 48.5t-19.5 53.5t-16 47.5t-16.5 54t-11.5 48.5t-10.5 56t-4.5 52l-16 410q-1 17 -6 49t-6 39h-11q-44 -141 -51 -172 q-29 -127 -57 -304q-6 -36 -15.5 -108.5t-15.5 -108.5q-10 -86 -26 -151q-11 -40 -32.5 -55t-62.5 -11q-69 4 -108 17q-54 21 -86 106q-33 84 -33 230zM226 1648q6 28 30 62q22 32 51 51q27 19 121 76q53 27 90 -10q11 -10 35.5 -27.5t36.5 -27.5q65 -58 63 -119 q-9 -33 -16 -41q-76 -85 -195 -125q-71 -22 -108 -9t-80 74q-19 27 -26.5 47.5t-1.5 48.5zM315 1542q126 -2 228 100q5 9 4 26.5t-6 29.5q-13 25 -49 2l-146 -111q-8 -7 -31 -47z" />
<glyph unicode="&#xc6;" horiz-adv-x="1112" d="M0 283q0 157 8 282q7 121 29 312q15 145 33 231q5 23 14.5 49t22 57t18.5 48q14 40 46.5 56t72.5 11q46 -6 254 -51q19 -6 39 -29q5 -5 7 -15t-1 -15q-3 -6 -14 -10.5t-17 -2.5q-18 4 -51.5 16.5t-46.5 16.5q-64 20 -101.5 -6t-42.5 -94q-2 -26 -4.5 -122t-9.5 -147 q-4 -32 -7.5 -100t-10.5 -120t-23 -99q-4 -12 -5 -26.5t-0.5 -24t2 -29t1.5 -25.5q0 -10 1 -100.5t4 -160t9 -103.5q12 9 26 23.5t33.5 37t32.5 38t38 47.5t34 44l36 48l30 40q9 30 30 74q27 60 88 68q11 1 32.5 6t29.5 6q-6 21 -10 29q-79 158 -76 338q7 284 133 479 q20 33 61 33q58 -2 80 -3t66.5 -8.5t77.5 -21.5q19 -7 58 -16.5t48 -12.5q74 -23 103 -82q25 -56 18 -86q-48 -156 -80 -219q-19 -38 -41 -70q-38 -52 -125 -45q-33 3 -45 27t2 55q70 148 103 224q13 30 16 55t0 70q-92 28 -121 34q-32 8 -48.5 0t-31.5 -39 q-87 -168 -90 -331q-1 -57 9 -114.5t32 -137.5t29 -109q2 -9 7 -18.5t14 -22t12 -18.5q20 -37 4 -61t-56 -29q-7 -1 -21.5 -1.5t-23 -1.5t-19.5 -6.5t-20 -15.5q-13 -14 -21 -34.5t-10 -32.5t-5 -39q-3 -31 -4.5 -62.5t-0.5 -71.5t1.5 -59t3.5 -70t4 -61q4 -15 6 -35 q44 28 57 41q98 106 187 205q34 43 59 63q53 46 117 25q-2 -5 -7 -16t-8 -17q-8 -11 -56.5 -79.5t-76.5 -102.5q-81 -103 -143 -160q-73 -70 -164 -47q-9 2 -27.5 4t-27.5 4q-74 12 -120.5 63t-45.5 146q0 17 1 52t1 53q-57 -125 -100 -162q-10 -41 -31.5 -56t-63.5 -12 q-77 8 -108 19q-56 21 -86 106q-33 84 -33 230zM723 565h4q1 0 2 2t2 2l-6 4q0 -1 -1 -4t-1 -4z" />
<glyph unicode="&#xc7;" d="M2 332q-4 225 0 338q0 26 2.5 53t7 64t6.5 53q0 3 3.5 19t3.5 24q3 135 75 250q11 17 20.5 38t20 49.5t15.5 41.5q25 50 61 74.5t92 21.5q12 0 45 -0.5t48 -1t44 -2.5t48 -5t43.5 -8.5t46.5 -13.5q15 -6 45 -9t39 -5q46 -9 67 -41t8 -76q-3 -9 -19.5 -65.5t-23 -75 t-21 -60.5t-29.5 -72.5t-32 -60.5q-4 -6 -8 -22q-23 -57 -52 -64t-83 33q11 24 46 95t50.5 107t32 96.5t17.5 115.5q-56 42 -168 65q-28 6 -53.5 -10.5t-37.5 -48.5q-13 -39 -83 -277q-8 -27 -27 -125l-2.5 -7.5t-2.5 -8.5t-1 -8l12 -342v-49q0 -3 2 -52t4 -75 q3 -59 12 -117q4 -48 15 -70q10 -20 78 -127q46 87 55 107q11 28 48.5 122.5t59.5 145.5q17 40 74 135q1 3 21 15q4 -19 2 -21q-24 -40 -35 -89.5t-17.5 -108.5t-15.5 -93l-18 -78q-2 -10 -11 -41t-10 -49q-6 -80 -64.5 -126.5t-133.5 -20.5q-10 3 -36 11t-39.5 12.5 t-33.5 13.5t-35 18q-52 29 -90 88q-23 37 -34 56t-24 53t-16 65q-12 93 -14 146zM29 -449q-5 -22 2 -39t24.5 -36.5t22.5 -26.5q6 -6 28 -2q19 4 52 14t61 16t53 7q35 1 71.5 15t58 28t57.5 41q26 19 29 44.5t-19 51.5q-47 56 -119 47q-3 0 -78 -6l-6 16q77 113 170 177 q-4 4 -14 15t-17 17.5t-14 10.5q-34 25 -55.5 20.5t-46.5 -39.5q-9 -12 -74 -119q-28 -47 -13.5 -86.5t66.5 -58.5q6 -2 21 -9.5t28 -13.5zM70 475l4 -8l6 6l-6 6q-4 -2 -4 -4z" />
<glyph unicode="&#xc8;" d="M0 51q1 20 1 56t1 65.5t4 54.5q11 96 62 205q27 60 88 68q10 1 31 5.5t30 6.5q-6 21 -10 29q-79 158 -76 338q3 279 133 479q20 33 62 33h13q123 -3 184 -23l26 -10q4 -1 106 -29q75 -24 103 -82q25 -56 18 -86q-21 -68 -33 -103.5t-37 -90t-53 -95.5q-36 -53 -123 -45 q-33 3 -45 27t2 55q70 148 103 224q13 30 16 54.5t-2 69.5q-99 32 -119 37q-33 6 -48.5 -1.5t-30.5 -37.5q-88 -173 -91 -333q-1 -57 9 -114.5t32 -137.5t29 -109q2 -12 15.5 -33.5t15.5 -25.5q21 -37 6 -61t-55 -29q-8 -1 -22.5 -1.5t-22.5 -1.5t-19 -6.5t-20 -15.5 q-29 -31 -37 -106q-5 -38 -6 -85t0 -73t5 -88.5t5 -77.5q0 -4 2.5 -15t3.5 -20q53 37 57 41q31 34 93.5 102.5t93.5 102.5q31 40 57 63q56 46 119 25q-3 -5 -7 -16.5t-7 -16.5q-15 -21 -41.5 -58t-49 -67.5t-43.5 -56.5q-86 -106 -143 -160q-76 -69 -164 -47q-9 2 -27.5 4 t-27.5 4q-74 12 -120.5 63t-45.5 146zM303 563h4l2 4l-4 4q0 -1 -1 -4t-1 -4zM346 1702q-6 13 1.5 27t21.5 24q20 17 47 4q13 -8 17.5 -11t14 -10.5t14 -15.5t7.5 -18t12 -19q19 -19 31 -46.5t16 -44.5t9.5 -56t7.5 -49q0 -5 -6 -14q-9 0 -9 2q-17 23 -58.5 56.5t-57.5 51.5 q-27 35 -68 119z" />
<glyph unicode="&#xc9;" d="M0 51q1 20 1 56t1 65.5t4 54.5q11 96 62 205q27 60 88 68q10 1 31 5.5t30 6.5q-6 21 -10 29q-79 158 -76 338q3 279 133 479q20 33 62 33h13q123 -3 184 -23l26 -10q4 -1 106 -29q75 -24 103 -82q25 -56 18 -86q-21 -68 -33 -103.5t-37 -90t-53 -95.5q-36 -53 -123 -45 q-33 3 -45 27t2 55q70 148 103 224q13 30 16 54.5t-2 69.5q-99 32 -119 37q-33 6 -48.5 -1.5t-30.5 -37.5q-88 -173 -91 -333q-1 -57 9 -114.5t32 -137.5t29 -109q2 -12 15.5 -33.5t15.5 -25.5q21 -37 6 -61t-55 -29q-8 -1 -22.5 -1.5t-22.5 -1.5t-19 -6.5t-20 -15.5 q-29 -31 -37 -106q-5 -38 -6 -85t0 -73t5 -88.5t5 -77.5q0 -4 2.5 -15t3.5 -20q53 37 57 41q31 34 93.5 102.5t93.5 102.5q31 40 57 63q56 46 119 25q-3 -5 -7 -16.5t-7 -16.5q-15 -21 -41.5 -58t-49 -67.5t-43.5 -56.5q-86 -106 -143 -160q-76 -69 -164 -47q-9 2 -27.5 4 t-27.5 4q-74 12 -120.5 63t-45.5 146zM303 563h4l2 4l-4 4q0 -1 -1 -4t-1 -4zM419 1500.5q-6 13.5 1 41.5t18 47q61 98 66 174q0 7 4 15l10 8q13 -6 25 -14t24.5 -20t19 -19.5t20.5 -24.5t18 -22l-176 -213q-24 14 -30 27.5z" />
<glyph unicode="&#xca;" d="M0 51q1 20 1 56t1 65.5t4 54.5q11 96 62 205q27 60 88 68q10 1 31 5.5t30 6.5q-6 21 -10 29q-79 158 -76 338q3 279 133 479q20 33 62 33h13q123 -3 184 -23l26 -10q4 -1 106 -29q75 -24 103 -82q25 -56 18 -86q-21 -68 -33 -103.5t-37 -90t-53 -95.5q-36 -53 -123 -45 q-33 3 -45 27t2 55q70 148 103 224q13 30 16 54.5t-2 69.5q-99 32 -119 37q-33 6 -48.5 -1.5t-30.5 -37.5q-88 -173 -91 -333q-1 -57 9 -114.5t32 -137.5t29 -109q2 -12 15.5 -33.5t15.5 -25.5q21 -37 6 -61t-55 -29q-8 -1 -22.5 -1.5t-22.5 -1.5t-19 -6.5t-20 -15.5 q-29 -31 -37 -106q-5 -38 -6 -85t0 -73t5 -88.5t5 -77.5q0 -4 2.5 -15t3.5 -20q53 37 57 41q31 34 93.5 102.5t93.5 102.5q31 40 57 63q56 46 119 25q-3 -5 -7 -16.5t-7 -16.5q-15 -21 -41.5 -58t-49 -67.5t-43.5 -56.5q-86 -106 -143 -160q-76 -69 -164 -47q-9 2 -27.5 4 t-27.5 4q-74 12 -120.5 63t-45.5 146zM254 1575q-2 25 27 53q15 13 165 152q3 3 11.5 8.5t11.5 7.5l29 -14q47 -20 64.5 -42.5t23.5 -68.5q1 -15 16 -63q29 -84 35 -107q2 -4 2 -28q-11 3 -19 8t-13.5 12.5t-8 13t-6.5 15.5l-39 96q-2 8 -11.5 24t-13.5 23l-79 -66 q-9 -8 -35 -27t-39 -30q-6 -5 -14.5 -18.5t-10.5 -16.5q-24 -29 -59 6q-35 37 -37 62zM303 563h4l2 4l-4 4q0 -1 -1 -4t-1 -4z" />
<glyph unicode="&#xcb;" d="M0 51q1 20 1 56t1 65.5t4 54.5q11 96 62 205q27 60 88 68q10 1 31 5.5t30 6.5q-6 21 -10 29q-79 158 -76 338q3 279 133 479q20 33 62 33h13q123 -3 184 -23l26 -10q4 -1 106 -29q75 -24 103 -82q25 -56 18 -86q-21 -68 -33 -103.5t-37 -90t-53 -95.5q-36 -53 -123 -45 q-33 3 -45 27t2 55q70 148 103 224q13 30 16 54.5t-2 69.5q-99 32 -119 37q-33 6 -48.5 -1.5t-30.5 -37.5q-88 -173 -91 -333q-1 -57 9 -114.5t32 -137.5t29 -109q2 -12 15.5 -33.5t15.5 -25.5q21 -37 6 -61t-55 -29q-8 -1 -22.5 -1.5t-22.5 -1.5t-19 -6.5t-20 -15.5 q-29 -31 -37 -106q-5 -38 -6 -85t0 -73t5 -88.5t5 -77.5q0 -4 2.5 -15t3.5 -20q53 37 57 41q31 34 93.5 102.5t93.5 102.5q31 40 57 63q56 46 119 25q-3 -5 -7 -16.5t-7 -16.5q-15 -21 -41.5 -58t-49 -67.5t-43.5 -56.5q-86 -106 -143 -160q-76 -69 -164 -47q-9 2 -27.5 4 t-27.5 4q-74 12 -120.5 63t-45.5 146zM195 1604q-2 35 18.5 60.5t54.5 29.5q33 0 39 -8q54 -62 70 -99q13 -29 -18 -58.5t-72 -29.5q-35 1 -62.5 33t-29.5 72zM303 563h4l2 4l-4 4q0 -1 -1 -4t-1 -4zM494.5 1561.5q-4.5 21.5 0.5 47t23 46.5q9 10 31.5 28t28.5 23 q9 -9 26.5 -24.5t30.5 -27.5t24 -24q22 -20 20 -31.5t-30 -23.5l-28 -8l14 -86l-31 -6q-28 -7 -54.5 -0.5t-39.5 36.5q-11 29 -15.5 50.5z" />
<glyph unicode="&#xcc;" horiz-adv-x="468" d="M4 -119q-14 17 26 27q6 1 21 4q13 3 19 4q103 21 176 25q68 3 127 -15q-9 -35 -56 -39q-65 0 -98 2q-85 6 -147 -32q-13 -8 -24 -9t-20 6t-13 12t-11 15zM49 1331q19 2 75 8.5t85 8.5l287 22q47 4 116 -29q4 -2 7.5 -6.5t6.5 -11.5t5 -10q-31 -19 -33 -19 q-15 -1 -55.5 -0.5t-53.5 -1.5q-33 -4 -42.5 -15t-14.5 -46l-70 -488q-14 -111 -12 -151q2 -53 -8.5 -150t-11.5 -135q-1 -23 0.5 -66t1.5 -57q-1 0 -2 -1t-2 -1q1 0 3 1t3 1v-108q0 -30 -8 -84l-176 -19q-54 66 -21 142q5 14 8 29t5 38t3 29q15 193 33 373q48 432 66 610 v66q-8 0 -35 -2.5t-38.5 -2.5t-33.5 2.5t-34.5 10.5t-27.5 23.5t-26 39.5zM139 1702q-6 13 1.5 27t21.5 24q20 17 47 4q13 -8 17.5 -11t14 -10.5t14 -15.5t7.5 -18q4 -10 12 -19q19 -19 31 -46.5t16 -44.5t9.5 -56t7.5 -49q0 -5 -6 -14q-8 0 -8 2q-17 23 -59 56t-58 52 q-27 35 -68 119z" />
<glyph unicode="&#xcd;" horiz-adv-x="468" d="M4 -119q-14 17 26 27q6 1 21 4q13 3 19 4q103 21 176 25q68 3 127 -15q-9 -35 -56 -39q-65 0 -98 2q-85 6 -147 -32q-13 -8 -24 -9t-20 6t-13 12t-11 15zM49 1331q19 2 75 8.5t85 8.5l287 22q47 4 116 -29q4 -2 7.5 -6.5t6.5 -11.5t5 -10q-31 -19 -33 -19 q-15 -1 -55.5 -0.5t-53.5 -1.5q-33 -4 -42.5 -15t-14.5 -46l-70 -488q-14 -111 -12 -151q2 -53 -8.5 -150t-11.5 -135q-1 -23 0.5 -66t1.5 -57q-1 0 -2 -1t-2 -1q1 0 3 1t3 1v-108q0 -30 -8 -84l-176 -19q-54 66 -21 142q5 14 8 29t5 38t3 29q15 193 33 373q48 432 66 610 v66q-8 0 -35 -2.5t-38.5 -2.5t-33.5 2.5t-34.5 10.5t-27.5 23.5t-26 39.5zM257 1500.5q-6 13.5 1 41.5t18 47q61 98 66 174q0 7 4 15l10 8q13 -6 25 -14t24.5 -20t19 -19.5t20.5 -24.5t18 -22l-176 -213q-24 14 -30 27.5z" />
<glyph unicode="&#xce;" horiz-adv-x="468" d="M4 -119q-14 17 26 27q6 1 21 4q13 3 19 4q103 21 176 25q68 3 127 -15q-9 -35 -56 -39q-65 0 -98 2q-85 6 -147 -32q-13 -8 -24 -9t-20 6t-13 12t-11 15zM49 1331q19 2 75 8.5t85 8.5l287 22q47 4 116 -29q4 -2 7.5 -6.5t6.5 -11.5t5 -10q-31 -19 -33 -19 q-15 -1 -55.5 -0.5t-53.5 -1.5q-33 -4 -42.5 -15t-14.5 -46l-70 -488q-14 -111 -12 -151q2 -53 -8.5 -150t-11.5 -135q-1 -23 0.5 -66t1.5 -57q-1 0 -2 -1t-2 -1q1 0 3 1t3 1v-108q0 -30 -8 -84l-176 -19q-54 66 -21 142q5 14 8 29t5 38t3 29q15 193 33 373q48 432 66 610 v66q-8 0 -35 -2.5t-38.5 -2.5t-33.5 2.5t-34.5 10.5t-27.5 23.5t-26 39.5zM155.5 1575q-2.5 25 26.5 53q29 25 166 152q3 3 11.5 8.5t11.5 7.5l28 -14q47 -20 64.5 -42.5t23.5 -68.5q1 -9 17 -63q29 -84 35 -107q2 -4 2 -28q-11 3 -19 8t-13.5 12.5t-8 13t-6.5 15.5l-39 96 q-2 8 -11.5 24t-13.5 23l-80 -66q-9 -8 -35 -27t-39 -30q-6 -5 -13.5 -18.5t-10.5 -16.5q-24 -29 -59 6q-35 37 -37.5 62z" />
<glyph unicode="&#xcf;" horiz-adv-x="468" d="M4 -119q-14 17 26 27q6 1 21 4q13 3 19 4q103 21 176 25q68 3 127 -15q-9 -35 -56 -39q-65 0 -98 2q-85 6 -147 -32q-13 -8 -24 -9t-20 6t-13 12t-11 15zM49 1331q19 2 75 8.5t85 8.5l287 22q47 4 116 -29q4 -2 7.5 -6.5t6.5 -11.5t5 -10q-31 -19 -33 -19 q-15 -1 -55.5 -0.5t-53.5 -1.5q-33 -4 -42.5 -15t-14.5 -46l-70 -488q-14 -111 -12 -151q2 -53 -8.5 -150t-11.5 -135q-1 -23 0.5 -66t1.5 -57q-1 0 -2 -1t-2 -1q1 0 3 1t3 1v-108q0 -30 -8 -84l-176 -19q-54 66 -21 142q5 14 8 29t5 38t3 29q15 193 33 373q48 432 66 610 v66q-8 0 -35 -2.5t-38.5 -2.5t-33.5 2.5t-34.5 10.5t-27.5 23.5t-26 39.5zM96 1604q-1 35 19.5 60t54.5 30q33 0 39 -8q54 -62 70 -99q13 -29 -18.5 -58.5t-72.5 -29.5q-35 1 -62.5 33t-29.5 72zM396.5 1561.5q-4.5 21.5 0.5 47t23 46.5q7 8 16 16t22 18t21 17q10 -9 27 -24 t30.5 -27.5t24.5 -24.5q22 -20 20 -31.5t-30 -23.5l-29 -8l15 -86l-31 -6q-28 -7 -54.5 -0.5t-39.5 36.5q-11 29 -15.5 50.5z" />
<glyph unicode="&#xd0;" horiz-adv-x="868" d="M-35.5 550q10.5 10 68.5 -3q13 -4 35 -8l8 198q0 17 1.5 73.5t2 83t-0.5 70.5t-5 80q-2 18 -6.5 38t-8 34t-12 39t-11.5 33t-14.5 38t-13.5 34q-14 38 -2 57.5t51 15.5q83 -7 121 -53q36 -42 49 -76q66 -199 45 -411q-5 -31 -3.5 -70.5t16.5 -71.5l57 117q5 11 44.5 100 t64.5 133q64 108 141 185q81 81 213 35q33 -10 54 -41t24 -70q11 -139 -19 -305q-1 -6 -5.5 -40t-10.5 -50q-21 -61 -37.5 -176t-26.5 -158q-30 -122 -106 -264q-10 -21 -16.5 -32t-24 -20.5t-41.5 -3.5q12 -17 7.5 -33.5t-11.5 -24.5t-21 -19q-33 -28 -36 -31 q-44 -52 -105.5 -52.5t-107.5 50.5q4 13 11.5 25.5t14.5 21t19.5 19t19 15.5t22.5 16t21 15q52 38 70 84q51 110 104 242q6 17 10.5 35.5t8.5 43t6 36.5q8 37 26.5 120.5t28.5 131.5t21.5 118t17.5 130q7 72 4 129q0 9 -6 21t-12 13q-36 4 -50 -10q-192 -186 -243 -391 q-10 -45 -33 -124t-29 -103h21q37 -1 57.5 -19.5t36.5 -52.5q4 -8 6.5 -18.5t4 -26t3.5 -25.5q-60 -2 -170 6q-31 -96 -69 -331q-4 -17 -8.5 -51.5t-8.5 -51.5q-12 -47 -28 -61q-27 -26 -58 -23q-65 9 -87.5 39.5t-10.5 93.5q8 45 12.5 99t5.5 86.5t1.5 102.5t0.5 91 q-39 -3 -61 9.5t-33 50.5l-4 24q-11 59 -0.5 69z" />
<glyph unicode="&#xd1;" horiz-adv-x="798" d="M0 236q2 132 13 382t12 287q0 12 1 40t0.5 48.5t-3.5 38.5q-5 37 -6 78t0.5 89.5t0.5 76.5q-2 56 11 69.5t65 10.5q88 -3 125 -90q17 -42 51 -150l181 -573q7 -21 16 -62.5t12 -52.5q8 -29 27 -84h16l8 96q13 220 15 297q3 78 6 222t4 190q0 51 2 76q6 42 47 45 q65 5 93 -20t32 -93q2 -44 -2 -127l-27 -530q-1 -28 -4.5 -79.5t-5.5 -93.5t-2 -79q-1 -30 0.5 -61.5t5 -75t4.5 -62.5q1 -16 1.5 -29.5t-7.5 -23.5t-26 -12q-5 0 -10 -3t-5 -6q-15 -53 -65 -34q-16 5 -32.5 40t-31.5 84.5t-20 59.5q-20 48 -49 94q-22 33 -37.5 76.5t-21 69 t-15.5 79.5q-14 80 -51.5 171t-51.5 135q-44 146 -69 202q-10 -20 -10 -24q0 -28 1 -86t1 -86q-3 -76 -9 -150q-1 -14 -4.5 -52.5t-3.5 -59.5q0 -26 1 -55.5t2.5 -65.5t2.5 -56q7 -236 17 -405q3 -32 -25 -41q-72 -30 -157 51h-3q-1 17 -11 135.5t-9 178.5zM188 1528 q-3 19 0 39q15 58 58 104q33 38 90 29q69 -8 127 -72q6 -7 37 -33q23 -16 43 -2q2 1 18.5 11t24.5 14q9 6 22 2q3 -1 3.5 -9t-1.5 -12q-11 -28 -24 -47q-11 -14 -60 -63q-11 -11 -43 -14.5t-41 0.5q-74 32 -94 79q-17 32 -61 39q-7 1 -17.5 -4.5t-15.5 -13.5 q-6 -8 -15.5 -26.5t-15.5 -26.5q-2 -5 -10.5 -11.5t-9.5 -7.5q-15 20 -15 25z" />
<glyph unicode="&#xd2;" horiz-adv-x="751" d="M0 360q11 165 31 258q23 99 37 238q2 17 5 35t5.5 32t8 35t7.5 31t10 34t10 30.5t11.5 33.5t10.5 30.5t12.5 33.5t11.5 31q7 21 23 60t20 50q20 46 36 53.5t70 -4.5q17 -3 35 -10q70 -34 80.5 -56t-10.5 -91q-15 -49 -67.5 -147.5t-67.5 -147.5q-10 -39 -21 -66 q-2 -3 -5.5 -5t-9 -4t-7.5 -3l-19 -12q16 -6 37 -11q-22 -257 -23 -274q-1 -8 -1 -17t0.5 -20.5t0.5 -17.5q0 -5 3.5 -18t1.5 -17q-13 -34 -15 -72.5t1.5 -88t2.5 -73.5q0 -8 -2.5 -30t-1.5 -33q2 -21 25 -40t55 -37.5t43 -31.5q41 21 64 84q74 171 104 402q8 84 10 121 q10 170 10 200q-4 148 -16 219q-4 21 -12 43.5t-21 52.5t-18 44q76 12 133.5 -34t65.5 -114q4 -39 12 -82t19 -99.5t16 -80.5q0 -4 1 -12t1 -12l-19 -193q-6 -61 -22 -172q-30 -202 -107 -391q-19 -49 -65 -60q-34 -12 -78 -40q-54 -30 -92 -23q-129 23 -202.5 87.5 t-98.5 201.5q-2 8 -6.5 24t-6.5 26.5t-1 24t8 25.5q-27 33 -23 100zM139 1044h4l-2 3zM158 983l8 -4v4q0 2 -4 2q-2 -2 -4 -2zM215 797l2 2v-2h-2zM244 905h4v8q-4 0 -4 -2v-6zM281 1702q-12 28 22 51q20 17 47 4q13 -8 17.5 -11t14 -10.5t14 -15.5t7.5 -18q3 -9 13 -19 q19 -19 31 -46t16 -45t9 -55.5t7 -49.5q0 -5 -6 -14q-8 0 -8 2q-17 23 -59 56t-58 52q-24 32 -67 119z" />
<glyph unicode="&#xd3;" horiz-adv-x="751" d="M0 360q11 165 31 258q23 99 37 238q2 17 5 35t5.5 32t8 35t7.5 31t10 34t10 30.5t11.5 33.5t10.5 30.5t12.5 33.5t11.5 31q7 21 23 60t20 50q20 46 36 53.5t70 -4.5q17 -3 35 -10q70 -34 80.5 -56t-10.5 -91q-15 -49 -67.5 -147.5t-67.5 -147.5q-10 -39 -21 -66 q-2 -3 -5.5 -5t-9 -4t-7.5 -3l-19 -12q16 -6 37 -11q-22 -257 -23 -274q-1 -8 -1 -17t0.5 -20.5t0.5 -17.5q0 -5 3.5 -18t1.5 -17q-13 -34 -15 -72.5t1.5 -88t2.5 -73.5q0 -8 -2.5 -30t-1.5 -33q2 -21 25 -40t55 -37.5t43 -31.5q41 21 64 84q74 171 104 402q8 84 10 121 q10 170 10 200q-4 148 -16 219q-4 21 -12 43.5t-21 52.5t-18 44q76 12 133.5 -34t65.5 -114q4 -39 12 -82t19 -99.5t16 -80.5q0 -4 1 -12t1 -12l-19 -193q-6 -61 -22 -172q-30 -202 -107 -391q-19 -49 -65 -60q-34 -12 -78 -40q-54 -30 -92 -23q-129 23 -202.5 87.5 t-98.5 201.5q-2 8 -6.5 24t-6.5 26.5t-1 24t8 25.5q-27 33 -23 100zM139 1044h4l-2 3zM158 983l8 -4v4q0 2 -4 2q-2 -2 -4 -2zM215 797l2 2v-2h-2zM244 905h4v8q-4 0 -4 -2v-6zM392 1488q-6 14 1 42q6 24 19 47q60 96 65 174q0 6 4 14l11 9q17 -7 33.5 -20.5t24.5 -22 t26.5 -31.5t21.5 -27l-176 -213q-24 14 -30 28z" />
<glyph unicode="&#xd4;" horiz-adv-x="751" d="M0 360q11 165 31 258q23 99 37 238q2 17 5 35t5.5 32t8 35t7.5 31t10 34t10 30.5t11.5 33.5t10.5 30.5t12.5 33.5t11.5 31q7 21 23 60t20 50q20 46 36 53.5t70 -4.5q17 -3 35 -10q70 -34 80.5 -56t-10.5 -91q-15 -49 -67.5 -147.5t-67.5 -147.5q-10 -39 -21 -66 q-2 -3 -5.5 -5t-9 -4t-7.5 -3l-19 -12q16 -6 37 -11q-22 -257 -23 -274q-1 -8 -1 -17t0.5 -20.5t0.5 -17.5q0 -5 3.5 -18t1.5 -17q-13 -34 -15 -72.5t1.5 -88t2.5 -73.5q0 -8 -2.5 -30t-1.5 -33q2 -21 25 -40t55 -37.5t43 -31.5q41 21 64 84q74 171 104 402q8 84 10 121 q10 170 10 200q-4 148 -16 219q-4 21 -12 43.5t-21 52.5t-18 44q76 12 133.5 -34t65.5 -114q4 -39 12 -82t19 -99.5t16 -80.5q0 -4 1 -12t1 -12l-19 -193q-6 -61 -22 -172q-30 -202 -107 -391q-19 -49 -65 -60q-34 -12 -78 -40q-54 -30 -92 -23q-129 23 -202.5 87.5 t-98.5 201.5q-2 8 -6.5 24t-6.5 26.5t-1 24t8 25.5q-27 33 -23 100zM139 1044h4l-2 3zM158 983l8 -4v4q0 2 -4 2q-2 -2 -4 -2zM188 1575q-2 25 27 53q28 25 166 152q3 4 11.5 9t10.5 7l29 -14q47 -20 64.5 -42.5t23.5 -68.5q1 -9 17 -63q24 -70 34 -107q2 -4 2 -28 q-11 3 -19 8t-13.5 12.5t-8 13t-6.5 15.5l-39 96q-2 6 -5.5 13t-9 17t-9.5 17l-80 -66q-9 -8 -35 -27t-39 -30q-6 -5 -13.5 -18.5t-10.5 -16.5q-24 -30 -60 6q-35 37 -37 62zM215 797l2 2v-2h-2zM244 905h4v8q-4 0 -4 -2v-6z" />
<glyph unicode="&#xd5;" horiz-adv-x="751" d="M0 360q11 165 31 258q23 99 37 238q2 17 5 35t5.5 32t8 35t7.5 31t10 34t10 30.5t11.5 33.5t10.5 30.5t12.5 33.5t11.5 31q7 21 23 60t20 50q20 46 36 53.5t70 -4.5q17 -3 35 -10q70 -34 80.5 -56t-10.5 -91q-15 -49 -67.5 -147.5t-67.5 -147.5q-10 -39 -21 -66 q-2 -3 -5.5 -5t-9 -4t-7.5 -3l-19 -12q16 -6 37 -11q-22 -257 -23 -274q-1 -8 -1 -17t0.5 -20.5t0.5 -17.5q0 -5 3.5 -18t1.5 -17q-13 -34 -15 -72.5t1.5 -88t2.5 -73.5q0 -8 -2.5 -30t-1.5 -33q2 -21 25 -40t55 -37.5t43 -31.5q41 21 64 84q74 171 104 402q8 84 10 121 q10 170 10 200q-4 148 -16 219q-4 21 -12 43.5t-21 52.5t-18 44q76 12 133.5 -34t65.5 -114q4 -39 12 -82t19 -99.5t16 -80.5q0 -4 1 -12t1 -12l-19 -193q-6 -61 -22 -172q-30 -202 -107 -391q-19 -49 -65 -60q-34 -12 -78 -40q-54 -30 -92 -23q-129 23 -202.5 87.5 t-98.5 201.5q-2 8 -6.5 24t-6.5 26.5t-1 24t8 25.5q-27 33 -23 100zM139 1044h4l-2 3zM158 983l8 -4v4q0 2 -4 2q-2 -2 -4 -2zM164 1528q-3 19 0 39q15 59 57 104q33 38 90 29q69 -8 127 -72q6 -7 37 -33q23 -16 43 -2q2 1 18.5 11t24.5 14q10 6 23 2q3 -1 3.5 -9t-1.5 -12 q-9 -25 -25 -47q-15 -19 -59 -63q-11 -11 -43 -14.5t-41 0.5q-74 32 -94 79q-16 32 -62 39q-7 1 -17.5 -4.5t-15.5 -13.5q-6 -8 -15 -26.5t-15 -26.5q-2 -5 -11 -11.5t-10 -7.5q-14 19 -14 25zM215 797l2 2v-2h-2zM244 905h4v8q-4 0 -4 -2v-6z" />
<glyph unicode="&#xd6;" horiz-adv-x="751" d="M0 360q11 165 31 258q23 99 37 238q2 17 5 35t5.5 32t8 35t7.5 31t10 34t10 30.5t11.5 33.5t10.5 30.5t12.5 33.5t11.5 31q7 21 23 60t20 50q20 46 36 53.5t70 -4.5q17 -3 35 -10q70 -34 80.5 -56t-10.5 -91q-15 -49 -67.5 -147.5t-67.5 -147.5q-10 -39 -21 -66 q-2 -3 -5.5 -5t-9 -4t-7.5 -3l-19 -12q16 -6 37 -11q-22 -257 -23 -274q-1 -8 -1 -17t0.5 -20.5t0.5 -17.5q0 -5 3.5 -18t1.5 -17q-13 -34 -15 -72.5t1.5 -88t2.5 -73.5q0 -8 -2.5 -30t-1.5 -33q2 -21 25 -40t55 -37.5t43 -31.5q41 21 64 84q74 171 104 402q8 84 10 121 q10 170 10 200q-4 148 -16 219q-4 21 -12 43.5t-21 52.5t-18 44q76 12 133.5 -34t65.5 -114q4 -39 12 -82t19 -99.5t16 -80.5q0 -4 1 -12t1 -12l-19 -193q-6 -61 -22 -172q-30 -202 -107 -391q-19 -49 -65 -60q-34 -12 -78 -40q-54 -30 -92 -23q-129 23 -202.5 87.5 t-98.5 201.5q-2 8 -6.5 24t-6.5 26.5t-1 24t8 25.5q-27 33 -23 100zM129 1604q-1 35 19.5 60t54.5 30q33 0 39 -8q52 -60 69 -99q13 -29 -18 -58.5t-72 -29.5q-35 1 -62.5 33t-29.5 72zM139 1044h4l-2 3zM158 983l8 -4v4q0 2 -4 2q-2 -2 -4 -2zM215 797l2 2v-2h-2zM244 905 h4v8q-4 0 -4 -2v-6zM428.5 1561.5q-4.5 21.5 0.5 47t24 46.5q7 8 16 16t22 18t21 17q10 -9 27 -24t30.5 -27.5t24.5 -24.5q22 -20 20 -31.5t-30 -23.5l-29 -8l14 -86l-30 -6q-28 -7 -55 -0.5t-40 36.5q-11 29 -15.5 50.5z" />
<glyph unicode="&#xd8;" horiz-adv-x="751" d="M-25 -137q3 25 13 45q11 24 32 78.5t33 81.5q-15 41 -24 92q-2 8 -6.5 24t-6.5 26.5t-1 24t8 25.5q-27 33 -23 100q11 165 31 258q23 99 37 238q2 17 5 35t5.5 32t8 35t7.5 31t10 34t10 30.5t11.5 33.5t10.5 30.5t12.5 33.5t11.5 31q7 21 23 60t20 50q20 46 36 53.5 t70 -4.5q17 -3 35 -10q70 -34 80.5 -56t-10.5 -91q-15 -49 -67.5 -147.5t-67.5 -147.5q-10 -39 -21 -66q-2 -3 -5.5 -5t-9 -4t-7.5 -3l-19 -12q16 -6 37 -11q-22 -257 -23 -274q-1 -8 -1 -17t0.5 -20.5t0.5 -17.5v-6q72 162 142 260q74 106 151 264q-4 42 -8 67 q-4 21 -12 43.5t-21 52.5t-18 44q78 12 137 -37q5 8 13 25.5t10 21.5q22 45 24 47q31 54 60 62.5t79 -23.5q-19 -36 -40 -76.5t-45.5 -89.5t-38.5 -76v-2q4 -39 12 -82t19 -99.5t16 -80.5q0 -4 1 -12t1 -12l-19 -193q-6 -61 -22 -172q-30 -202 -107 -391q-19 -49 -65 -60 q-34 -12 -78 -40q-54 -30 -92 -23q-128 22 -201 86l-6 -16q-8 -25 -26 -70.5t-23 -60.5q-12 -7 -22.5 -7.5t-21 6.5t-17.5 13.5t-19.5 20.5t-18.5 20zM139 1044h4l-2 3zM158 983l8 -4v4q0 2 -4 2q-2 -2 -4 -2zM215 797h2v2zM221 127q2 -21 25 -40t55 -37.5t43 -31.5 q41 21 64 84q74 171 104 402q8 84 10 121q1 27 5 78.5t5 76.5q-8 -15 -69 -126t-88 -173q-34 -79 -150 -297q-5 -46 -4 -57zM244 905h4v8q-4 0 -4 -2v-6z" />
<glyph unicode="&#xd9;" horiz-adv-x="716" d="M0 360q12 186 13.5 423t-1.5 423q0 17 -4 49q-6 45 33 48q65 7 111 2q14 -2 29.5 -11.5t21.5 -19.5q37 -64 37 -98q1 -67 1 -91.5t-2 -91t-3 -90.5q0 -15 1 -46t1 -46q4 -142 2 -211q-1 -26 -11 -75.5t-12 -71.5q-8 -121 0 -179q3 -19 -0.5 -55t0.5 -64t23 -51 q9 -9 17 -30.5t13 -28.5q5 -9 31.5 -25.5t32.5 -23.5q8 3 28.5 11.5t34.5 14.5t30 14.5t25.5 16.5t10.5 15q24 121 26 186q5 88 10.5 249.5t6.5 196.5q7 237 43 402q3 14 5.5 42.5t8 50.5t19.5 40q47 64 120 59l-20 -26q-3 -3 -9 -7.5t-10.5 -8t-5.5 -7.5t-6.5 -29 t-8.5 -34.5t-11 -26.5t-19 -29q-31 -273 -8 -606q3 -33 4 -69.5t1 -81.5t1 -70q0 -23 -1 -67t-1 -66q-6 -120 -94 -199q-46 -42 -164.5 -53t-175.5 18q-55 27 -74 72q-5 11 -20 43l-22.5 48t-17 42.5t-15.5 48.5q-30 103 -25 174zM236 1620q-12 28 22 51q20 17 47 4 q13 -8 17.5 -11t14 -10.5t14 -15.5t7.5 -18q2 -8 13 -18q19 -19 31 -46.5t16 -45.5t9 -55.5t7 -49.5q0 -5 -6 -14q-8 0 -8 2q-17 23 -59 56t-58 52q-24 32 -67 119z" />
<glyph unicode="&#xda;" horiz-adv-x="716" d="M0 360q12 186 13.5 423t-1.5 423q0 17 -4 49q-6 45 33 48q65 7 111 2q14 -2 29.5 -11.5t21.5 -19.5q37 -64 37 -98q1 -67 1 -91.5t-2 -91t-3 -90.5q0 -15 1 -46t1 -46q4 -142 2 -211q-1 -26 -11 -75.5t-12 -71.5q-8 -121 0 -179q3 -19 -0.5 -55t0.5 -64t23 -51 q9 -9 17 -30.5t13 -28.5q5 -9 31.5 -25.5t32.5 -23.5q8 3 28.5 11.5t34.5 14.5t30 14.5t25.5 16.5t10.5 15q24 121 26 186q5 88 10.5 249.5t6.5 196.5q7 237 43 402q3 14 5.5 42.5t8 50.5t19.5 40q47 64 120 59l-20 -26q-3 -3 -9 -7.5t-10.5 -8t-5.5 -7.5t-6.5 -29 t-8.5 -34.5t-11 -26.5t-19 -29q-31 -273 -8 -606q3 -33 4 -69.5t1 -81.5t1 -70q0 -23 -1 -67t-1 -66q-6 -120 -94 -199q-46 -42 -164.5 -53t-175.5 18q-55 27 -74 72q-5 11 -20 43l-22.5 48t-17 42.5t-15.5 48.5q-30 103 -25 174zM310 1437q-6 14 1 42q6 24 19 47 q60 96 65 174q0 6 4 14l11 8q17 -7 34 -21t23.5 -21t27 -31.5t21.5 -26.5l-176 -213q-24 14 -30 28z" />
<glyph unicode="&#xdb;" horiz-adv-x="716" d="M0 360q12 186 13.5 423t-1.5 423q0 17 -4 49q-6 45 33 48q65 7 111 2q14 -2 29.5 -11.5t21.5 -19.5q37 -64 37 -98q1 -67 1 -91.5t-2 -91t-3 -90.5q0 -15 1 -46t1 -46q4 -142 2 -211q-1 -26 -11 -75.5t-12 -71.5q-8 -121 0 -179q3 -19 -0.5 -55t0.5 -64t23 -51 q9 -9 17 -30.5t13 -28.5q5 -9 31.5 -25.5t32.5 -23.5q8 3 28.5 11.5t34.5 14.5t30 14.5t25.5 16.5t10.5 15q24 121 26 186q5 88 10.5 249.5t6.5 196.5q7 237 43 402q3 14 5.5 42.5t8 50.5t19.5 40q47 64 120 59l-20 -26q-3 -3 -9 -7.5t-10.5 -8t-5.5 -7.5t-6.5 -29 t-8.5 -34.5t-11 -26.5t-19 -29q-31 -273 -8 -606q3 -33 4 -69.5t1 -81.5t1 -70q0 -23 -1 -67t-1 -66q-6 -120 -94 -199q-46 -42 -164.5 -53t-175.5 18q-55 27 -74 72q-5 11 -20 43l-22.5 48t-17 42.5t-15.5 48.5q-30 103 -25 174zM176 1493.5q-2 24.5 27 52.5q28 25 166 152 q3 4 11.5 9.5t10.5 6.5l29 -14q47 -20 64.5 -42.5t23.5 -68.5q1 -14 16 -63q29 -84 35 -107q2 -4 2 -28q-11 3 -19 8t-13.5 12.5t-8 13t-6.5 15.5l-39 96q-2 6 -5.5 13t-9 17t-9.5 17l-80 -65q-8 -6 -34.5 -26t-39.5 -32q-6 -5 -14.5 -18.5t-10.5 -16.5q-23 -29 -59 7 q-35 37 -37 61.5z" />
<glyph unicode="&#xdc;" horiz-adv-x="716" d="M0 360q12 186 13.5 423t-1.5 423q0 17 -4 49q-6 45 33 48q65 7 111 2q14 -2 29.5 -11.5t21.5 -19.5q37 -64 37 -98q1 -67 1 -91.5t-2 -91t-3 -90.5q0 -15 1 -46t1 -46q4 -142 2 -211q-1 -26 -11 -75.5t-12 -71.5q-8 -121 0 -179q3 -19 -0.5 -55t0.5 -64t23 -51 q9 -9 17 -30.5t13 -28.5q5 -9 31.5 -25.5t32.5 -23.5q8 3 28.5 11.5t34.5 14.5t30 14.5t25.5 16.5t10.5 15q24 121 26 186q5 88 10.5 249.5t6.5 196.5q7 237 43 402q3 14 5.5 42.5t8 50.5t19.5 40q47 64 120 59l-20 -26q-3 -3 -9 -7.5t-10.5 -8t-5.5 -7.5t-6.5 -29 t-8.5 -34.5t-11 -26.5t-19 -29q-31 -273 -8 -606q3 -33 4 -69.5t1 -81.5t1 -70q0 -23 -1 -67t-1 -66q-6 -120 -94 -199q-46 -42 -164.5 -53t-175.5 18q-55 27 -74 72q-5 11 -20 43l-22.5 48t-17 42.5t-15.5 48.5q-30 103 -25 174zM113 1534q-2 35 18.5 60.5t54.5 29.5 q33 0 39 -8q55 -63 70 -98q13 -29 -18 -58.5t-72 -29.5q-35 1 -62.5 32.5t-29.5 71.5zM412 1492q-4 21 1 46.5t23 46.5q9 10 31.5 28t28.5 23q7 -7 37 -33t45 -42q22 -20 19.5 -32t-30.5 -24l-28 -8l14 -86l-31 -6q-20 -1 -37 -2t-32.5 8.5t-24.5 30.5q-12 29 -16 50z" />
<glyph unicode="&#xdd;" horiz-adv-x="503" d="M-219 1350q37 29 96.5 31.5t93.5 -19.5q25 -15 48 -39t34.5 -41t32.5 -51.5t29 -46.5q4 -7 5.5 -18.5t0.5 -22t0 -23.5q6 -1 14.5 -4t11.5 -4q16 -8 27.5 -19t19 -27t11.5 -27t9.5 -32.5t8.5 -29.5l8 -23v2q3 -13 17 -45q9 -4 17 -1.5t18 -0.5t16 -16q22 -40 68 -6 q30 23 43 43q25 35 73 93.5t85 109t63 100.5q11 22 51 67q24 25 45 35t51 0q17 -4 35.5 -7t48 -6.5t47.5 -6.5q-10 -7 -24 -17.5t-22.5 -16t-16.5 -9.5q-21 -11 -42.5 -29t-32 -30t-33.5 -40.5t-29 -35.5l-177 -205q-83 -92 -112 -121q-31 -27 -17 -66q15 -37 12.5 -74 t-28.5 -73q-7 -9 -11 -20t-6 -26t-3 -24.5t-1.5 -29t-0.5 -25.5q-1 0 -1 -105l1 -104q0 -12 -2.5 -38t-2.5 -40l-12 -274q-1 -29 -16.5 -44.5t-46.5 -23.5q-18 -5 -35.5 -6t-39.5 3.5t-32.5 7t-36.5 10.5q-39 14 -39 57q2 47 -0.5 135t0.5 159t19 134q4 14 5 29t0.5 34 t0.5 29q0 14 -1.5 40.5t-1.5 48t3 40.5q17 127 -78 281q-2 4 -7.5 12t-7.5 11.5t-6 12.5t-3 14t2 15l-58 97l-133 235zM84 1081q0 -38 5 -44t36 -3q-5 5 -8 18t-10 20.5t-23 8.5zM152 1073l2 -4l2 4h-4zM205 846l4 -2q6 0 8 2l-6 6zM209 928l6 -8q0 2 2 5t2 5l-2 4z M246.5 1406q-5.5 14 1.5 42t18 47q61 98 66 174q0 6 4 14l10 9q17 -7 34 -21t24 -21t27.5 -32.5t21.5 -26.5l-177 -213q-24 14 -29.5 28z" />
<glyph unicode="&#xdf;" horiz-adv-x="798" d="M0 135q0 7 6 70.5t6 77.5q17 309 47 528q26 170 95 451q9 35 29.5 72t51.5 72.5t76 58.5t95 24q29 1 56 -62t39 -133.5t5 -97.5q21 -157 -1 -303t-65 -250l27 -10q174 -79 215 -230q35 -124 16 -266l-8 -100q-35 -85 -81 -131t-136 -62q-117 -19 -170 12t-59 121 q-6 69 32 123l43 -47q-27 -56 -11.5 -103t54.5 -50q53 -10 97.5 35.5t48.5 127.5l-4 82q4 20 4.5 43.5t-1 53.5t-1.5 43q-3 110 -64 229q-13 23 -39 53q-30 -41 -53 -13q-20 24 -14 59q2 12 8 20q17 22 42 112.5t42 243t6 293.5q3 56 -33 104q-26 12 -49.5 -3.5t-25.5 -32.5 q-23 -40 -46 -145.5t-34 -139.5q-4 -12 -4 -18q-6 -44 -33 -332q-2 -20 -16 -412q-5 -181 -13 -260q-3 -28 -14 -84.5t-14 -85.5q-6 -53 -15 -217l-6 -86q-19 2 -27 3.5t-16.5 4t-21.5 4.5q-60 11 -60 80q0 28 -2 83t-2 83q-2 102 -2 307z" />
<glyph unicode="&#xe0;" horiz-adv-x="698" d="M1 133.5q0 57.5 7 97.5q9 37 18.5 69t22.5 63t20 47t23.5 49.5t20.5 42.5q19 42 43 80q20 33 61 30q22 -3 67 -3t68 -3q30 -2 88 -22q7 -3 27 -37q-13 -1 -30.5 -4.5t-30 -5t-23.5 -0.5q-46 3 -76 -41q-50 -73 -84 -189q-37 -124 -41 -205v-59q30 27 35 35q12 21 49 86.5 t58 99.5q31 48 104 146q23 32 57 24q5 -1 15.5 -1t15.5 -1q65 -5 77.5 -23.5t-7.5 -80.5q-34 -102 -41 -230q0 -6 4 -30q37 54 94.5 111t116.5 95q-24 -58 -50.5 -109t-41.5 -76t-41.5 -65t-34.5 -53q-41 -51 -104 -43t-91 68q-6 11 -41 106q-43 -70 -61 -110 q-27 -57 -59 -70t-91 -8q-91 7 -133 76q-3 6 -7 46t-4 97.5zM203 985q-12 28 22 51q20 17 47 4q37 -23 47 -38q4 -8 7 -17t12 -18q19 -19 31 -46.5t16 -45.5t9 -55.5t7 -49.5q0 -5 -6 -14q-8 0 -8 2q-17 23 -59 56t-58 52q-24 32 -67 119z" />
<glyph unicode="&#xe1;" horiz-adv-x="698" d="M1 133.5q0 57.5 7 97.5q9 37 18.5 69t22.5 63t20 47t23.5 49.5t20.5 42.5q19 42 43 80q20 33 61 30q22 -3 67 -3t68 -3q30 -2 88 -22q7 -3 27 -37q-13 -1 -30.5 -4.5t-30 -5t-23.5 -0.5q-46 3 -76 -41q-50 -73 -84 -189q-37 -124 -41 -205v-59q30 27 35 35q12 21 49 86.5 t58 99.5q31 48 104 146q23 32 57 24q5 -1 15.5 -1t15.5 -1q65 -5 77.5 -23.5t-7.5 -80.5q-34 -102 -41 -230q0 -6 4 -30q37 54 94.5 111t116.5 95q-24 -58 -50.5 -109t-41.5 -76t-41.5 -65t-34.5 -53q-41 -51 -104 -43t-91 68q-6 11 -41 106q-43 -70 -61 -110 q-27 -57 -59 -70t-91 -8q-91 7 -133 76q-3 6 -7 46t-4 97.5zM277.5 765q-5.5 14 1.5 42t18 47q60 96 65 174q0 4 5 14l10 9q17 -7 33.5 -20.5t24.5 -22t26.5 -31.5t21.5 -27l-176 -213q-24 14 -29.5 28z" />
<glyph unicode="&#xe2;" horiz-adv-x="698" d="M1 133.5q0 57.5 7 97.5q9 37 18.5 69t22.5 63t20 47t23.5 49.5t20.5 42.5q19 42 43 80q20 33 61 30q22 -3 67 -3t68 -3q30 -2 88 -22q7 -3 27 -37q-13 -1 -30.5 -4.5t-30 -5t-23.5 -0.5q-46 3 -76 -41q-50 -73 -84 -189q-37 -124 -41 -205v-59q30 27 35 35q12 21 49 86.5 t58 99.5q31 48 104 146q23 32 57 24q5 -1 15.5 -1t15.5 -1q65 -5 77.5 -23.5t-7.5 -80.5q-34 -102 -41 -230q0 -6 4 -30q37 54 94.5 111t116.5 95q-24 -58 -50.5 -109t-41.5 -76t-41.5 -65t-34.5 -53q-41 -51 -104 -43t-91 68q-6 11 -41 106q-43 -70 -61 -110 q-27 -57 -59 -70t-91 -8q-91 7 -133 76q-3 6 -7 46t-4 97.5zM149 813.5q-2 24.5 27 52.5q29 24 166 152q3 3 11.5 8.5t11.5 7.5l28 -14q47 -20 64.5 -42.5t23.5 -68.5q1 -9 17 -63q24 -70 34 -107q3 -6 3 -28q-32 8 -48 49l-38 96q-2 8 -11.5 24t-13.5 23l-80 -65 q-8 -6 -34.5 -26t-39.5 -32q-6 -5 -13.5 -18.5t-10.5 -16.5q-24 -29 -60 7q-35 37 -37 61.5z" />
<glyph unicode="&#xe3;" horiz-adv-x="698" d="M1 133.5q0 57.5 7 97.5q9 37 18.5 69t22.5 63t20 47t23.5 49.5t20.5 42.5q19 42 43 80q20 33 61 30q22 -3 67 -3t68 -3q30 -2 88 -22q7 -3 27 -37q-13 -1 -30.5 -4.5t-30 -5t-23.5 -0.5q-46 3 -76 -41q-50 -73 -84 -189q-37 -124 -41 -205v-59q30 27 35 35q12 21 49 86.5 t58 99.5q31 48 104 146q23 32 57 24q5 -1 15.5 -1t15.5 -1q65 -5 77.5 -23.5t-7.5 -80.5q-34 -102 -41 -230q0 -6 4 -30q37 54 94.5 111t116.5 95q-24 -58 -50.5 -109t-41.5 -76t-41.5 -65t-34.5 -53q-41 -51 -104 -43t-91 68q-6 11 -41 106q-43 -70 -61 -110 q-27 -57 -59 -70t-91 -8q-91 7 -133 76q-3 6 -7 46t-4 97.5zM207 754q-3 19 0 39q15 59 57 104q33 38 90 29q69 -8 127 -72q6 -7 37 -33q23 -16 43 -2q2 1 18.5 11t24.5 14q10 6 23 2q3 -1 3.5 -9t-1.5 -12q-9 -25 -25 -47q-15 -19 -59 -63q-11 -11 -41 -15t-43 0 q-73 32 -94 80q-16 32 -62 39q-7 1 -17.5 -4.5t-15.5 -13.5q-6 -8 -15 -26.5t-15 -26.5q-2 -5 -11 -11.5t-10 -7.5q-14 19 -14 25z" />
<glyph unicode="&#xe4;" horiz-adv-x="698" d="M1 133.5q0 57.5 7 97.5q9 37 18.5 69t22.5 63t20 47t23.5 49.5t20.5 42.5q19 42 43 80q20 33 61 30q22 -3 67 -3t68 -3q30 -2 88 -22q7 -3 27 -37q-13 -1 -30.5 -4.5t-30 -5t-23.5 -0.5q-46 3 -76 -41q-50 -73 -84 -189q-37 -124 -41 -205v-59q30 27 35 35q12 21 49 86.5 t58 99.5q31 48 104 146q23 32 57 24q5 -1 15.5 -1t15.5 -1q65 -5 77.5 -23.5t-7.5 -80.5q-34 -102 -41 -230q0 -6 4 -30q37 54 94.5 111t116.5 95q-24 -58 -50.5 -109t-41.5 -76t-41.5 -65t-34.5 -53q-41 -51 -104 -43t-91 68q-6 11 -41 106q-43 -70 -61 -110 q-27 -57 -59 -70t-91 -8q-91 7 -133 76q-3 6 -7 46t-4 97.5zM184 805q-1 35 19.5 60t54.5 30q33 0 39 -8q54 -62 70 -99q13 -29 -18.5 -58.5t-72.5 -29.5q-35 1 -62.5 33t-29.5 72zM484 763q-4 21 1 46.5t23 46.5q7 8 16 16t22 18t21 17q10 -9 27 -24t30.5 -27.5t24.5 -24.5 q22 -20 20 -31.5t-30 -23.5l-29 -8l15 -86l-31 -6q-20 -1 -37 -2t-32.5 8.5t-24.5 30.5q-12 29 -16 50z" />
<glyph unicode="&#xe5;" horiz-adv-x="698" d="M1 133.5q0 57.5 7 97.5q9 37 18.5 69t22.5 63t20 47t23.5 49.5t20.5 42.5q19 42 43 80q20 33 61 30q22 -3 67 -3t68 -3q30 -2 88 -22q7 -3 27 -37q-13 -1 -30.5 -4.5t-30 -5t-23.5 -0.5q-46 3 -76 -41q-50 -73 -84 -189q-37 -124 -41 -205v-59q30 27 35 35q12 21 49 86.5 t58 99.5q31 48 104 146q23 32 57 24q5 -1 15.5 -1t15.5 -1q65 -5 77.5 -23.5t-7.5 -80.5q-34 -102 -41 -230q0 -6 4 -30q37 54 94.5 111t116.5 95q-24 -58 -50.5 -109t-41.5 -76t-41.5 -65t-34.5 -53q-41 -51 -104 -43t-91 68q-6 11 -41 106q-43 -70 -61 -110 q-27 -57 -59 -70t-91 -8q-91 7 -133 76q-3 6 -7 46t-4 97.5zM208 874q6 28 30 62q22 32 51 51q27 19 121 76q53 27 90 -10q12 -10 35.5 -28t35.5 -28q32 -28 48.5 -55t15.5 -63q-9 -31 -17 -41q-77 -85 -194 -125q-71 -22 -108 -9t-80 74q-19 27 -26.5 47.5t-1.5 48.5z M297 768q125 -2 227 100q5 9 4 26.5t-6 29.5q-13 25 -49 2l-145 -111q-8 -7 -31 -47z" />
<glyph unicode="&#xe6;" horiz-adv-x="888" d="M1.5 82q-3.5 79 6.5 149q7 31 16.5 61t16 49t19 48t17 38t19.5 40t17 35q19 42 43 80q20 33 61 30q24 -3 67.5 -2.5t67.5 -1.5q29 -4 88 -24q3 -2 7 -6.5t9 -12.5t11 -14q3 9 41 92q5 14 13.5 28.5t20 33.5t17.5 28q10 14 39 43q38 41 107 29q12 -2 36.5 -4t36.5 -4 q29 -5 37 -11q60 -35 98 -45q45 -12 35 -51q-9 -27 -14 -37q-80 -141 -238 -286q-66 -62 -96 -107q-18 -27 -18 -90q-1 -34 25.5 -75.5t62.5 -63.5q56 34 88 63q40 36 74 69.5t69 72.5t41 45q9 -86 -18 -131q-33 -55 -66 -89t-94 -77q-33 -22 -71.5 -24t-82.5 11 q-69 19 -126.5 68t-82.5 111q-2 5 -5.5 19.5t-6.5 23.5q0 5 -1 15t-1 15q-91 -229 -92 -231q-27 -57 -59 -70t-91 -8q-91 7 -133 76q-7 13 -10.5 92zM182 43q6 6 15 14t13 13t7 10q19 30 54 92.5t53 93.5q50 74 77 109l7 18q13 55 57 154q-12 -1 -29 -4.5t-29.5 -5 t-23.5 -0.5q-43 5 -76 -39q-50 -76 -84 -191q-36 -124 -41 -203v-61zM629 487q-1 -1 8 -14q143 140 186 238q-40 14 -52 12t-34 -25q-82 -88 -108 -211z" />
<glyph unicode="&#xe7;" horiz-adv-x="518" d="M-86 -455q-5 -22 2 -39t24.5 -36.5t22.5 -26.5q3 -3 12.5 -3.5t16.5 1.5q19 4 52 14t61 16t53 7q35 1 71.5 15t57 28t57.5 41q26 19 29 44.5t-19 51.5q-47 56 -118 47q-3 0 -78 -6l-6 16q76 111 170 176q-38 38 -46 43q-34 25 -55.5 21t-46.5 -39q-9 -12 -74 -119 q-28 -47 -13 -86.5t67 -58.5q6 -2 21 -9.5t28 -13.5zM0 145q-4 273 63 455q10 30 26 59t44 72t35 55q5 8 15.5 15.5t17.5 7.5q139 3 315 -51q2 -1 4 -3.5t5 -6t5 -5.5q-17 -20 -30.5 -41.5t-23 -51.5t-14 -45t-13.5 -54.5t-11 -48.5q-5 -19 -17.5 -54.5t-14.5 -41.5 q-39 11 -53.5 33.5t-10.5 64.5q2 24 8 74.5t8 76.5q4 22 7 80q-8 -4 -21.5 -9.5t-20 -8.5t-13.5 -7.5t-11 -9.5q-34 -43 -41 -79q-38 -174 -47 -248q-4 -35 -4 -104.5t-4 -104.5q-10 -87 24 -148q7 -17 27 -48t27 -42q16 15 62.5 75t59.5 79q19 19 78.5 90.5t98.5 103.5 q-69 -146 -99 -196l-35 -55q-32 -65 -69 -102.5t-71 -48t-69.5 -3t-63.5 26t-54 45.5l-80 82z" />
<glyph unicode="&#xe8;" horiz-adv-x="542" d="M0.5 274.5q1.5 50.5 22.5 118.5q10 38 25 76.5t41.5 96.5t33.5 75q13 29 51 90q4 7 11 15t15.5 16.5t12.5 13.5q39 42 109 29q12 -2 35.5 -4t35.5 -4q23 -3 39 -13q49 -30 96 -43q22 -6 32 -20t5 -31q-7 -26 -16 -39q-84 -147 -238 -286q-69 -65 -96 -107 q-18 -30 -18 -90q0 -35 26.5 -76t63.5 -63q10 8 43.5 32t44.5 33q42 38 124.5 101t104.5 86q-12 -78 -39 -125q-20 -34 -53 -66.5t-55.5 -49.5t-77.5 -56q-33 -23 -71 -25t-83 12q-69 19 -126.5 68t-82.5 111q-2 6 -10 40q-7 34 -5.5 84.5zM240 1126q-6 13 1 28t21 24 q20 17 47 4q16 -9 23.5 -14.5t16.5 -16.5t13 -25q2 -8 13 -18q19 -19 31 -46.5t16 -45.5t9 -55.5t7 -49.5q0 -5 -6 -14q-8 0 -8 2q-17 23 -59 57t-58 52q-26 33 -67 118zM244 487q0 -1 10 -16q143 143 184 240q-40 12 -52 10.5t-32 -23.5q-85 -90 -110 -211z" />
<glyph unicode="&#xe9;" horiz-adv-x="542" d="M0.5 274.5q1.5 50.5 22.5 118.5q10 38 25 76.5t41.5 96.5t33.5 75q13 29 51 90q4 7 11 15t15.5 16.5t12.5 13.5q39 42 109 29q12 -2 35.5 -4t35.5 -4q23 -3 39 -13q49 -30 96 -43q22 -6 32 -20t5 -31q-7 -26 -16 -39q-84 -147 -238 -286q-69 -65 -96 -107 q-18 -30 -18 -90q0 -35 26.5 -76t63.5 -63q10 8 43.5 32t44.5 33q42 38 124.5 101t104.5 86q-12 -78 -39 -125q-20 -34 -53 -66.5t-55.5 -49.5t-77.5 -56q-33 -23 -71 -25t-83 12q-69 19 -126.5 68t-82.5 111q-2 6 -10 40q-7 34 -5.5 84.5zM244 487q0 -1 10 -16 q143 143 184 240q-40 12 -52 10.5t-32 -23.5q-85 -90 -110 -211zM369.5 916.5q-5.5 13.5 1.5 41.5q7 29 18 48q61 98 66 174q0 6 4 14l10 8q17 -7 34 -21t23.5 -21t27 -31.5t21.5 -26.5l-176 -213q-24 14 -29.5 27.5z" />
<glyph unicode="&#xea;" horiz-adv-x="542" d="M0.5 274.5q1.5 50.5 22.5 118.5q10 38 25 76.5t41.5 96.5t33.5 75q13 29 51 90q4 7 11 15t15.5 16.5t12.5 13.5q39 42 109 29q12 -2 35.5 -4t35.5 -4q23 -3 39 -13q49 -30 96 -43q22 -6 32 -20t5 -31q-7 -26 -16 -39q-84 -147 -238 -286q-69 -65 -96 -107 q-18 -30 -18 -90q0 -35 26.5 -76t63.5 -63q10 8 43.5 32t44.5 33q42 38 124.5 101t104.5 86q-12 -78 -39 -125q-20 -34 -53 -66.5t-55.5 -49.5t-77.5 -56q-33 -23 -71 -25t-83 12q-69 19 -126.5 68t-82.5 111q-2 6 -10 40q-7 34 -5.5 84.5zM129 940.5q-2 24.5 27 52.5 q28 25 166 152q3 3 11.5 8.5t10.5 7.5l29 -14q47 -20 64.5 -42.5t23.5 -68.5q1 -15 16 -63q29 -84 35 -107q2 -4 2 -28q-11 3 -19 8t-13.5 12.5t-8 13t-6.5 15.5l-39 96q-2 8 -11.5 24t-13.5 23l-79 -65q-8 -6 -34.5 -26t-39.5 -32q-6 -5 -14.5 -18.5t-10.5 -16.5 q-23 -29 -59 7q-35 37 -37 61.5zM244 487q0 -1 10 -16q143 143 184 240q-40 12 -52 10.5t-32 -23.5q-85 -90 -110 -211z" />
<glyph unicode="&#xeb;" horiz-adv-x="542" d="M0.5 274.5q1.5 50.5 22.5 118.5q10 38 25 76.5t41.5 96.5t33.5 75q13 29 51 90q4 7 11 15t15.5 16.5t12.5 13.5q39 42 109 29q12 -2 35.5 -4t35.5 -4q23 -3 39 -13q49 -30 96 -43q22 -6 32 -20t5 -31q-7 -26 -16 -39q-84 -147 -238 -286q-69 -65 -96 -107 q-18 -30 -18 -90q0 -35 26.5 -76t63.5 -63q10 8 43.5 32t44.5 33q42 38 124.5 101t104.5 86q-12 -78 -39 -125q-20 -34 -53 -66.5t-55.5 -49.5t-77.5 -56q-33 -23 -71 -25t-83 12q-69 19 -126.5 68t-82.5 111q-2 6 -10 40q-7 34 -5.5 84.5zM100 989q-1 35 19.5 60t54.5 30 q33 0 39 -8q55 -63 70 -98q13 -29 -18 -58.5t-72 -29.5q-35 2 -63.5 33t-29.5 71zM244 487q0 -1 10 -16q143 143 184 240q-40 12 -52 10.5t-32 -23.5q-85 -90 -110 -211zM400 947q-4 21 1 46.5t23 46.5q7 8 16 16t22 18.5t21 17.5q10 -9 27 -24t30.5 -27.5t24.5 -24.5 q22 -20 20 -31.5t-30 -23.5l-29 -9l15 -86l-31 -6q-20 -1 -37 -2t-32.5 8.5t-24.5 30.5q-12 29 -16 50z" />
<glyph unicode="&#xec;" horiz-adv-x="274" d="M18 246q0 1 1 14.5t2 27.5t0.5 30t-3.5 24q-3 65 0.5 101.5t24.5 107.5q4 6 10 20t13.5 22.5t21.5 10.5q5 1 22.5 3t25.5 2.5t22 -0.5t25.5 -6.5t23.5 -14.5q-24 -43 -29 -103.5t0 -109.5q2 -30 -6 -141.5t-2 -151.5q9 13 39.5 54t46 61t39 44t41.5 33q-29 -71 -90 -174 t-74 -104q-64 0 -88 12q-51 12 -59 101q-2 18 -3.5 68.5t-3.5 68.5zM41 985q-12 28 22 51q21 18 48 4q13 -8 17.5 -11t14 -10.5t14 -15.5t7.5 -18q3 -9 12 -18q19 -19 31 -46.5t16 -45t9.5 -56t7.5 -49.5q0 -4 -7 -14q-8 0 -8 2q-17 23 -58.5 56.5t-57.5 51.5 q-27 35 -68 119z" />
<glyph unicode="&#xed;" horiz-adv-x="274" d="M18 246q0 1 1 14.5t2 27.5t0.5 30t-3.5 24q-3 65 0.5 101.5t24.5 107.5q4 6 10 20t13.5 22.5t21.5 10.5q5 1 22.5 3t25.5 2.5t22 -0.5t25.5 -6.5t23.5 -14.5q-24 -43 -29 -103.5t0 -109.5q2 -30 -6 -141.5t-2 -151.5q9 13 39.5 54t46 61t39 44t41.5 33q-29 -71 -90 -174 t-74 -104q-64 0 -88 12q-51 12 -59 101q-2 18 -3.5 68.5t-3.5 68.5zM38 783.5q-6 13.5 1 41.5t18 47q61 98 66 175q0 6 4 14l10 8q13 -6 25 -14t24.5 -20t19 -19.5t20.5 -24.5t18 -22l-176 -213q-24 14 -30 27.5z" />
<glyph unicode="&#xee;" horiz-adv-x="274" d="M-84 793q-2 25 27 53q43 37 166 151q2 2 22 17l29 -15q47 -20 64.5 -42t23.5 -68q2 -16 16 -64q30 -87 35 -106q2 -4 2 -29q-11 3 -19 8t-13.5 12.5t-8 13t-6.5 15.5l-39 97q-2 8 -11.5 24t-13.5 23l-79 -66q-9 -8 -35 -27t-39 -30q-6 -5 -14.5 -18.5t-10.5 -16.5 q-24 -29 -59 6q-35 37 -37 62zM18 246q0 1 1 14.5t2 27.5t0.5 30t-3.5 24q-3 65 0.5 101.5t24.5 107.5q4 6 10 20t13.5 22.5t21.5 10.5q5 1 22.5 3t25.5 2.5t22 -0.5t25.5 -6.5t23.5 -14.5q-24 -43 -29 -103.5t0 -109.5q2 -30 -6 -141.5t-2 -151.5q9 13 39.5 54t46 61t39 44 t41.5 33q-29 -71 -90 -174t-74 -104q-64 0 -88 12q-51 12 -59 101q-2 18 -3.5 68.5t-3.5 68.5z" />
<glyph unicode="&#xef;" horiz-adv-x="274" d="M-94 829q-1 35 19.5 60.5t54.5 30.5q31 0 38 -9q55 -63 70 -98q13 -29 -18 -58.5t-72 -29.5q-35 1 -62.5 32.5t-29.5 71.5zM18 246q0 1 1 14.5t2 27.5t0.5 30t-3.5 24q-3 65 0.5 101.5t24.5 107.5q4 6 10 20t13.5 22.5t21.5 10.5q5 1 22.5 3t25.5 2.5t22 -0.5t25.5 -6.5 t23.5 -14.5q-24 -43 -29 -103.5t0 -109.5q2 -30 -6 -141.5t-2 -151.5q9 13 39.5 54t46 61t39 44t41.5 33q-29 -71 -90 -174t-74 -104q-64 0 -88 12q-51 12 -59 101q-2 18 -3.5 68.5t-3.5 68.5zM205.5 787.5q-4.5 21.5 0.5 47t23 46.5q9 10 31.5 28t28.5 23q10 -9 27 -24 t30.5 -27.5t24.5 -24.5q22 -20 19.5 -31.5t-30.5 -23.5l-28 -8l14 -86l-31 -7q-20 -1 -37 -2t-32.5 8.5t-24.5 30.5q-11 29 -15.5 50.5z" />
<glyph unicode="&#xf1;" horiz-adv-x="669" d="M0 125q-1 40 9 140.5t20 181.5l10 81q5 5 7.5 12t3.5 23t1 17q-2 20 4.5 54t14.5 42q9 3 33 4t50 -11.5t29 -33.5l4 -80q-8 -19 -7.5 -55t-0.5 -58q-2 -19 -9.5 -54.5t-8.5 -41.5l10 -8q2 2 14 12t17 17q90 134 229 251q29 26 68 35q27 6 44.5 -4t39.5 -37 q39 -52 24 -120q-5 -22 -24.5 -132.5t-40.5 -166.5q-8 -21 -11 -34t2.5 -34t24.5 -39q63 49 172 190q8 -144 -72 -235q-37 -33 -74.5 -38.5t-70.5 8.5t-72 46q-24 17 -28 47q-10 49 -13.5 72t0 61.5t19.5 67.5l55 117q34 82 21 156q-45 -39 -50 -46q-13 -21 -69 -104.5 t-79 -120.5t-60 -104t-62 -125q-6 -13 -19.5 -35.5t-17.5 -30.5q-56 -2 -96 30.5t-41 82.5zM123 811q-3 19 0 39q15 59 57 104q33 38 90 29q69 -8 127 -72q3 -4 37 -32q23 -16 43 -2q39 22 43 24q10 6 23 2q3 -1 3.5 -8.5t-1.5 -11.5q-9 -25 -25 -47q-19 -24 -59 -64 q-11 -11 -43 -14.5t-41 0.5q-73 32 -94 80q-16 32 -62 39q-7 1 -17.5 -5t-15.5 -14q-6 -8 -15 -26.5t-15 -26.5q-2 -5 -11 -11.5t-10 -7.5q-14 19 -14 25z" />
<glyph unicode="&#xf2;" horiz-adv-x="499" d="M0 334l12 131q27 171 111 356l18 31q25 55 95 39q110 -27 151 -35q0 -2 1 -6t1 -6q-11 -8 -31.5 -20t-36.5 -23t-28 -23q-48 -52 -41 -102q110 -21 192 -33l39 -166q-1 -28 -23 -77t-32 -93l-22 -98q8 -8 16 -8q19 -1 62 30t77 45q-14 -67 -59 -102q-24 -21 -37.5 -29 t-33.5 -12t-40 6q-4 0 -6 2q-12 -48 -29 -88q-18 -50 -46.5 -80.5t-78.5 -31.5q-92 -3 -174 57q-52 37 -55 104v195q0 6 -1 18.5t-1 18.5zM143 158q-2 -43 13 -121q2 -11 10.5 -23.5t17.5 -15.5q14 -6 39 14q16 13 23 33q34 79 69 195l-6 26q-11 38 -13.5 102.5t7.5 137.5 q-51 64 -51 133q-10 0 -16 2q-2 -3 -8 -11t-7 -12q-68 -202 -78 -460zM190 1184q-6 13 1.5 27t21.5 24q20 17 47 4q13 -8 17.5 -11t14 -10.5t14 -15.5t7.5 -18q3 -9 13 -19q19 -19 31 -46t16 -45t9 -55.5t7 -49.5q0 -6 -6 -15q-8 0 -8 2q-17 23 -59 57t-58 52 q-27 35 -68 119z" />
<glyph unicode="&#xf3;" horiz-adv-x="499" d="M0 334l12 131q27 171 111 356l18 31q25 55 95 39q110 -27 151 -35q0 -2 1 -6t1 -6q-11 -8 -31.5 -20t-36.5 -23t-28 -23q-48 -52 -41 -102q110 -21 192 -33l39 -166q-1 -28 -23 -77t-32 -93l-22 -98q8 -8 16 -8q19 -1 62 30t77 45q-14 -67 -59 -102q-24 -21 -37.5 -29 t-33.5 -12t-40 6q-4 0 -6 2q-12 -48 -29 -88q-18 -50 -46.5 -80.5t-78.5 -31.5q-92 -3 -174 57q-52 37 -55 104v195q0 6 -1 18.5t-1 18.5zM143 158q-2 -43 13 -121q2 -11 10.5 -23.5t17.5 -15.5q14 -6 39 14q16 13 23 33q34 79 69 195l-6 26q-11 38 -13.5 102.5t7.5 137.5 q-51 64 -51 133q-10 0 -16 2q-2 -3 -8 -11t-7 -12q-68 -202 -78 -460zM285.5 964q-5.5 14 1.5 42t18 47q61 98 66 174q0 6 4 14l10 8q13 -6 25 -14t24.5 -20t19 -19.5t20.5 -24.5t18 -22l-177 -213q-24 14 -29.5 28z" />
<glyph unicode="&#xf4;" horiz-adv-x="499" d="M0 334l12 131q27 171 111 356l18 31q25 55 95 39q110 -27 151 -35q0 -2 1 -6t1 -6q-11 -8 -31.5 -20t-36.5 -23t-28 -23q-48 -52 -41 -102q110 -21 192 -33l39 -166q-1 -28 -23 -77t-32 -93l-22 -98q8 -8 16 -8q19 -1 62 30t77 45q-14 -67 -59 -102q-24 -21 -37.5 -29 t-33.5 -12t-40 6q-4 0 -6 2q-12 -48 -29 -88q-18 -50 -46.5 -80.5t-78.5 -31.5q-92 -3 -174 57q-52 37 -55 104v195q0 6 -1 18.5t-1 18.5zM47 1018q-2 25 27 53q28 25 166 152q3 3 6.5 5.5t8 5.5l7.5 5l29 -14q47 -20 64.5 -42.5t23.5 -68.5q1 -14 16 -63q29 -84 35 -107 q2 -4 2 -29q-14 4 -24 13t-13.5 16t-9.5 21l-39 96q-2 6 -5.5 13t-9 17t-9.5 17l-80 -66q-9 -8 -35 -27t-39 -30q-6 -5 -14.5 -18.5t-10.5 -16.5q-24 -29 -59 6q-35 37 -37 62zM143 158q-2 -43 13 -121q2 -11 10.5 -23.5t17.5 -15.5q14 -6 39 14q16 13 23 33q34 79 69 195 l-6 26q-11 38 -13.5 102.5t7.5 137.5q-51 64 -51 133q-10 0 -16 2q-2 -3 -8 -11t-7 -12q-68 -202 -78 -460z" />
<glyph unicode="&#xf5;" horiz-adv-x="499" d="M0 334l12 131q27 171 111 356l18 31q25 55 95 39q110 -27 151 -35q0 -2 1 -6t1 -6q-11 -8 -31.5 -20t-36.5 -23t-28 -23q-48 -52 -41 -102q110 -21 192 -33l39 -166q-1 -28 -23 -77t-32 -93l-22 -98q8 -8 16 -8q19 -1 62 30t77 45q-14 -67 -59 -102q-24 -21 -37.5 -29 t-33.5 -12t-40 6q-4 0 -6 2q-12 -48 -29 -88q-18 -50 -46.5 -80.5t-78.5 -31.5q-92 -3 -174 57q-52 37 -55 104v195q0 6 -1 18.5t-1 18.5zM96 997q-3 19 0 39q15 59 58 105q32 37 90 28q70 -8 127 -71q6 -7 37 -33q23 -16 43 -2q39 22 43 24q10 7 22 3q3 -1 3.5 -9t-1.5 -12 q-11 -28 -24 -47q-15 -19 -60 -64q-11 -11 -43 -14.5t-41 0.5q-73 32 -94 80q-17 32 -61 39q-7 1 -17.5 -5t-15.5 -14q-6 -8 -15.5 -26.5t-15.5 -26.5q-2 -5 -10.5 -11t-9.5 -7q-15 20 -15 24zM143 158q-2 -43 13 -121q2 -11 10.5 -23.5t17.5 -15.5q14 -6 39 14q16 13 23 33 q34 79 69 195l-6 26q-11 38 -13.5 102.5t7.5 137.5q-51 64 -51 133q-10 0 -16 2q-2 -3 -8 -11t-7 -12q-68 -202 -78 -460z" />
<glyph unicode="&#xf6;" horiz-adv-x="499" d="M0 334l12 131q27 171 111 356l18 31q25 55 95 39q110 -27 151 -35q0 -2 1 -6t1 -6q-11 -8 -31.5 -20t-36.5 -23t-28 -23q-48 -52 -41 -102q110 -21 192 -33l39 -166q-1 -28 -23 -77t-32 -93l-22 -98q8 -8 16 -8q19 -1 62 30t77 45q-14 -67 -59 -102q-24 -21 -37.5 -29 t-33.5 -12t-40 6q-4 0 -6 2q-12 -48 -29 -88q-18 -50 -46.5 -80.5t-78.5 -31.5q-92 -3 -174 57q-52 37 -55 104v195q0 6 -1 18.5t-1 18.5zM68 1087q-2 35 18.5 61t54.5 30q32 0 39 -9q55 -63 70 -98q13 -29 -18 -58.5t-72 -29.5q-35 1 -62.5 32.5t-29.5 71.5zM143 158 q-2 -43 13 -121q2 -11 10.5 -23.5t17.5 -15.5q14 -6 39 14q16 13 23 33q34 79 69 195l-6 26q-11 38 -13.5 102.5t7.5 137.5q-51 64 -51 133q-10 0 -16 2q-2 -3 -8 -11t-7 -12q-68 -202 -78 -460zM367.5 1045.5q-4.5 21.5 0.5 47t23 46.5q9 10 31.5 28t28.5 23 q9 -9 26.5 -24.5t30.5 -27.5t24 -24q22 -20 20 -31.5t-30 -23.5l-28 -8l14 -86l-31 -7q-20 -1 -37 -2t-32.5 8.5t-24.5 30.5q-11 29 -15.5 50.5z" />
<glyph unicode="&#xf8;" horiz-adv-x="499" d="M-31 -219q9 33 11 37q4 9 28.5 80t40.5 106q-44 38 -47 98v195q0 6 -1 18.5t-1 18.5l12 131q27 171 111 356l18 31q25 55 95 39q110 -27 151 -35q0 -2 1 -6t1 -6q-11 -8 -31.5 -20t-36.5 -23t-28 -23q-48 -52 -41 -102q64 -14 108 -21l80 193q3 9 17 37q23 43 44 49.5 t56 -19.5q-43 -90 -125 -270q4 -2 12 -2l39 -166q-1 -28 -23 -77t-32 -93l-22 -98q8 -8 16 -8q19 -1 62 30t77 45q-14 -67 -59 -102q-24 -21 -37.5 -29t-33.5 -12t-40 6q-4 0 -6 2q-12 -48 -29 -88q-18 -50 -46.5 -80.5t-78.5 -31.5q-60 0 -116 24q-1 -4 -11 -37l-26 -86 q-6 -19 -20 -56t-17 -46q-8 -6 -16 -6t-15 5t-12.5 10.5t-14.5 16t-14 15.5zM147 229q64 158 111 234q18 27 33 57q-39 55 -39 119q-10 0 -16 2q-2 -3 -8 -11t-7 -12q-61 -175 -74 -389zM154 45q0 -6 2 -8q2 -11 10.5 -23.5t17.5 -15.5q14 -6 39 14q16 13 23 33 q34 79 69 195l-6 26q-11 37 -14 92l-35 -82q-39 -97 -106 -231z" />
<glyph unicode="&#xf9;" horiz-adv-x="735" d="M0 96q1 31 3 66t5 77t4 66q2 14 2 49l52 166q4 14 29 99.5t40 130.5q17 55 28.5 64.5t67.5 12.5q52 3 78 -2t68 -28l-19 -35q-2 -4 -6.5 -11.5t-7.5 -14t-4 -11.5q-8 -55 -22 -115t-34.5 -134.5t-29.5 -113.5q-2 -9 -25 -145q-4 -37 -10 -55q-21 -62 2 -127q7 4 13 9.5 t10 10t9 13.5t7 13t6.5 15t5.5 13q25 55 72 166.5t72 166.5q2 4 10.5 22t11.5 24t9.5 21.5t9.5 24.5t7 23t6 26t3 25q1 10 6 21t14 25.5t13 21.5q18 -2 48.5 1t58.5 2t53 -13l-27 -68q-3 -8 -10.5 -28.5t-11.5 -35t-5 -28.5q-6 -129 -6 -258q1 -24 9.5 -71t9.5 -56l-4 -15 q6 3 12 9q98 104 164 159q-22 -62 -40.5 -104t-27.5 -58t-31 -53q-54 -66 -163 -34q-82 24 -91 110q-4 57 -18 86q-18 -31 -23 -45q-5 -13 -15.5 -38t-18.5 -45t-13 -38q-16 -56 -71.5 -89t-124 -28.5t-117.5 48.5q-46 43 -43 110zM330 1049q-12 28 22 51q20 17 47 4 q37 -23 47 -38q4 -8 7 -17q3 -11 12 -19q19 -19 31 -46t16 -45t9 -55.5t7 -49.5q0 -6 -6 -15q-8 0 -8 2q-17 23 -59 57t-58 52q-24 32 -67 119z" />
<glyph unicode="&#xfa;" horiz-adv-x="735" d="M0 96q1 31 3 66t5 77t4 66q2 14 2 49l52 166q4 14 29 99.5t40 130.5q17 55 28.5 64.5t67.5 12.5q52 3 78 -2t68 -28l-19 -35q-2 -4 -6.5 -11.5t-7.5 -14t-4 -11.5q-8 -55 -22 -115t-34.5 -134.5t-29.5 -113.5q-2 -9 -25 -145q-4 -37 -10 -55q-21 -62 2 -127q7 4 13 9.5 t10 10t9 13.5t7 13t6.5 15t5.5 13q25 55 72 166.5t72 166.5q2 4 10.5 22t11.5 24t9.5 21.5t9.5 24.5t7 23t6 26t3 25q1 10 6 21t14 25.5t13 21.5q18 -2 48.5 1t58.5 2t53 -13l-27 -68q-3 -8 -10.5 -28.5t-11.5 -35t-5 -28.5q-6 -129 -6 -258q1 -24 9.5 -71t9.5 -56l-4 -15 q6 3 12 9q98 104 164 159q-22 -62 -40.5 -104t-27.5 -58t-31 -53q-54 -66 -163 -34q-82 24 -91 110q-4 57 -18 86q-18 -31 -23 -45q-5 -13 -15.5 -38t-18.5 -45t-13 -38q-16 -56 -71.5 -89t-124 -28.5t-117.5 48.5q-46 43 -43 110zM392 892q-6 14 1 42q6 24 19 47 q60 96 65 174q0 6 4 14l11 9q17 -7 33.5 -20.5t24.5 -22t26.5 -31.5t21.5 -27l-176 -213q-24 14 -30 28z" />
<glyph unicode="&#xfb;" horiz-adv-x="735" d="M0 96q1 31 3 66t5 77t4 66q2 14 2 49l52 166q4 14 29 99.5t40 130.5q17 55 28.5 64.5t67.5 12.5q52 3 78 -2t68 -28l-19 -35q-2 -4 -6.5 -11.5t-7.5 -14t-4 -11.5q-8 -55 -22 -115t-34.5 -134.5t-29.5 -113.5q-2 -9 -25 -145q-4 -37 -10 -55q-21 -62 2 -127q7 4 13 9.5 t10 10t9 13.5t7 13t6.5 15t5.5 13q25 55 72 166.5t72 166.5q2 4 10.5 22t11.5 24t9.5 21.5t9.5 24.5t7 23t6 26t3 25q1 10 6 21t14 25.5t13 21.5q18 -2 48.5 1t58.5 2t53 -13l-27 -68q-3 -8 -10.5 -28.5t-11.5 -35t-5 -28.5q-6 -129 -6 -258q1 -24 9.5 -71t9.5 -56l-4 -15 q6 3 12 9q98 104 164 159q-22 -62 -40.5 -104t-27.5 -58t-31 -53q-54 -66 -163 -34q-82 24 -91 110q-4 57 -18 86q-18 -31 -23 -45q-5 -13 -15.5 -38t-18.5 -45t-13 -38q-16 -56 -71.5 -89t-124 -28.5t-117.5 48.5q-46 43 -43 110zM186 967q-2 25 27 53q43 37 166 151 q2 2 22 17l29 -14q47 -20 64.5 -42.5t23.5 -68.5q1 -11 17 -64q25 -74 34 -106q2 -4 2 -29q-11 3 -19 8t-13.5 12.5t-8 13t-6.5 15.5l-39 97q-2 6 -5.5 13t-9 17t-9.5 17l-80 -66q-9 -8 -35 -27t-39 -30q-6 -5 -13.5 -18.5t-10.5 -16.5q-24 -30 -60 6q-35 37 -37 62z" />
<glyph unicode="&#xfc;" horiz-adv-x="735" d="M0 96q1 31 3 66t5 77t4 66q2 14 2 49l52 166q4 14 29 99.5t40 130.5q17 55 28.5 64.5t67.5 12.5q52 3 78 -2t68 -28l-19 -35q-2 -4 -6.5 -11.5t-7.5 -14t-4 -11.5q-8 -55 -22 -115t-34.5 -134.5t-29.5 -113.5q-2 -9 -25 -145q-4 -37 -10 -55q-21 -62 2 -127q7 4 13 9.5 t10 10t9 13.5t7 13t6.5 15t5.5 13q25 55 72 166.5t72 166.5q2 4 10.5 22t11.5 24t9.5 21.5t9.5 24.5t7 23t6 26t3 25q1 10 6 21t14 25.5t13 21.5q18 -2 48.5 1t58.5 2t53 -13l-27 -68q-3 -8 -10.5 -28.5t-11.5 -35t-5 -28.5q-6 -129 -6 -258q1 -24 9.5 -71t9.5 -56l-4 -15 q6 3 12 9q98 104 164 159q-22 -62 -40.5 -104t-27.5 -58t-31 -53q-54 -66 -163 -34q-82 24 -91 110q-4 57 -18 86q-18 -31 -23 -45q-5 -13 -15.5 -38t-18.5 -45t-13 -38q-16 -56 -71.5 -89t-124 -28.5t-117.5 48.5q-46 43 -43 110zM170 1022q-1 35 19.5 60t54.5 30 q33 0 39 -8q53 -61 69 -98q13 -29 -18 -58.5t-72 -29.5q-35 1 -62.5 32.5t-29.5 71.5zM469.5 980.5q-4.5 21.5 0.5 46.5t24 46q7 8 16 16t22 18t21 17q7 -7 37 -33t45 -42q22 -20 20 -32t-30 -24l-29 -8l14 -86l-30 -6q-20 -1 -37.5 -2t-33 8.5t-24.5 30.5 q-11 29 -15.5 50.5z" />
<glyph unicode="&#xfd;" horiz-adv-x="811" d="M-12.5 196.5q2.5 32.5 2.5 42.5t5 43t6.5 43t7 42.5t7.5 42.5q7 39 15 59t24 33t41 11t66 -17q30 -10 45 -23.5t17 -32t-1 -35.5t-9.5 -45t-8.5 -49q-6 -47 -13.5 -133.5t-9.5 -105.5q-9 -73 -5 -90q10 -38 69 -2q11 7 21 18t21.5 28.5t17.5 27.5t17.5 32.5t12.5 24.5 q60 99 100 190q13 27 27.5 84t25.5 82q19 41 55.5 54t71 0.5t59.5 -47.5t23 -81q-1 -18 -7.5 -44.5t-12.5 -46t-6 -43.5t10 -42q13 -24 29.5 -30.5t36.5 3t38.5 23.5t43 33t42.5 28q-22 -65 -69.5 -143.5t-52.5 -103.5q-10 -57 2 -162t10 -146q-1 -17 -2 -61t-3 -76.5 t-5.5 -82.5t-10.5 -88t-17.5 -83t-27 -77.5t-38 -61.5t-52 -45t-67.5 -18q-66 -4 -112.5 23t-69 79.5t-32.5 119.5t-4 150t16.5 164.5t29 168t34 155t30.5 132.5t20 93q-11 -20 -40 -84t-51.5 -108t-61 -87.5t-79.5 -52.5q-46 -11 -84.5 3t-64 43t-44 69.5t-27.5 80.5 t-11 79q-3 10 -0.5 42.5zM263 599q-6 14 1 42q6 24 19 47q60 96 65 174q0 7 4 15l10 8q17 -7 34 -21t24 -21t27.5 -32.5t21.5 -26.5l-176 -213q-24 14 -30 28zM507 -565.5q-1 -58.5 7 -101t26 -83.5t48 -67q36 67 58.5 151t31.5 182.5t11.5 168.5t2.5 172q0 4 0.5 27.5 t1 46.5t0 54.5t-3 58t-6.5 49.5t-12 35.5t-19 10.5q-10 -2 -22.5 -32t-23.5 -76t-19.5 -88.5t-16 -84t-8.5 -46.5q-11 -49 -18 -79t-18 -91.5t-15 -105t-5 -102z" />
<glyph unicode="&#xff;" horiz-adv-x="811" d="M-12.5 196.5q2.5 32.5 2.5 42.5t5 43t6.5 43t7 42.5t7.5 42.5q7 39 15 59t24 33t41 11t66 -17q30 -10 45 -23.5t17 -32t-1 -35.5t-9.5 -45t-8.5 -49q-6 -47 -13.5 -133.5t-9.5 -105.5q-9 -73 -5 -90q10 -38 69 -2q11 7 21 18t21.5 28.5t17.5 27.5t17.5 32.5t12.5 24.5 q60 99 100 190q13 27 27.5 84t25.5 82q19 41 55.5 54t71 0.5t59.5 -47.5t23 -81q-1 -18 -7.5 -44.5t-12.5 -46t-6 -43.5t10 -42q13 -24 29.5 -30.5t36.5 3t38.5 23.5t43 33t42.5 28q-22 -65 -69.5 -143.5t-52.5 -103.5q-10 -57 2 -162t10 -146q-1 -17 -2 -61t-3 -76.5 t-5.5 -82.5t-10.5 -88t-17.5 -83t-27 -77.5t-38 -61.5t-52 -45t-67.5 -18q-66 -4 -112.5 23t-69 79.5t-32.5 119.5t-4 150t16.5 164.5t29 168t34 155t30.5 132.5t20 93q-11 -20 -40 -84t-51.5 -108t-61 -87.5t-79.5 -52.5q-46 -11 -84.5 3t-64 43t-44 69.5t-27.5 80.5 t-11 79q-3 10 -0.5 42.5zM139 709q-1 35 19.5 60t54.5 30q33 0 39 -8q54 -62 70 -99q13 -29 -18.5 -58.5t-72.5 -29.5q-35 1 -62.5 33t-29.5 72zM439.5 666.5q-4.5 21.5 0.5 47t23 46.5q7 8 16 16t22 18t21 17q10 -9 27 -24t30.5 -27.5t24.5 -24.5q22 -20 20 -31.5 t-30 -23.5l-29 -8l15 -86l-31 -6q-28 -7 -54.5 -0.5t-39.5 36.5q-11 29 -15.5 50.5zM507 -565.5q-1 -58.5 7 -101t26 -83.5t48 -67q36 67 58.5 151t31.5 182.5t11.5 168.5t2.5 172q0 4 0.5 27.5t1 46.5t0 54.5t-3 58t-6.5 49.5t-12 35.5t-19 10.5q-10 -2 -22.5 -32 t-23.5 -76t-19.5 -88.5t-16 -84t-8.5 -46.5q-11 -49 -18 -79t-18 -91.5t-15 -105t-5 -102z" />
<glyph unicode="&#x152;" horiz-adv-x="1091" d="M0 362q12 165 31 256q24 102 37 240q2 17 5 35t5.5 32t8 35t7.5 31t10 34t10 30.5t11.5 33.5t10.5 30.5t12.5 33.5t11.5 31q7 21 23 60t20 50q20 46 36 53.5t70 -4.5q17 -3 35 -10q38 -18 54.5 -29t25 -28t5.5 -35.5t-15 -54.5q-15 -49 -67.5 -147.5t-67.5 -147.5 q-10 -39 -21 -66q-1 -2 -22 -12l-19 -12l37 -13q-21 -240 -23 -272v-55q0 -4 3.5 -17.5t1.5 -19.5q-13 -33 -15 -70.5t1.5 -87t2.5 -73.5q0 -8 -2.5 -30.5t-1.5 -33.5q2 -21 25 -40t55 -37.5t43 -31.5q37 20 57 66q0 84 5 143q11 98 61 205q27 60 88 68q11 1 32 6t29 6 q-6 21 -10 29q-79 158 -76 338q7 283 134 479q20 33 61 33q124 -3 176 -17q25 -6 47 -16q20 -7 58 -16.5t49 -12.5q73 -23 102 -82q26 -58 19 -86q-57 -197 -121 -289q-38 -52 -125 -45q-33 3 -44.5 27t3.5 55q11 25 31.5 70t37 82.5t31.5 71.5q13 31 16.5 55t0.5 70 q-92 28 -121 34q-32 8 -48.5 0t-31.5 -39q-87 -168 -90 -331q-1 -57 9 -114t32 -138.5t28 -108.5q2 -9 7 -18.5t14 -22t12 -18.5q20 -37 5 -61t-56 -29q-7 -1 -21.5 -1.5t-23 -1.5t-19.5 -6.5t-20 -15.5q-29 -33 -37 -106q-3 -31 -4.5 -62.5t-0.5 -71.5t1.5 -59t3.5 -70 t4 -61l8 -35q49 34 56 41q66 72 186 205q34 43 59 63q54 47 117 25q-3 -5 -7 -16.5t-7 -16.5q-101 -143 -133 -182q-79 -99 -144 -160q-73 -70 -163 -47q-9 2 -28 4t-28 4q-79 13 -123 66q-18 -12 -20 -14q-49 -30 -92 -23q-129 23 -202.5 87.5t-98.5 201.5q-2 8 -6.5 24 t-6.5 26.5t-1 24t8 25.5q-27 33 -23 100zM139 1047h4l-2 2zM158 985l8 -4v4q0 2 -4 2q-2 -2 -4 -2zM244 907h4v8l-4 -2v-6zM702 565h5q1 0 2 2t2 2l-4 4q-5 -5 -5 -8z" />
<glyph unicode="&#x153;" horiz-adv-x="829" d="M0 334l12 131q27 169 111 356q3 6 18 31q8 18 20 24t37 9t38 6q55 16 146 -22t112 -70q14 -24 1 -30q-11 -6 -21 10q-2 2 -3 5q-7 15 -34.5 25.5t-69 4.5t-74.5 -36q-20 -19 -33.5 -41t-17.5 -35t-11 -43.5t-10 -40.5q-70 -238 -78 -458q-2 -45 13 -123q2 -11 10.5 -23.5 t17.5 -15.5q14 -6 39 14q16 13 23 33q44 105 80 227q0 48 22 121q18 67 101 250q4 10 51 90q10 14 39 43q38 41 106 29q13 -2 37 -4t37 -4q29 -5 39 -11q54 -34 96 -45q45 -12 35 -51q-7 -21 -15 -37q-81 -143 -237 -286q-66 -62 -96 -107q-19 -29 -19 -90 q-1 -34 25.5 -75.5t62.5 -63.5q56 34 88 63q40 36 73.5 69t71 74t40.5 44q8 -86 -19 -131q-34 -55 -66.5 -89t-92.5 -77q-33 -22 -71.5 -24t-82.5 11q-110 31 -178 125l-17 -43q-18 -50 -46.5 -80.5t-78.5 -31.5q-92 -3 -174 57q-52 40 -55 104v195q0 6 -1 18.5t-1 18.5z M569 487q0 -2 4 -6.5t5 -7.5q143 140 186 238q-40 14 -52 12t-34 -25q-83 -89 -109 -211z" />
<glyph unicode="&#x178;" horiz-adv-x="503" d="M-219 1350q37 29 96.5 31.5t93.5 -19.5q25 -15 48 -39t34.5 -41t32.5 -51.5t29 -46.5q4 -7 5.5 -18.5t0.5 -22t0 -23.5q6 -1 14.5 -4t11.5 -4q16 -8 27.5 -19t19 -27t11.5 -27t9.5 -32.5t8.5 -29.5l8 -23v2q3 -13 17 -45q9 -4 17 -1.5t18 -0.5t16 -16q22 -40 68 -6 q30 23 43 43q25 35 73 93.5t85 109t63 100.5q11 22 51 67q24 25 45 35t51 0q17 -4 35.5 -7t48 -6.5t47.5 -6.5q-10 -7 -24 -17.5t-22.5 -16t-16.5 -9.5q-21 -11 -42.5 -29t-32 -30t-33.5 -40.5t-29 -35.5l-177 -205q-83 -92 -112 -121q-31 -27 -17 -66q15 -37 12.5 -74 t-28.5 -73q-7 -9 -11 -20t-6 -26t-3 -24.5t-1.5 -29t-0.5 -25.5q-1 0 -1 -105l1 -104q0 -12 -2.5 -38t-2.5 -40l-12 -274q-1 -29 -16.5 -44.5t-46.5 -23.5q-18 -5 -35.5 -6t-39.5 3.5t-32.5 7t-36.5 10.5q-39 14 -39 57q2 47 -0.5 135t0.5 159t19 134q4 14 5 29t0.5 34 t0.5 29q0 14 -1.5 40.5t-1.5 48t3 40.5q17 127 -78 281q-2 4 -7.5 12t-7.5 11.5t-6 12.5t-3 14t2 15l-58 97l-133 235zM84 1081q0 -38 5 -44t36 -3q-5 5 -8 18t-10 20.5t-23 8.5zM117 1493q-2 35 18.5 60.5t54.5 29.5q33 0 39 -8q55 -63 70 -98q13 -29 -18 -58.5t-72 -29.5 q-35 1 -62.5 32.5t-29.5 71.5zM152 1073l2 -4l2 4h-4zM205 846l4 -2q6 0 8 2l-6 6zM209 928l6 -8q0 2 2 5t2 5l-2 4zM416 1451q-4 21 1 46.5t23 46.5q9 10 31.5 28t28.5 23q7 -7 37 -33t45 -42q22 -20 19.5 -32t-30.5 -24l-28 -8l14 -86l-31 -6q-20 -1 -37 -2t-32.5 8.5 t-24.5 30.5q-12 29 -16 50z" />
<glyph unicode="&#x2c6;" horiz-adv-x="352" d="M0 858.5q-2 24.5 27 52.5q29 25 166 152q3 3 11.5 9t10.5 7l29 -14q47 -20 64.5 -42.5t23.5 -68.5q1 -14 16 -63q29 -84 35 -107q2 -4 2 -28q-11 3 -19 8t-13.5 12.5t-8 13t-6.5 15.5l-39 96q-2 8 -11.5 24t-13.5 23l-79 -65q-8 -6 -34.5 -26t-39.5 -32 q-6 -5 -14.5 -18.5t-10.5 -15.5q-24 -29 -59 6q-35 37 -37 61.5z" />
<glyph unicode="&#x2dc;" horiz-adv-x="382" d="M2 811q-3 19 0 39q15 59 57 104q33 38 91 29q68 -8 126 -72q3 -4 37 -32q23 -16 43 -2q39 22 43 24q10 6 23 2q3 -1 3.5 -8.5t-1.5 -11.5q-9 -25 -25 -47q-19 -24 -59 -64q-11 -11 -43 -14.5t-41 0.5q-73 32 -94 80q-16 32 -62 39q-7 1 -17 -5t-15 -14q-6 -8 -15.5 -26.5 t-15.5 -26.5q-2 -5 -11 -11.5t-10 -7.5q-14 19 -14 25z" />
<glyph unicode="&#x2000;" horiz-adv-x="924" />
<glyph unicode="&#x2001;" horiz-adv-x="1848" />
<glyph unicode="&#x2002;" horiz-adv-x="924" />
<glyph unicode="&#x2003;" horiz-adv-x="1848" />
<glyph unicode="&#x2004;" horiz-adv-x="616" />
<glyph unicode="&#x2005;" horiz-adv-x="462" />
<glyph unicode="&#x2006;" horiz-adv-x="308" />
<glyph unicode="&#x2007;" horiz-adv-x="308" />
<glyph unicode="&#x2008;" horiz-adv-x="231" />
<glyph unicode="&#x2009;" horiz-adv-x="369" />
<glyph unicode="&#x200a;" horiz-adv-x="102" />
<glyph unicode="&#x2010;" horiz-adv-x="647" d="M50.5 396.5q10.5 9.5 68.5 -3.5q53 -12 106.5 -14t127 2t108.5 4q37 -1 57.5 -19.5t36.5 -52.5q4 -8 6.5 -18t4 -25.5t3.5 -25.5q-53 -1 -137 4t-131 6.5t-129 -6.5q-52 -7 -78 3t-39 52l-4 25q-11 59 -0.5 68.5z" />
<glyph unicode="&#x2011;" horiz-adv-x="647" d="M50.5 396.5q10.5 9.5 68.5 -3.5q53 -12 106.5 -14t127 2t108.5 4q37 -1 57.5 -19.5t36.5 -52.5q4 -8 6.5 -18t4 -25.5t3.5 -25.5q-53 -1 -137 4t-131 6.5t-129 -6.5q-52 -7 -78 3t-39 52l-4 25q-11 59 -0.5 68.5z" />
<glyph unicode="&#x2012;" horiz-adv-x="647" d="M50.5 396.5q10.5 9.5 68.5 -3.5q53 -12 106.5 -14t127 2t108.5 4q37 -1 57.5 -19.5t36.5 -52.5q4 -8 6.5 -18t4 -25.5t3.5 -25.5q-53 -1 -137 4t-131 6.5t-129 -6.5q-52 -7 -78 3t-39 52l-4 25q-11 59 -0.5 68.5z" />
<glyph unicode="&#x2013;" horiz-adv-x="1147" d="M55 396.5q21 9.5 134 -3.5q104 -12 208.5 -14t248 2t212.5 4q72 -1 112 -19.5t72 -52.5q7 -8 12 -18t8 -25.5t7 -25.5q-104 -1 -268 4t-256 6.5t-252 -6.5q-102 -7 -153 3t-76 52l-8 25q-22 59 -1 68.5z" />
<glyph unicode="&#x2014;" horiz-adv-x="2171" d="M65 396.5q41 9.5 268 -3.5q207 -12 416.5 -14t497 2t424.5 4q144 -1 224.5 -19.5t142.5 -52.5q16 -8 25.5 -18t15.5 -25.5t14 -25.5q-207 -1 -535.5 4t-512.5 6.5t-505 -6.5q-203 -7 -304.5 3t-152.5 52l-16 25q-43 59 -2 68.5z" />
<glyph unicode="&#x202f;" horiz-adv-x="369" />
<glyph unicode="&#x205f;" horiz-adv-x="462" />
<glyph unicode="&#x20ac;" horiz-adv-x="712" d="M-49 410q108 16 112 16q53 3 62 57q17 74 49 179q22 65 92 102q8 5 30 16.5t32 18.5q57 40 135 24q34 -7 69.5 -26t57 -34.5t59.5 -45.5q4 -4 7.5 -10.5t9 -19.5t10.5 -23q-11 3 -25 5.5t-22 4.5t-13 6q-36 33 -94 22q-29 -6 -44.5 -10.5t-38.5 -14t-38.5 -24.5 t-25.5 -37q-3 -7 -15.5 -18.5t-15.5 -15.5q-35 -30 -20 -93q42 4 53 7q5 1 58 8.5t81 9.5q56 4 84 -39q-18 -9 -33 -12q-119 -27 -159 -33q-87 -18 -107 -86l25 -55q40 9 110 20q50 8 72 6q5 0 10.5 -3t13 -10.5t9.5 -8.5q-17 -23 -23 -25q-98 -33 -125 -41 q-90 -25 -78 -114q1 -12 2.5 -51.5t7 -67t19.5 -53.5q18 -4 35.5 -5t35.5 1.5t31.5 5.5t32.5 7.5t31 6.5q100 22 113 23q7 1 43 -9l6 -12q-50 -39 -54 -41q-99 -54 -186 -59q-54 -3 -111 12.5t-108.5 54.5t-71.5 94l-14 35q-11 41 -27.5 65.5t-50.5 33.5q-3 1 -22 28 q52 16 72.5 41.5t-1.5 77.5q-8 4 -48.5 21t-63 36t-35.5 52z" />
<glyph unicode="&#x25fc;" horiz-adv-x="675" d="M0 0v676h676v-676h-676z" />
</font>
</defs>
</svg>
